<svg width="177" height="41" viewBox="0 0 177 41" fill="none" xmlns="http://www.w3.org/2000/svg">
<path fill-rule="evenodd" clip-rule="evenodd" d="M4.24429 29.9799V31.3431H7.19997V29.9799H9.62887V31.3431H12.5846V29.9799H15.0135V31.3431H17.9691V29.9799H20.398V31.3431H23.3537V29.9799H25.7123V10.6703H1.88728V29.9799H4.24429ZM1.77998 10.5637H25.8196V30.0866H23.461V31.4497H20.2907V30.0866H18.0764V31.4497H14.9062V30.0866H12.6919V31.4497H9.52157V30.0866H7.30727V31.4497H4.13698V30.0866H1.77998V10.5637ZM1.9947 0.178223V0.552778H2.36013V0.178223H3.43253V0.552778H3.79796V0.178223H4.87036V1.40009H4.48367V2.72489H5.11896V3.75952H6.03221V2.72489H6.66903V1.40009H6.28233V0.178223H7.35473V0.552778H7.72016V0.178223H8.79257V0.552778H9.158V0.178223H10.2304V1.40009H9.8437V2.72489H10.479V3.75952H11.5779V2.72489H12.2132V1.40009H11.8265V0.178223H12.8989V0.552778H13.2643V0.178223H14.3367V0.552778H14.7022V0.178223H15.7746V1.40009H15.3879V2.72489H16.0247V3.75952H17.03V2.72489H17.6668V1.40009H17.2801V0.178223H18.3525V0.552778H18.7149V0.178223H19.7873V0.552778H20.1527V0.178223H21.2251V1.40009H20.8384V2.72489H21.4737V3.75952H22.4791V2.72489H23.1159V1.40009H22.7292V0.178223H23.8016V0.552778H24.167V0.178223H25.2394V0.552778H25.6049V0.178223H26.6773V1.40009H26.2906V3.90828L24.799 5.494V7.83051H25.5402V10.2298H26.154V33.4514C26.154 34.1949 25.9672 34.797 25.5695 35.2619C25.1728 35.7255 24.5768 36.0403 23.7824 36.2307C21.3717 36.8079 17.9896 37.6184 15.5789 38.1987C15.1713 38.2967 14.8469 38.4567 14.5913 38.6836C14.3359 38.9104 14.144 39.2087 14.0085 39.5916M14.0084 39.5918L13.802 40.1782L13.5928 39.5921L13.5927 39.5918C13.4572 39.2088 13.2652 38.9108 13.0098 38.6842C12.7543 38.4575 12.4298 38.2975 12.022 38.1986C9.61293 37.6184 6.23098 36.8079 3.81877 36.2308C3.02437 36.0403 2.42833 35.7259 2.03162 35.2625C1.63385 34.7978 1.4471 34.1957 1.4471 33.4514V10.2298H2.0609V7.83051H2.80207V5.494L1.31053 3.90828V1.40009H0.923828V0.178223H1.9947M1.41783 1.29342V3.86619L2.90937 5.45191V7.93717H2.16821V10.3365H1.5544V33.4514C1.5544 34.9036 2.28176 35.7525 3.84389 36.1271C6.25613 36.7042 9.63819 37.5147 12.0474 38.095C12.8898 38.2992 13.4131 38.7628 13.6939 39.5564L13.8013 39.8573L13.9072 39.5564C14.188 38.7628 14.7113 38.2976 15.5537 38.095C17.9644 37.5147 21.3465 36.7042 23.7572 36.1271C25.3193 35.7525 26.0467 34.9021 26.0467 33.4514V10.3365H25.4329V7.93717H24.6917V5.45191L26.1832 3.86619V1.29342H26.5699V0.284887H25.7122V0.659442H25.1321V0.284887H24.2743V0.659442H23.6943V0.284887H22.8365V1.29342H23.2232V2.83155H22.5864V3.86619H21.3664V2.83155H20.7311V1.29342H21.1178V0.284887H20.2601V0.659442H19.68V0.284887H18.8222V0.659442H18.2452V0.284887H17.3875V1.29342H17.7741V2.83155H17.1373V3.86619H15.9174V2.83155H15.2806V1.29342H15.6673V0.284887H14.8095V0.659442H14.2294V0.284887H13.3716V0.659442H12.7916V0.284887H11.9338V1.29342H12.3205V2.83155H11.6852V3.86619H10.3717V2.83155H9.7364V1.29342H10.1231V0.284887H9.2653V0.659442H8.68526V0.284887H7.82747V0.659442H7.24743V0.284887H6.38964V1.29342H6.77633V2.83155H6.13951V3.86619H5.01165V2.83155H4.37636V1.29342H4.76306V0.284887H3.90527V0.659442H3.32522V0.284887H2.46743V0.659442H1.88739V0.284887H1.03113V1.29342H1.41783Z" fill="#EB5757"/>
<path d="M13.8001 12.7745C13.6681 12.7745 13.5607 12.8819 13.5607 13.0139C13.5607 13.146 13.6681 13.2534 13.8001 13.2534C13.9321 13.2534 14.0395 13.146 14.0395 13.0139C14.0395 12.8835 13.9321 12.7745 13.8001 12.7745Z" fill="#EB5757"/>
<path d="M13.3198 12.4597C13.3198 12.4597 13.3014 12.343 13.3014 12.1849C13.3014 12.0283 13.3198 11.9101 13.3198 11.9101C13.3198 11.9101 13.4656 11.9946 13.6175 11.9869C13.6359 11.7658 13.484 11.5294 13.484 11.5294C13.484 11.5294 13.6866 11.5939 13.8001 11.5939C13.9137 11.5939 14.1162 11.5294 14.1162 11.5294C14.1162 11.5294 13.9643 11.7658 13.9827 11.9869C14.1346 11.9961 14.2804 11.9101 14.2804 11.9101C14.2804 11.9101 14.2988 12.0268 14.2988 12.1849C14.2988 12.3415 14.2804 12.4597 14.2804 12.4597C14.2804 12.4597 14.1346 12.3753 13.9827 12.3829C13.9689 12.5456 14.0548 12.7068 14.1024 12.782L14.0763 12.802C14.0119 12.7191 13.9121 12.6654 13.8001 12.6654C13.6881 12.6654 13.5884 12.7191 13.5239 12.802L13.4978 12.782C13.5454 12.7068 13.6313 12.5456 13.6175 12.3829C13.4656 12.3753 13.3198 12.4597 13.3198 12.4597Z" fill="#EB5757"/>
<path d="M13.8001 13.3454L16.1494 15.1737V15.9305H15.4881V15.1737H14.13V15.9305H13.4687V15.1737H12.1122V15.9305H11.4492V15.1737L13.8001 13.3454Z" fill="#EB5757"/>
<path d="M11.1025 15.5223V16.2791H12.459V15.5223H13.1204V16.2791H14.4784V15.5223H15.1398V16.2791H16.4978V15.5223H17.1592V16.9284H10.4411V15.5223H11.1025Z" fill="#EB5757"/>
<path d="M21.4097 16.5016C21.4097 16.3466 21.2839 16.2207 21.1289 16.2207C20.9739 16.2207 20.8481 16.3466 20.8481 16.5016C20.8481 16.6566 20.9739 16.7825 21.1289 16.7825C21.2839 16.7825 21.4097 16.6566 21.4097 16.5016Z" fill="#EB5757"/>
<path d="M20.9893 17.9553V16.9513H21.2701V17.9553L23.1192 20.3208H16.9321V17.9553H20.9893Z" fill="#EB5757"/>
<path d="M18.5326 22.1016V21.331C18.5326 21.1759 18.3761 21.0516 18.1812 21.0516C17.9878 21.0516 17.8298 21.1775 17.8298 21.331V22.1016H18.5326ZM19.817 22.1016V21.331C19.817 21.1759 19.6604 21.0516 19.4656 21.0516C19.2722 21.0516 19.1142 21.1775 19.1142 21.331V22.1016H19.817ZM21.1013 22.1016V21.331C21.1013 21.1759 20.9448 21.0516 20.7499 21.0516C20.5566 21.0516 20.3985 21.1775 20.3985 21.331V22.1016H21.1013ZM22.0006 22.6772H16.9321V20.6694H22.0006V22.6772Z" fill="#EB5757"/>
<path d="M6.18898 16.5016C6.18898 16.3466 6.31481 16.2207 6.46979 16.2207C6.62478 16.2207 6.75061 16.3466 6.75061 16.5016C6.75061 16.6566 6.62478 16.7825 6.46979 16.7825C6.31481 16.7825 6.18898 16.6566 6.18898 16.5016Z" fill="#EB5757"/>
<path d="M6.61098 17.9553V16.9513H6.33017V17.9553L4.47955 20.3208H10.6667V17.9553H6.61098Z" fill="#EB5757"/>
<path d="M9.769 21.3308C9.769 21.1758 9.61248 21.0514 9.4176 21.0514C9.22425 21.0514 9.06619 21.1773 9.06619 21.3308V22.1014H9.769V21.3308ZM8.48308 21.3308C8.48308 21.1758 8.32656 21.0514 8.13168 21.0514C7.93833 21.0514 7.78028 21.1773 7.78028 21.3308V22.1014H8.48155V21.3308H8.48308ZM7.1987 21.3308C7.1987 21.1758 7.04218 21.0514 6.84729 21.0514C6.65395 21.0514 6.49589 21.1773 6.49589 21.3308V22.1014H7.19716V21.3308H7.1987ZM10.6667 22.6771H5.5982V20.6692H10.6667V22.6771Z" fill="#EB5757"/>
<path d="M19.9259 25.7995L17.0502 23.0241H22.2552C22.2552 23.0241 24.0122 23.632 24.0122 24.9706C24.0122 25.3467 23.8235 25.643 23.6977 25.798H19.9259V25.7995Z" fill="#EB5757"/>
<path d="M7.67285 25.7995L10.5485 23.0241H5.345C5.345 23.0241 3.58799 23.632 3.58799 24.9706C3.58799 25.3467 3.77673 25.643 3.90256 25.798H7.67285V25.7995Z" fill="#EB5757"/>
<path d="M9.29635 25.8024L12.7214 21.2816L8.08869 25.8776C8.1961 25.9206 8.37718 25.9728 8.61349 25.9728C8.99865 25.9743 9.22269 25.85 9.29635 25.8024ZM10.9644 25.7993L13.1848 21.0821L9.68611 25.8561C9.80887 25.9114 10.0053 25.9728 10.2631 25.9728C10.5976 25.9743 10.8585 25.8561 10.9644 25.7993ZM12.6845 25.7886L13.5285 20.9332L11.3219 25.8454C11.4278 25.9006 11.6211 25.9728 11.9111 25.9728C12.1904 25.9743 12.5342 25.85 12.6845 25.7886ZM13.8001 25.9743C14.2313 25.9743 14.4661 25.8914 14.5735 25.8362L13.8001 20.8088L13.0267 25.8362C13.1341 25.8899 13.3689 25.9728 13.8001 25.9743ZM16.2784 25.8469L14.0717 20.9347L14.9157 25.7901C15.0661 25.85 15.4098 25.9743 15.6891 25.9743C15.9791 25.9743 16.1725 25.9006 16.2784 25.8469ZM17.9126 25.8576L14.4139 21.0836L16.6344 25.8009C16.7387 25.8577 16.998 25.9743 17.3341 25.9743C17.595 25.9743 17.7914 25.9114 17.9126 25.8576ZM19.5116 25.8776L14.8789 21.2816L18.3024 25.8024C18.3776 25.8515 18.6016 25.9743 18.9868 25.9743C19.2246 25.9743 19.4057 25.9206 19.5116 25.8776Z" fill="#EB5757"/>
<path d="M20.3817 28.0222V27.2516C20.3817 27.0981 20.2251 26.9723 20.0303 26.9723C19.8369 26.9723 19.6789 27.0966 19.6789 27.2516V28.0222H20.3817ZM22.952 27.2516C22.952 27.0981 22.7954 26.9723 22.6006 26.9723C22.4072 26.9723 22.2492 27.0966 22.2492 27.2516V28.0222H22.9504V27.2516H22.952ZM21.666 27.2516C21.666 27.0981 21.5095 26.9723 21.3146 26.9723C21.1213 26.9723 20.9632 27.0966 20.9632 27.2516V28.0222H21.6645V27.2516H21.666ZM19.7602 26.1479H23.4614V29.6095H22.9826V30.9726H20.7684V29.6095H19.1694V26.3137C19.464 26.2846 19.6712 26.194 19.7602 26.1479Z" fill="#EB5757"/>
<path d="M7.91834 27.2516C7.91834 27.0981 7.76182 26.9722 7.56694 26.9722C7.37359 26.9722 7.21554 27.0966 7.21554 27.2516V28.0222H7.91681V27.2516H7.91834ZM5.34958 28.0222V27.2516C5.34958 27.0981 5.19306 26.9722 4.99817 26.9722C4.80483 26.9722 4.64677 27.0966 4.64677 27.2516V28.0222H5.34958ZM6.63396 28.0222V27.2516C6.63396 27.0981 6.47744 26.9722 6.28256 26.9722C6.08921 26.9722 5.93115 27.0966 5.93115 27.2516V28.0222H6.63396ZM8.42933 26.3121V29.6079H6.83038V30.971H4.61608V29.6079H4.13732V26.1464H7.83855C7.92908 26.1939 8.13471 26.2845 8.42933 26.3121Z" fill="#EB5757"/>
<path d="M9.71066 28.7913H10.6406V27.4666C10.6406 27.2624 10.4319 27.0966 10.1756 27.0966C9.91936 27.0966 9.71066 27.2624 9.71066 27.4666V28.7913ZM11.3342 28.7913H12.4881V27.3729C12.4881 27.1196 12.2303 26.9139 11.9111 26.9139C11.592 26.9139 11.3342 27.1196 11.3342 27.3729V28.7913ZM13.2232 28.7913H14.3771V27.3729C14.3771 27.1196 14.1193 26.9139 13.8001 26.9139C13.481 26.9139 13.2232 27.1196 13.2232 27.3729V28.7913ZM15.1121 28.7913H16.2661V27.3729C16.2661 27.1196 16.0083 26.9139 15.6891 26.9139C15.3699 26.9139 15.1121 27.1196 15.1121 27.3729V28.7913ZM16.9597 28.7913H17.8896V27.4666C17.8896 27.2624 17.6809 27.0966 17.4246 27.0966C17.1684 27.0966 16.9597 27.2624 16.9597 27.4666V28.7913ZM9.43906 26.1218C9.5833 26.2017 9.86719 26.3214 10.2646 26.3214C10.6483 26.3214 10.9505 26.1971 11.1025 26.1203C11.239 26.2017 11.5076 26.3214 11.9111 26.3214C12.2487 26.3214 12.6354 26.1832 12.8104 26.1126C12.9515 26.1971 13.2492 26.3199 13.7955 26.3214H13.8017C14.3479 26.3199 14.6472 26.1986 14.7884 26.1126C14.9633 26.1832 15.3515 26.3214 15.6876 26.3214C16.0911 26.3214 16.3597 26.2017 16.4963 26.1203C16.6482 26.1971 16.9505 26.3214 17.3341 26.3214C17.7315 26.3214 18.0139 26.2017 18.1597 26.1218C18.2809 26.1909 18.5019 26.2876 18.821 26.3137V29.608H17.598V30.9711H15.3837V29.608H12.2134V30.9711H9.99915V29.608H8.77615V26.3137C9.09533 26.2892 9.31783 26.1925 9.43906 26.1218Z" fill="#EB5757"/>
<path d="M15.4344 18.6644V17.8937C15.4344 17.7402 15.2779 17.6144 15.083 17.6144C14.8897 17.6144 14.7316 17.7387 14.7316 17.8937V18.6644H15.4344ZM14.15 17.8937C14.15 17.7402 13.992 17.6144 13.7986 17.6144C13.6053 17.6144 13.4472 17.7387 13.4472 17.8937V18.6644H14.1485V17.8937H14.15ZM12.8657 17.8937C12.8657 17.7402 12.7091 17.6144 12.5143 17.6144C12.3209 17.6144 12.1629 17.7387 12.1629 17.8937V18.6644H12.8641V17.8937H12.8657ZM14.3756 19.6069L13.8002 19.0312L13.2247 19.6069L13.6498 20.0321L11.015 22.5742V17.2751H16.5838V22.5742L13.949 20.0321L14.3756 19.6069Z" fill="#EB5757"/>
<path d="M1.78034 30.0869H4.13734V31.45H7.30764V30.0869H9.52193V31.45H12.6922V30.0869H14.9065V31.45H18.0768V30.0869H20.2911V31.45H23.4614V30.0869H25.8199V10.5639H1.78034V30.0869ZM1.88776 0.285156V0.659711H2.4678V0.285156H3.32559V0.659711H3.90563V0.285156H4.76342V1.29369H4.37673V2.83182H5.01201V3.86646H6.13988V2.83182H6.7767V1.29369H6.39V0.285156H7.24779V0.659711H7.82784V0.285156H8.68562V0.659711H9.26567V0.285156H10.1235V1.29369H9.73676V2.83182H10.372V3.86646H11.6856V2.83182H12.3209V1.29369H11.9342V0.285156H12.792V0.659711H13.372V0.285156H14.2298V0.659711H14.8098V0.285156H15.6676V1.29369H15.2809V2.83182H15.9178V3.86646H17.1377V2.83182H17.7745V1.29369H17.3878V0.285156H18.2456V0.659711H18.8226V0.285156H19.6804V0.659711H20.2604V0.285156H21.1182V1.29369H20.7315V2.83182H21.3668V3.86646H22.5867V2.83182H23.2236V1.29369H22.8369V0.285156H23.6946V0.659711H24.2747V0.285156H25.1325V0.659711H25.7125V0.285156H26.5703V1.29369H26.1836V3.86646L24.6921 5.45218V7.93744H25.4332V10.3367H26.047V33.4517C26.047 34.9023 25.3197 35.7528 23.7576 36.1273C21.3468 36.7045 17.9648 37.515 15.5541 38.0953C14.7116 38.2979 14.1884 38.763 13.9076 39.5567L13.8017 39.8575L13.6943 39.5567C13.4134 38.763 12.8902 38.2994 12.0477 38.0953C9.63856 37.515 6.2565 36.7045 3.84425 36.1273C2.28212 35.7528 1.55477 34.9039 1.55477 33.4517V10.3367H2.16857V7.93744H2.90974V5.45218L1.4182 3.86646V1.29369H1.0315V0.285156H1.88776Z" fill="#EB5757"/>
<path d="M54.2783 23.7358V32.1782H48.2798V7.29541H58.209C60.1117 7.29541 61.7922 7.6486 63.2505 8.35498C64.7202 9.04997 65.8539 10.0469 66.6514 11.3457C67.4603 12.6331 67.8648 14.0972 67.8648 15.7378C67.8648 18.1646 66.9932 20.1071 65.25 21.5654C63.5183 23.0124 61.1371 23.7358 58.1065 23.7358H54.2783ZM54.2783 19.1045H58.209C59.3711 19.1045 60.2541 18.814 60.8579 18.2329C61.4732 17.6519 61.7808 16.8315 61.7808 15.772C61.7808 14.6099 61.4675 13.6813 60.8408 12.9863C60.2142 12.2913 59.3597 11.9382 58.2774 11.9268H54.2783V19.1045ZM76.5382 32.1782H70.7618V5.92822H76.5382V32.1782ZM90.1677 32.1782C89.9626 31.8022 89.7803 31.2497 89.6208 30.5205C88.5613 31.8535 87.0801 32.52 85.1775 32.52C83.4343 32.52 81.9532 31.9959 80.7341 30.9478C79.515 29.8882 78.9055 28.5609 78.9055 26.9658C78.9055 24.9606 79.6461 23.4453 81.1272 22.4199C82.6083 21.3945 84.7616 20.8818 87.5871 20.8818H89.3645V19.9077C89.3645 18.2101 88.6296 17.3613 87.1599 17.3613C85.7927 17.3613 85.1091 18.0335 85.1091 19.3779H79.3498C79.3498 17.5892 80.1075 16.1366 81.6228 15.02C83.1495 13.9035 85.092 13.3452 87.4504 13.3452C89.8088 13.3452 91.6716 13.9206 93.0388 15.0713C94.406 16.222 95.1067 17.8 95.1408 19.8052V27.9912C95.1636 29.6888 95.4257 30.9876 95.927 31.8877V32.1782H90.1677ZM86.5617 28.4185C87.2795 28.4185 87.872 28.2646 88.3391 27.957C88.8176 27.6494 89.1594 27.3019 89.3645 26.9146V23.958H87.6897C85.6845 23.958 84.6819 24.8581 84.6819 26.6582C84.6819 27.1823 84.8585 27.6095 85.2116 27.9399C85.5648 28.259 86.0149 28.4185 86.5617 28.4185ZM97.2689 22.7959C97.2689 19.8678 97.9012 17.5607 99.1658 15.8745C100.43 14.1883 102.196 13.3452 104.464 13.3452C106.116 13.3452 107.506 13.9946 108.634 15.2935V5.92822H114.41V32.1782H109.232L108.941 30.1958C107.756 31.7453 106.252 32.52 104.43 32.52C102.231 32.52 100.487 31.6769 99.2 29.9907C97.9126 28.3045 97.2689 25.9062 97.2689 22.7959ZM103.028 23.1548C103.028 26.436 103.985 28.0767 105.899 28.0767C107.175 28.0767 108.087 27.5412 108.634 26.4702V19.4292C108.11 18.3354 107.209 17.7886 105.933 17.7886C104.156 17.7886 103.193 19.2241 103.045 22.0952L103.028 23.1548ZM116.606 22.7959C116.606 19.8678 117.239 17.5607 118.503 15.8745C119.768 14.1883 121.534 13.3452 123.801 13.3452C125.453 13.3452 126.843 13.9946 127.971 15.2935V5.92822H133.747V32.1782H128.569L128.279 30.1958C127.094 31.7453 125.59 32.52 123.767 32.52C121.568 32.52 119.825 31.6769 118.538 29.9907C117.25 28.3045 116.606 25.9062 116.606 22.7959ZM122.366 23.1548C122.366 26.436 123.323 28.0767 125.237 28.0767C126.513 28.0767 127.424 27.5412 127.971 26.4702V19.4292C127.447 18.3354 126.547 17.7886 125.271 17.7886C123.494 17.7886 122.531 19.2241 122.383 22.0952L122.366 23.1548ZM147.855 18.8994L145.959 18.7627C144.147 18.7627 142.985 19.3324 142.472 20.4717V32.1782H136.713V13.687H142.113L142.301 16.0625C143.27 14.251 144.62 13.3452 146.352 13.3452C146.967 13.3452 147.502 13.4136 147.958 13.5503L147.855 18.8994ZM159.485 32.1782C159.28 31.8022 159.098 31.2497 158.939 30.5205C157.879 31.8535 156.398 32.52 154.495 32.52C152.752 32.52 151.271 31.9959 150.052 30.9478C148.833 29.8882 148.223 28.5609 148.223 26.9658C148.223 24.9606 148.964 23.4453 150.445 22.4199C151.926 21.3945 154.079 20.8818 156.905 20.8818H158.682V19.9077C158.682 18.2101 157.947 17.3613 156.478 17.3613C155.11 17.3613 154.427 18.0335 154.427 19.3779H148.668C148.668 17.5892 149.425 16.1366 150.941 15.02C152.467 13.9035 154.41 13.3452 156.768 13.3452C159.127 13.3452 160.989 13.9206 162.357 15.0713C163.724 16.222 164.424 17.8 164.459 19.8052V27.9912C164.481 29.6888 164.743 30.9876 165.245 31.8877V32.1782H159.485ZM155.88 28.4185C156.597 28.4185 157.19 28.2646 157.657 27.957C158.135 27.6494 158.477 27.3019 158.682 26.9146V23.958H157.007C155.002 23.958 154 24.8581 154 26.6582C154 27.1823 154.176 27.6095 154.529 27.9399C154.883 28.259 155.333 28.4185 155.88 28.4185Z" fill="#EB5757"/>
</svg>
