<svg width="28" height="43" viewBox="0 0 28 43" fill="none" xmlns="http://www.w3.org/2000/svg">
<path fill-rule="evenodd" clip-rule="evenodd" d="M3.89021 31.8945V33.3533H7.03316V31.8945H9.61595V33.3533H12.7589V31.8945H15.3417V33.3533H18.4846V31.8945H21.0674V33.3533H24.2104V31.8945H26.7184V11.2289H1.38387V31.8945H3.89021ZM1.26977 11.1147H26.8325V32.0086H24.3245V33.4675H20.9533V32.0086H18.5988V33.4675H15.2276V32.0086H12.873V33.4675H9.50185V32.0086H7.14726V33.4675H3.77611V32.0086H1.26977V11.1147ZM1.49809 0V0.400858H1.88668V0H3.02702V0.400858H3.41561V0H4.55596V1.30767H4.14476V2.7255H4.8203V3.83279H5.79141V2.7255H6.46858V1.30767H6.05738V0H7.19773V0.400858H7.58632V0H8.72666V0.400858H9.11525V0H10.2556V1.30767H9.8444V2.7255H10.5199V3.83279H11.6885V2.7255H12.364V1.30767H11.9528V0H13.0932V0.400858H13.4818V0H14.6221V0.400858H15.0107V0H16.151V1.30767H15.7398V2.7255H16.417V3.83279H17.486V2.7255H18.1632V1.30767H17.752V0H18.8923V0.400858H19.2777V0H20.418V0.400858H20.8066V0H21.9469V1.30767H21.5358V2.7255H22.2113V3.83279H23.2803V2.7255H23.9575V1.30767H23.5463V0H24.6866V0.400858H25.0752V0H26.2156V0.400858H26.6041V0H27.7445V1.30767H27.3333V3.992L25.7473 5.68907V8.18965H26.5354V10.7574H27.1881V35.6098C27.1881 36.4054 26.9895 37.0498 26.5665 37.5473C26.1447 38.0435 25.511 38.3804 24.6662 38.5842C22.1027 39.202 18.5064 40.0694 15.943 40.6904C15.5095 40.7953 15.1645 40.9665 14.8928 41.2094C14.6213 41.452 14.4171 41.7713 14.273 42.1811M14.273 42.1813L14.0535 42.8089L13.831 42.1816L13.8309 42.1813C13.6868 41.7714 13.4827 41.4525 13.2111 41.21C12.9394 40.9674 12.5943 40.7961 12.1607 40.6903C9.59901 40.0694 6.00278 39.202 3.43774 38.5842C2.593 38.3804 1.9592 38.044 1.53735 37.548C1.11438 37.0506 0.915797 36.4062 0.915797 35.6098V10.7574H1.56849V8.18965H2.35662V5.68907L0.770574 3.992V1.30767H0.359375V0H1.49809M0.884678 1.19351V3.94694L2.47072 5.64402V8.30381H1.68259V10.8716H1.0299V35.6098C1.0299 37.1639 1.80334 38.0724 3.46444 38.4733C6.02953 39.091 9.62586 39.9584 12.1877 40.5794C13.0835 40.7979 13.6399 41.2941 13.9385 42.1434L14.0527 42.4654L14.1653 42.1434C14.4639 41.2941 15.0204 40.7963 15.9162 40.5794C18.4796 39.9584 22.076 39.091 24.6394 38.4733C26.3005 38.0724 27.074 37.1623 27.074 35.6098V10.8716H26.4213V8.30381H25.6331V5.64402L27.2192 3.94694V1.19351H27.6304V0.114154H26.7182V0.515012H26.1015V0.114154H25.1893V0.515012H24.5725V0.114154H23.6604V1.19351H24.0716V2.83966H23.3944V3.94694H22.0972V2.83966H21.4216V1.19351H21.8328V0.114154H20.9207V0.515012H20.3039V0.114154H19.3918V0.515012H18.7782V0.114154H17.8661V1.19351H18.2773V2.83966H17.6001V3.94694H16.3029V2.83966H15.6257V1.19351H16.0369V0.114154H15.1248V0.515012H14.508V0.114154H13.5959V0.515012H12.9791V0.114154H12.0669V1.19351H12.4781V2.83966H11.8026V3.94694H10.4058V2.83966H9.73029V1.19351H10.1415V0.114154H9.22935V0.515012H8.61256V0.114154H7.70042V0.515012H7.08363V0.114154H6.17149V1.19351H6.58268V2.83966H5.90551V3.94694H4.70619V2.83966H4.03065V1.19351H4.44185V0.114154H3.52971V0.515012H2.91292V0.114154H2.00078V0.515012H1.38399V0.114154H0.47348V1.19351H0.884678Z" fill="white"/>
<path d="M14.0516 13.4806C13.9112 13.4806 13.797 13.5956 13.797 13.7369C13.797 13.8782 13.9112 13.9932 14.0516 13.9932C14.1919 13.9932 14.3061 13.8782 14.3061 13.7369C14.3061 13.5972 14.1919 13.4806 14.0516 13.4806Z" fill="white"/>
<path d="M13.5408 13.1437C13.5408 13.1437 13.5213 13.0189 13.5213 12.8496C13.5213 12.6821 13.5408 12.5556 13.5408 12.5556C13.5408 12.5556 13.6958 12.6459 13.8574 12.6377C13.877 12.4011 13.7154 12.1481 13.7154 12.1481C13.7154 12.1481 13.9308 12.2171 14.0516 12.2171C14.1723 12.2171 14.3877 12.1481 14.3877 12.1481C14.3877 12.1481 14.2262 12.4011 14.2457 12.6377C14.4073 12.6476 14.5623 12.5556 14.5623 12.5556C14.5623 12.5556 14.5819 12.6804 14.5819 12.8496C14.5819 13.0172 14.5623 13.1437 14.5623 13.1437C14.5623 13.1437 14.4073 13.0534 14.2457 13.0616C14.2311 13.2357 14.3224 13.4082 14.373 13.4887L14.3453 13.5101C14.2767 13.4214 14.1707 13.3639 14.0516 13.3639C13.9324 13.3639 13.8264 13.4214 13.7579 13.5101L13.7301 13.4887C13.7807 13.4082 13.8721 13.2357 13.8574 13.0616C13.6958 13.0534 13.5408 13.1437 13.5408 13.1437Z" fill="white"/>
<path d="M14.0516 14.0916L16.5497 16.0483V16.8582H15.8465V16.0483H14.4024V16.8582H13.6991V16.0483H12.2567V16.8582H11.5518V16.0483L14.0516 14.0916Z" fill="white"/>
<path d="M11.183 16.4214V17.2313H12.6255V16.4214H13.3287V17.2313H14.7728V16.4214H15.4761V17.2313H16.9202V16.4214H17.6235V17.9262H10.4797V16.4214H11.183Z" fill="white"/>
<path d="M22.1433 17.4695C22.1433 17.3035 22.0095 17.1688 21.8447 17.1688C21.6799 17.1688 21.5461 17.3035 21.5461 17.4695C21.5461 17.6354 21.6799 17.7701 21.8447 17.7701C22.0095 17.7701 22.1433 17.6354 22.1433 17.4695Z" fill="white"/>
<path d="M21.6962 19.0252V17.9508H21.9948V19.0252L23.9611 21.5568H17.3819V19.0252H21.6962Z" fill="white"/>
<path d="M19.0839 23.4627V22.638C19.0839 22.472 18.9174 22.339 18.7102 22.339C18.5046 22.339 18.3365 22.4737 18.3365 22.638V23.4627H19.0839ZM20.4496 23.4627V22.638C20.4496 22.472 20.2832 22.339 20.076 22.339C19.8704 22.339 19.7023 22.4737 19.7023 22.638V23.4627H20.4496ZM21.8154 23.4627V22.638C21.8154 22.472 21.6489 22.339 21.4417 22.339C21.2361 22.339 21.068 22.4737 21.068 22.638V23.4627H21.8154ZM22.7716 24.0787H17.382V21.9299H22.7716V24.0787Z" fill="white"/>
<path d="M5.95821 17.4695C5.95821 17.3035 6.09201 17.1688 6.25681 17.1688C6.42161 17.1688 6.55541 17.3035 6.55541 17.4695C6.55541 17.6354 6.42161 17.7701 6.25681 17.7701C6.09201 17.7701 5.95821 17.6354 5.95821 17.4695Z" fill="white"/>
<path d="M6.40694 19.0252V17.9508H6.10834V19.0252L4.14047 21.5568H10.7196V19.0252H6.40694Z" fill="white"/>
<path d="M9.76505 22.6378C9.76505 22.4719 9.59861 22.3388 9.39138 22.3388C9.18578 22.3388 9.01771 22.4735 9.01771 22.6378V23.4625H9.76505V22.6378ZM8.39765 22.6378C8.39765 22.4719 8.23122 22.3388 8.02399 22.3388C7.81839 22.3388 7.65032 22.4735 7.65032 22.6378V23.4625H8.39602V22.6378H8.39765ZM7.0319 22.6378C7.0319 22.4719 6.86546 22.3388 6.65823 22.3388C6.45263 22.3388 6.28456 22.4735 6.28456 22.6378V23.4625H7.03026V22.6378H7.0319ZM10.7196 24.0786H5.33V21.9297H10.7196V24.0786Z" fill="white"/>
<path d="M20.5654 27.4203L17.5076 24.45H23.0424C23.0424 24.45 24.9107 25.1006 24.9107 26.5332C24.9107 26.9357 24.71 27.2528 24.5762 27.4187H20.5654V27.4203Z" fill="white"/>
<path d="M7.53609 27.4203L10.594 24.45H5.06075C5.06075 24.45 3.19242 25.1006 3.19242 26.5332C3.19242 26.9357 3.39312 27.2528 3.52692 27.4187H7.53609V27.4203Z" fill="white"/>
<path d="M9.26245 27.4234L12.9045 22.5852L7.97828 27.5039C8.0925 27.5499 8.28504 27.6057 8.53633 27.6057C8.94589 27.6074 9.18413 27.4743 9.26245 27.4234ZM11.0361 27.4201L13.3973 22.3716L9.67691 27.4809C9.80745 27.54 10.0163 27.6057 10.2904 27.6057C10.6462 27.6074 10.9236 27.4809 11.0361 27.4201ZM12.8653 27.4086L13.7628 22.2122L11.4163 27.4694C11.5289 27.5285 11.7345 27.6057 12.0429 27.6057C12.3399 27.6074 12.7054 27.4743 12.8653 27.4086ZM14.0516 27.6074C14.5101 27.6074 14.7597 27.5187 14.874 27.4595L14.0516 22.0792L13.2292 27.4595C13.3434 27.517 13.5931 27.6057 14.0516 27.6074ZM16.6868 27.471L14.3404 22.2139L15.2378 27.4102C15.3978 27.4743 15.7633 27.6074 16.0602 27.6074C16.3686 27.6074 16.5742 27.5285 16.6868 27.471ZM18.4246 27.4825L14.7043 22.3732L17.0654 27.4217C17.1763 27.4825 17.4521 27.6074 17.8095 27.6074C18.0869 27.6074 18.2957 27.54 18.4246 27.4825ZM20.1249 27.5039L15.1987 22.5852L18.8391 27.4234C18.919 27.476 19.1573 27.6074 19.5668 27.6074C19.8197 27.6074 20.0123 27.5499 20.1249 27.5039Z" fill="white"/>
<path d="M21.0501 29.7991V28.9744C21.0501 28.8101 20.8837 28.6754 20.6764 28.6754C20.4708 28.6754 20.3028 28.8085 20.3028 28.9744V29.7991H21.0501ZM23.7833 28.9744C23.7833 28.8101 23.6168 28.6754 23.4096 28.6754C23.204 28.6754 23.0359 28.8085 23.0359 28.9744V29.7991H23.7816V28.9744H23.7833ZM22.4159 28.9744C22.4159 28.8101 22.2494 28.6754 22.0422 28.6754C21.8366 28.6754 21.6685 28.8085 21.6685 28.9744V29.7991H22.4142V28.9744H22.4159ZM20.3892 27.7932H24.325V31.4978H23.8159V32.9567H21.4613V31.4978H19.761V27.9706C20.0743 27.9394 20.2946 27.8425 20.3892 27.7932Z" fill="white"/>
<path d="M7.79714 28.9744C7.79714 28.8101 7.6307 28.6754 7.42347 28.6754C7.21787 28.6754 7.0498 28.8084 7.0498 28.9744V29.7991H7.7955V28.9744H7.79714ZM5.06562 29.7991V28.9744C5.06562 28.8101 4.89918 28.6754 4.69195 28.6754C4.48635 28.6754 4.31828 28.8084 4.31828 28.9744V29.7991H5.06562ZM6.43138 29.7991V28.9744C6.43138 28.8101 6.26494 28.6754 6.05771 28.6754C5.85211 28.6754 5.68404 28.8084 5.68404 28.9744V29.7991H6.43138ZM8.3405 27.9689V31.4961H6.64024V32.955H4.28565V31.4961H3.77655V27.7915H7.71228C7.80856 27.8424 8.02721 27.9394 8.3405 27.9689Z" fill="white"/>
<path d="M9.70302 30.6222H10.6918V29.2044C10.6918 28.9859 10.4699 28.8085 10.1974 28.8085C9.92493 28.8085 9.70302 28.9859 9.70302 29.2044V30.6222ZM11.4294 30.6222H12.6565V29.1042C12.6565 28.8331 12.3823 28.613 12.0429 28.613C11.7035 28.613 11.4294 28.8331 11.4294 29.1042V30.6222ZM13.438 30.6222H14.6651V29.1042C14.6651 28.8331 14.391 28.613 14.0516 28.613C13.7122 28.613 13.438 28.8331 13.438 29.1042V30.6222ZM15.4467 30.6222H16.6738V29.1042C16.6738 28.8331 16.3996 28.613 16.0602 28.613C15.7208 28.613 15.4467 28.8331 15.4467 29.1042V30.6222ZM17.4113 30.6222H18.4001V29.2044C18.4001 28.9859 18.1782 28.8085 17.9057 28.8085C17.6332 28.8085 17.4113 28.9859 17.4113 29.2044V30.6222ZM9.4142 27.7653C9.56758 27.8507 9.86945 27.9788 10.2921 27.9788C10.7 27.9788 11.0215 27.8458 11.183 27.7636C11.3282 27.8507 11.6138 27.9788 12.0429 27.9788C12.4019 27.9788 12.8131 27.831 12.9991 27.7554C13.1492 27.8458 13.4658 27.9772 14.0467 27.9788H14.0532C14.6341 27.9772 14.9523 27.8474 15.1024 27.7554C15.2884 27.831 15.7013 27.9788 16.0586 27.9788C16.4878 27.9788 16.7733 27.8507 16.9185 27.7636C17.0801 27.8458 17.4015 27.9788 17.8095 27.9788C18.2321 27.9788 18.5323 27.8507 18.6873 27.7653C18.8162 27.8392 19.0512 27.9427 19.3906 27.9706V31.4962H18.0901V32.9551H15.7355V31.4962H12.3644V32.9551H10.0098V31.4962H8.70929V27.9706C9.04869 27.9443 9.28529 27.8408 9.4142 27.7653Z" fill="white"/>
<path d="M15.7894 19.7841V18.9594C15.7894 18.7951 15.623 18.6604 15.4158 18.6604C15.2102 18.6604 15.0421 18.7934 15.0421 18.9594V19.7841H15.7894ZM14.4237 18.9594C14.4237 18.7951 14.2556 18.6604 14.05 18.6604C13.8444 18.6604 13.6763 18.7934 13.6763 18.9594V19.7841H14.422V18.9594H14.4237ZM13.0579 18.9594C13.0579 18.7951 12.8915 18.6604 12.6842 18.6604C12.4786 18.6604 12.3106 18.7934 12.3106 18.9594V19.7841H13.0563V18.9594H13.0579ZM14.6635 20.7928L14.0516 20.1767L13.4397 20.7928L13.8917 21.2479L11.09 23.9685V18.2973H17.0116V23.9685L14.2099 21.2479L14.6635 20.7928Z" fill="white"/>
<path d="M1.27024 32.0087H3.77658V33.4676H7.14774V32.0087H9.50233V33.4676H12.8735V32.0087H15.2281V33.4676H18.5992V32.0087H20.9538V33.4676H24.325V32.0087H26.8329V11.1148H1.27024V32.0087ZM1.38446 0.114258V0.515115H2.00126V0.114258H2.91339V0.515115H3.53019V0.114258H4.44233V1.19362H4.03113V2.83976H4.70667V3.94705H5.90599V2.83976H6.58316V1.19362H6.17196V0.114258H7.0841V0.515115H7.7009V0.114258H8.61303V0.515115H9.22983V0.114258H10.142V1.19362H9.73077V2.83976H10.4063V3.94705H11.8031V2.83976H12.4786V1.19362H12.0674V0.114258H12.9795V0.515115H13.5963V0.114258H14.5085V0.515115H15.1253V0.114258H16.0374V1.19362H15.6262V2.83976H16.3034V3.94705H17.6006V2.83976H18.2778V1.19362H17.8666V0.114258H18.7787V0.515115H19.3922V0.114258H20.3044V0.515115H20.9212V0.114258H21.8333V1.19362H21.4221V2.83976H22.0977V3.94705H23.3949V2.83976H24.0721V1.19362H23.6609V0.114258H24.573V0.515115H25.1898V0.114258H26.1019V0.515115H26.7187V0.114258H27.6309V1.19362H27.2197V3.94705L25.6336 5.64412V8.30391H26.4217V10.8717H27.0744V35.6099C27.0744 37.1624 26.301 38.0725 24.6399 38.4734C22.0764 39.0911 18.4801 39.9585 15.9167 40.5795C15.0208 40.7964 14.4644 41.2942 14.1658 42.1435L14.0532 42.4655L13.939 42.1435C13.6404 41.2942 13.084 40.798 12.1882 40.5795C9.62634 39.9585 6.03 39.0911 3.46492 38.4734C1.80382 38.0725 1.03038 37.164 1.03038 35.6099V10.8717H1.68307V8.30391H2.4712V5.64412L0.885154 3.94705V1.19362H0.473956V0.114258H1.38446Z" fill="white"/>
</svg>
