<svg width="74" height="80" viewBox="0 0 74 80" fill="none" xmlns="http://www.w3.org/2000/svg">
<path fill-rule="evenodd" clip-rule="evenodd" d="M26.2686 34.272V35.8396H29.6459V34.272H32.4212V35.8396H35.7984V34.272H38.5738V35.8396H41.951V34.272H44.7263V35.8396H48.1035V34.272H50.7985V12.0659H23.5755V34.272H26.2686ZM23.4529 11.9433H50.9211V34.3946H48.2262V35.9622H44.6037V34.3946H42.0736V35.9622H38.4511V34.3946H35.921V35.9622H32.2986V34.3946H29.7685V35.9622H26.146V34.3946H23.4529V11.9433ZM23.6982 0V0.430738H24.1158V0H25.3411V0.430738H25.7587V0H26.984V1.40514H26.5422V2.92867H27.2681V4.11849H28.3116V2.92867H29.0392V1.40514H28.5974V0H29.8227V0.430738H30.2403V0H31.4656V0.430738H31.8832V0H33.1085V1.40514H32.6667V2.92867H33.3926V4.11849H34.6482V2.92867H35.3741V1.40514H34.9323V0H36.1576V0.430738H36.5752V0H37.8005V0.430738H38.2181V0H39.4434V1.40514H39.0016V2.92867H39.7292V4.11849H40.8779V2.92867H41.6056V1.40514H41.1637V0H42.3891V0.430738H42.8031V0H44.0285V0.430738H44.446V0H45.6714V1.40514H45.2295V2.92867H45.9554V4.11849H47.1041V2.92867H47.8318V1.40514H47.3899V0H48.6153V0.430738H49.0328V0H50.2582V0.430738H50.6757V0H51.9011V1.40514H51.4592V4.28957L49.755 6.11315V8.80013H50.6018V11.5593H51.3032V38.2642C51.3032 39.1192 51.0898 39.8116 50.6353 40.3462C50.182 40.8794 49.5011 41.2413 48.5933 41.4604C45.8388 42.1242 41.9744 43.0562 39.2199 43.7235C38.7541 43.8363 38.3834 44.0203 38.0914 44.2812C37.7996 44.542 37.5803 44.885 37.4254 45.3254M37.4254 45.3256L37.1896 46L36.9504 45.3259L36.9503 45.3256C36.7955 44.8852 36.5762 44.5425 36.2843 44.2819C35.9923 44.0212 35.6216 43.8371 35.1557 43.7235C32.403 43.0562 28.5387 42.1242 25.7824 41.4604C24.8747 41.2414 24.1937 40.8799 23.7404 40.3469C23.2859 39.8125 23.0725 39.12 23.0725 38.2642V11.5593H23.7739V8.80013H24.6207V6.11315L22.9165 4.28957V1.40514H22.4746V0H23.6982M23.0391 1.28248V4.24116L24.7433 6.06474V8.92279H23.8965V11.682H23.1951V38.2642C23.1951 39.9342 24.0262 40.9104 25.8111 41.3412C28.5674 42.0049 32.4318 42.937 35.1846 43.6043C36.1472 43.8391 36.7451 44.3722 37.066 45.2849L37.1887 45.6309L37.3097 45.2849C37.6306 44.3722 38.2285 43.8373 39.1911 43.6043C41.9456 42.937 45.81 42.0049 48.5646 41.3412C50.3495 40.9104 51.1806 39.9324 51.1806 38.2642V11.682H50.4792V8.92279H49.6324V6.06474L51.3366 4.24116V1.28248H51.7785V0.122664H50.7983V0.553402H50.1356V0.122664H49.1554V0.553402H48.4927V0.122664H47.5125V1.28248H47.9544V3.05133H47.2267V4.24116H45.8328V3.05133H45.1069V1.28248H45.5488V0.122664H44.5686V0.553402H43.9059V0.122664H42.9257V0.553402H42.2665V0.122664H41.2863V1.28248H41.7282V3.05133H41.0005V4.24116H39.6066V3.05133H38.879V1.28248H39.3208V0.122664H38.3407V0.553402H37.6779V0.122664H36.6978V0.553402H36.035V0.122664H35.0549V1.28248H35.4967V3.05133H34.7708V4.24116H33.27V3.05133H32.5441V1.28248H32.9859V0.122664H32.0058V0.553402H31.343V0.122664H30.3629V0.553402H29.7001V0.122664H28.72V1.28248H29.1618V3.05133H28.4342V4.24116H27.1455V3.05133H26.4196V1.28248H26.8614V0.122664H25.8813V0.553402H25.2185V0.122664H24.2384V0.553402H23.5756V0.122664H22.5972V1.28248H23.0391Z" fill="#333333"/>
<path d="M37.1878 14.4853C37.037 14.4853 36.9142 14.6088 36.9142 14.7607C36.9142 14.9125 37.037 15.036 37.1878 15.036C37.3385 15.036 37.4613 14.9125 37.4613 14.7607C37.4613 14.6106 37.3385 14.4853 37.1878 14.4853Z" fill="#333333"/>
<path d="M36.639 14.1233C36.639 14.1233 36.6179 13.9891 36.6179 13.8073C36.6179 13.6272 36.639 13.4913 36.639 13.4913C36.639 13.4913 36.8055 13.5884 36.9791 13.5795C37.0002 13.3253 36.8266 13.0535 36.8266 13.0535C36.8266 13.0535 37.058 13.1276 37.1878 13.1276C37.3175 13.1276 37.549 13.0535 37.549 13.0535C37.549 13.0535 37.3754 13.3253 37.3964 13.5795C37.57 13.5901 37.7366 13.4913 37.7366 13.4913C37.7366 13.4913 37.7576 13.6254 37.7576 13.8073C37.7576 13.9873 37.7366 14.1233 37.7366 14.1233C37.7366 14.1233 37.57 14.0262 37.3964 14.035C37.3806 14.2221 37.4788 14.4075 37.5332 14.494L37.5034 14.5169C37.4297 14.4216 37.3158 14.3598 37.1878 14.3598C37.0598 14.3598 36.9458 14.4216 36.8722 14.5169L36.8424 14.494C36.8967 14.4075 36.9949 14.2221 36.9791 14.035C36.8055 14.0262 36.639 14.1233 36.639 14.1233Z" fill="#333333"/>
<path d="M37.1878 15.1419L39.8722 17.2444V18.1147H39.1165V17.2444H37.5647V18.1147H36.809V17.2444H35.2591V18.1147H34.5016V17.2444L37.1878 15.1419Z" fill="#333333"/>
<path d="M34.1054 17.6453V18.5156H35.6554V17.6453H36.4111V18.5156H37.9628V17.6453H38.7185V18.5156H40.2702V17.6453H41.0259V19.2623H33.3497V17.6453H34.1054Z" fill="#333333"/>
<path d="M45.8827 18.7715C45.8827 18.5932 45.7389 18.4484 45.5618 18.4484C45.3847 18.4484 45.241 18.5932 45.241 18.7715C45.241 18.9498 45.3847 19.0945 45.5618 19.0945C45.7389 19.0945 45.8827 18.9498 45.8827 18.7715Z" fill="#333333"/>
<path d="M45.4023 20.4432V19.2887H45.7232V20.4432L47.836 23.1635H40.7664V20.4432H45.4023Z" fill="#333333"/>
<path d="M42.5952 25.2114V24.3252C42.5952 24.1469 42.4163 24.0039 42.1937 24.0039C41.9727 24.0039 41.7921 24.1487 41.7921 24.3252V25.2114H42.5952ZM44.0628 25.2114V24.3252C44.0628 24.1469 43.8839 24.0039 43.6612 24.0039C43.4403 24.0039 43.2597 24.1487 43.2597 24.3252V25.2114H44.0628ZM45.5303 25.2114V24.3252C45.5303 24.1469 45.3515 24.0039 45.1288 24.0039C44.9079 24.0039 44.7273 24.1487 44.7273 24.3252V25.2114H45.5303ZM46.5578 25.8734H40.7664V23.5644H46.5578V25.8734Z" fill="#333333"/>
<path d="M28.4911 18.7715C28.4911 18.5932 28.6349 18.4484 28.812 18.4484C28.9891 18.4484 29.1328 18.5932 29.1328 18.7715C29.1328 18.9498 28.9891 19.0945 28.812 19.0945C28.6349 19.0945 28.4911 18.9498 28.4911 18.7715Z" fill="#333333"/>
<path d="M28.9733 20.4432V19.2887H28.6524V20.4432L26.5379 23.1635H33.6074V20.4432H28.9733Z" fill="#333333"/>
<path d="M32.5817 24.3251C32.5817 24.1468 32.4029 24.0038 32.1802 24.0038C31.9593 24.0038 31.7787 24.1485 31.7787 24.3251V25.2113H32.5817V24.3251ZM31.1124 24.3251C31.1124 24.1468 30.9336 24.0038 30.7109 24.0038C30.49 24.0038 30.3094 24.1485 30.3094 24.3251V25.2113H31.1106V24.3251H31.1124ZM29.6448 24.3251C29.6448 24.1468 29.466 24.0038 29.2433 24.0038C29.0224 24.0038 28.8418 24.1485 28.8418 24.3251V25.2113H29.6431V24.3251H29.6448ZM33.6074 25.8732H27.8161V23.5642H33.6074V25.8732Z" fill="#333333"/>
<path d="M44.1872 29.4641L40.9014 26.2724H46.8488C46.8488 26.2724 48.8564 26.9715 48.8564 28.5108C48.8564 28.9433 48.6407 29.284 48.497 29.4623H44.1872V29.4641Z" fill="#333333"/>
<path d="M30.1866 29.4641L33.4724 26.2724H27.5268C27.5268 26.2724 25.5192 26.9715 25.5192 28.5108C25.5192 28.9433 25.7348 29.284 25.8786 29.4623H30.1866V29.4641Z" fill="#333333"/>
<path d="M32.0417 29.4674L35.9552 24.2685L30.6618 29.5539C30.7845 29.6033 30.9914 29.6633 31.2614 29.6633C31.7015 29.6651 31.9575 29.5221 32.0417 29.4674ZM33.9476 29.4638L36.4847 24.039L32.487 29.5292C32.6273 29.5927 32.8517 29.6633 33.1463 29.6633C33.5285 29.6651 33.8266 29.5292 33.9476 29.4638ZM35.9131 29.4515L36.8774 23.8678L34.3561 29.5168C34.4771 29.5804 34.698 29.6633 35.0294 29.6633C35.3485 29.6651 35.7413 29.5221 35.9131 29.4515ZM37.1878 29.6651C37.6805 29.6651 37.9487 29.5698 38.0715 29.5062L37.1878 23.7248L36.3041 29.5062C36.4268 29.568 36.6951 29.6633 37.1878 29.6651ZM40.0195 29.5186L37.4981 23.8695L38.4625 29.4533C38.6343 29.5221 39.0271 29.6651 39.3462 29.6651C39.6776 29.6651 39.8985 29.5804 40.0195 29.5186ZM41.8868 29.5309L37.8891 24.0408L40.4262 29.4656C40.5455 29.5309 40.8418 29.6651 41.2258 29.6651C41.5239 29.6651 41.7483 29.5927 41.8868 29.5309ZM43.7138 29.5539L38.4204 24.2685L42.3322 29.4674C42.4181 29.5239 42.6741 29.6651 43.1142 29.6651C43.3859 29.6651 43.5928 29.6033 43.7138 29.5539Z" fill="#333333"/>
<path d="M44.708 32.0202V31.134C44.708 30.9575 44.5291 30.8127 44.3065 30.8127C44.0855 30.8127 43.905 30.9557 43.905 31.134V32.0202H44.708ZM47.6449 31.134C47.6449 30.9575 47.466 30.8127 47.2434 30.8127C47.0224 30.8127 46.8418 30.9557 46.8418 31.134V32.0202H47.6431V31.134H47.6449ZM46.1756 31.134C46.1756 30.9575 45.9967 30.8127 45.774 30.8127C45.5531 30.8127 45.3725 30.9557 45.3725 31.134V32.0202H46.1738V31.134H46.1756ZM43.9979 29.8648H48.227V33.8455H47.6799V35.4132H45.1498V33.8455H43.3228V30.0554C43.6595 30.0219 43.8962 29.9177 43.9979 29.8648Z" fill="#333333"/>
<path d="M30.4671 31.134C30.4671 30.9574 30.2883 30.8127 30.0656 30.8127C29.8447 30.8127 29.6641 30.9557 29.6641 31.134V32.0202H30.4654V31.134H30.4671ZM27.532 32.0202V31.134C27.532 30.9574 27.3531 30.8127 27.1305 30.8127C26.9095 30.8127 26.7289 30.9557 26.7289 31.134V32.0202H27.532ZM28.9996 32.0202V31.134C28.9996 30.9574 28.8207 30.8127 28.598 30.8127C28.3771 30.8127 28.1965 30.9557 28.1965 31.134V32.0202H28.9996ZM31.051 30.0536V33.8437H29.224V35.4113H26.6939V33.8437H26.1468V29.8629H30.3759C30.4794 29.9177 30.7143 30.0218 31.051 30.0536Z" fill="#333333"/>
<path d="M32.5151 32.9046H33.5776V31.3812C33.5776 31.1464 33.3391 30.9557 33.0463 30.9557C32.7535 30.9557 32.5151 31.1464 32.5151 31.3812V32.9046ZM34.3701 32.9046H35.6887V31.2735C35.6887 30.9822 35.3941 30.7456 35.0294 30.7456C34.6647 30.7456 34.3701 30.9822 34.3701 31.2735V32.9046ZM36.5285 32.9046H37.847V31.2735C37.847 30.9822 37.5525 30.7456 37.1878 30.7456C36.8231 30.7456 36.5285 30.9822 36.5285 31.2735V32.9046ZM38.6869 32.9046H40.0054V31.2735C40.0054 30.9822 39.7109 30.7456 39.3462 30.7456C38.9815 30.7456 38.6869 30.9822 38.6869 31.2735V32.9046ZM40.798 32.9046H41.8605V31.3812C41.8605 31.1464 41.622 30.9557 41.3292 30.9557C41.0364 30.9557 40.798 31.1464 40.798 31.3812V32.9046ZM32.2047 29.8347C32.3695 29.9265 32.6939 30.0642 33.148 30.0642C33.5864 30.0642 33.9318 29.9212 34.1054 29.833C34.2614 29.9265 34.5683 30.0642 35.0294 30.0642C35.4151 30.0642 35.857 29.9054 36.0569 29.8242C36.2182 29.9212 36.5583 30.0625 37.1825 30.0642H37.1895C37.8137 30.0625 38.1556 29.923 38.317 29.8242C38.5168 29.9054 38.9604 30.0642 39.3444 30.0642C39.8056 30.0642 40.1124 29.9265 40.2684 29.833C40.442 29.9212 40.7874 30.0642 41.2258 30.0642C41.6799 30.0642 42.0025 29.9265 42.1691 29.8347C42.3076 29.9142 42.5601 30.0254 42.9248 30.0554V33.8438H41.5274V35.4114H38.9973V33.8438H35.3748V35.4114H32.8447V33.8438H31.4473V30.0554C31.812 30.0272 32.0662 29.9159 32.2047 29.8347Z" fill="#333333"/>
<path d="M39.0552 21.2586V20.3724C39.0552 20.1959 38.8763 20.0512 38.6537 20.0512C38.4327 20.0512 38.2521 20.1941 38.2521 20.3724V21.2586H39.0552ZM37.5876 20.3724C37.5876 20.1959 37.407 20.0512 37.1861 20.0512C36.9652 20.0512 36.7846 20.1941 36.7846 20.3724V21.2586H37.5859V20.3724H37.5876ZM36.12 20.3724C36.12 20.1959 35.9412 20.0512 35.7185 20.0512C35.4976 20.0512 35.317 20.1941 35.317 20.3724V21.2586H36.1183V20.3724H36.12ZM37.8454 22.3425L37.1878 21.6805L36.5303 22.3425L37.016 22.8315L34.0055 25.7549V19.661H40.3684V25.7549L37.3579 22.8315L37.8454 22.3425Z" fill="#333333"/>
<path d="M23.4537 34.3945H26.1469V35.9621H29.7693V34.3945H32.2994V35.9621H35.9219V34.3945H38.452V35.9621H42.0744V34.3945H44.6045V35.9621H48.227V34.3945H50.9219V11.9432H23.4537V34.3945ZM23.5764 0.122559V0.553297H24.2392V0.122559H25.2193V0.553297H25.8821V0.122559H26.8622V1.28237H26.4204V3.05123H27.1463V4.24105H28.435V3.05123H29.1626V1.28237H28.7208V0.122559H29.7009V0.553297H30.3637V0.122559H31.3438V0.553297H32.0066V0.122559H32.9867V1.28237H32.5449V3.05123H33.2708V4.24105H34.7717V3.05123H35.4976V1.28237H35.0557V0.122559H36.0358V0.553297H36.6986V0.122559H37.6787V0.553297H38.3415V0.122559H39.3216V1.28237H38.8798V3.05123H39.6074V4.24105H41.0014V3.05123H41.729V1.28237H41.2872V0.122559H42.2673V0.553297H42.9266V0.122559H43.9067V0.553297H44.5695V0.122559H45.5496V1.28237H45.1077V3.05123H45.8336V4.24105H47.2276V3.05123H47.9552V1.28237H47.5134V0.122559H48.4935V0.553297H49.1563V0.122559H50.1364V0.553297H50.7992V0.122559H51.7793V1.28237H51.3374V4.24105L49.6332 6.06463V8.92269H50.4801V11.6819H51.1814V38.2641C51.1814 39.9323 50.3503 40.9103 48.5654 41.3411C45.8108 42.0048 41.9464 42.9369 39.1919 43.6042C38.2293 43.8372 37.6314 44.3721 37.3105 45.2848L37.1895 45.6308L37.0668 45.2848C36.7459 44.3721 36.1481 43.839 35.1855 43.6042C32.4327 42.9369 28.5683 42.0048 25.812 41.3411C24.027 40.9103 23.1959 39.9341 23.1959 38.2641V11.6819H23.8973V8.92269H24.7442V6.06463L23.0399 4.24105V1.28237H22.5981V0.122559H23.5764Z" fill="#333333"/>
<path d="M6.01952 69.9346V75H2.4204V60.0703H8.37792C9.51952 60.0703 10.5278 60.2822 11.4028 60.7061C12.2847 61.123 12.9648 61.7212 13.4434 62.5005C13.9287 63.2729 14.1714 64.1514 14.1714 65.1357C14.1714 66.5918 13.6484 67.7573 12.6025 68.6323C11.5635 69.5005 10.1348 69.9346 8.3164 69.9346H6.01952ZM6.01952 67.1558H8.37792C9.07519 67.1558 9.60497 66.9814 9.96728 66.6328C10.3364 66.2842 10.521 65.792 10.521 65.1562C10.521 64.459 10.333 63.9019 9.95702 63.4849C9.58105 63.0679 9.06835 62.856 8.41894 62.8491H6.01952V67.1558ZM19.3754 75H15.9096V59.25H19.3754V75ZM27.5531 75C27.4301 74.7744 27.3207 74.4429 27.225 74.0054C26.5893 74.8052 25.7006 75.2051 24.559 75.2051C23.5131 75.2051 22.6244 74.8906 21.893 74.2617C21.1615 73.626 20.7958 72.8296 20.7958 71.8726C20.7958 70.6694 21.2401 69.7603 22.1288 69.145C23.0175 68.5298 24.3095 68.2222 26.0048 68.2222H27.0712V67.6377C27.0712 66.6191 26.6303 66.1099 25.7484 66.1099C24.9281 66.1099 24.518 66.5132 24.518 67.3198H21.0624C21.0624 66.2466 21.517 65.375 22.4262 64.7051C23.3422 64.0352 24.5077 63.7002 25.9228 63.7002C27.3378 63.7002 28.4555 64.0454 29.2758 64.7358C30.0961 65.4263 30.5165 66.373 30.537 67.5762V72.4878C30.5507 73.5063 30.7079 74.2856 31.0087 74.8257V75H27.5531ZM25.3896 72.7441C25.8202 72.7441 26.1757 72.6519 26.456 72.4673C26.7431 72.2827 26.9482 72.0742 27.0712 71.8418V70.0679H26.0663C24.8632 70.0679 24.2616 70.6079 24.2616 71.688C24.2616 72.0024 24.3676 72.2588 24.5795 72.457C24.7914 72.6484 25.0614 72.7441 25.3896 72.7441ZM31.8138 69.3706C31.8138 67.6138 32.1932 66.2295 32.952 65.2178C33.7108 64.2061 34.7704 63.7002 36.1307 63.7002C37.1219 63.7002 37.9559 64.0898 38.6327 64.8691V59.25H42.0985V75H38.9916L38.8173 73.8105C38.1063 74.7402 37.204 75.2051 36.1102 75.2051C34.7909 75.2051 33.745 74.6992 32.9725 73.6875C32.2001 72.6758 31.8138 71.2368 31.8138 69.3706ZM35.2694 69.5859C35.2694 71.5547 35.8436 72.5391 36.9921 72.5391C37.7577 72.5391 38.3046 72.2178 38.6327 71.5752V67.3506C38.3182 66.6943 37.7782 66.3662 37.0126 66.3662C35.9462 66.3662 35.3685 67.2275 35.2797 68.9502L35.2694 69.5859ZM43.4163 69.3706C43.4163 67.6138 43.7957 66.2295 44.5545 65.2178C45.3133 64.2061 46.3729 63.7002 47.7332 63.7002C48.7244 63.7002 49.5584 64.0898 50.2352 64.8691V59.25H53.701V75H50.5941L50.4198 73.8105C49.7088 74.7402 48.8065 75.2051 47.7127 75.2051C46.3934 75.2051 45.3475 74.6992 44.575 73.6875C43.8026 72.6758 43.4163 71.2368 43.4163 69.3706ZM46.8719 69.5859C46.8719 71.5547 47.4461 72.5391 48.5946 72.5391C49.3602 72.5391 49.9071 72.2178 50.2352 71.5752V67.3506C49.9207 66.6943 49.3807 66.3662 48.6151 66.3662C47.5487 66.3662 46.971 67.2275 46.8822 68.9502L46.8719 69.5859ZM62.1658 67.0327L61.0276 66.9507C59.9407 66.9507 59.2435 67.2925 58.9358 67.9761V75H55.4803V63.9053H58.7205L58.8333 65.3306C59.4143 64.2437 60.2244 63.7002 61.2635 63.7002C61.6326 63.7002 61.9539 63.7412 62.2273 63.8232L62.1658 67.0327ZM69.1438 75C69.0208 74.7744 68.9114 74.4429 68.8157 74.0054C68.1799 74.8052 67.2913 75.2051 66.1497 75.2051C65.1038 75.2051 64.2151 74.8906 63.4836 74.2617C62.7522 73.626 62.3865 72.8296 62.3865 71.8726C62.3865 70.6694 62.8308 69.7603 63.7195 69.145C64.6082 68.5298 65.9002 68.2222 67.5955 68.2222H68.6619V67.6377C68.6619 66.6191 68.221 66.1099 67.3391 66.1099C66.5188 66.1099 66.1086 66.5132 66.1086 67.3198H62.6531C62.6531 66.2466 63.1077 65.375 64.0168 64.7051C64.9329 64.0352 66.0984 63.7002 67.5134 63.7002C68.9285 63.7002 70.0461 64.0454 70.8665 64.7358C71.6868 65.4263 72.1072 66.373 72.1277 67.5762V72.4878C72.1414 73.5063 72.2986 74.2856 72.5994 74.8257V75H69.1438ZM66.9802 72.7441C67.4109 72.7441 67.7664 72.6519 68.0466 72.4673C68.3337 72.2827 68.5388 72.0742 68.6619 71.8418V70.0679H67.657C66.4539 70.0679 65.8523 70.6079 65.8523 71.688C65.8523 72.0024 65.9583 72.2588 66.1702 72.457C66.3821 72.6484 66.6521 72.7441 66.9802 72.7441Z" fill="#333333"/>
</svg>
