<svg width="28" height="44" viewBox="0 0 28 44" fill="none" xmlns="http://www.w3.org/2000/svg">
<path fill-rule="evenodd" clip-rule="evenodd" d="M4.04451 32.7275V34.1863H7.18746V32.7275H9.77025V34.1863H12.9132V32.7275H15.496V34.1863H18.6389V32.7275H21.2217V34.1863H24.3647V32.7275H26.8727V12.0619H1.53817V32.7275H4.04451ZM1.42406 11.9477H26.9868V32.8416H24.4788V34.3005H21.1076V32.8416H18.753V34.3005H15.3819V32.8416H13.0273V34.3005H9.65615V32.8416H7.30156V34.3005H3.9304V32.8416H1.42406V11.9477ZM1.65239 0.833008V1.23387H2.04097V0.833008H3.18132V1.23387H3.5699V0.833008H4.71025V2.14067H4.29906V3.55851H4.9746V4.6658H5.94571V3.55851H6.62288V2.14067H6.21168V0.833008H7.35203V1.23387H7.74061V0.833008H8.88096V1.23387H9.26954V0.833008H10.4099V2.14067H9.99869V3.55851H10.6742V4.6658H11.8428V3.55851H12.5183V2.14067H12.1071V0.833008H13.2475V1.23387H13.6361V0.833008H14.7764V1.23387H15.165V0.833008H16.3053V2.14067H15.8941V3.55851H16.5713V4.6658H17.6403V3.55851H18.3175V2.14067H17.9063V0.833008H19.0466V1.23387H19.432V0.833008H20.5723V1.23387H20.9609V0.833008H22.1012V2.14067H21.69V3.55851H22.3656V4.6658H23.4346V3.55851H24.1118V2.14067H23.7006V0.833008H24.8409V1.23387H25.2295V0.833008H26.3699V1.23387H26.7584V0.833008H27.8988V2.14067H27.4876V4.825L25.9015 6.52208V9.02266H26.6897V11.5904H27.3424V36.4428C27.3424 37.2384 27.1438 37.8828 26.7208 38.3803C26.299 38.8766 25.6653 39.2134 24.8205 39.4172C22.257 40.035 18.6607 40.9024 16.0973 41.5234C15.6638 41.6283 15.3188 41.7996 15.0471 42.0424C14.7756 42.285 14.5714 42.6043 14.4273 43.0141M14.4273 43.0143L14.2078 43.6419L13.9853 43.0146L13.9852 43.0143C13.8411 42.6045 13.637 42.2855 13.3654 42.043C13.0937 41.8004 12.7486 41.6291 12.315 41.5233C9.7533 40.9024 6.15708 40.035 3.59204 39.4173C2.7473 39.2134 2.1135 38.877 1.69165 38.381C1.26868 37.8836 1.07009 37.2392 1.07009 36.4428V11.5904H1.72279V9.02266H2.51091V6.52208L0.924871 4.825V2.14067H0.513672V0.833008H1.65239M1.03898 2.02652V4.77995L2.62502 6.47702V9.13681H1.83689V11.7046H1.1842V36.4428C1.1842 37.9969 1.95764 38.9054 3.61874 39.3063C6.18382 39.924 9.78016 40.7914 12.342 41.4124C13.2378 41.6309 13.7942 42.1271 14.0928 42.9764L14.207 43.2984L14.3196 42.9764C14.6182 42.1271 15.1747 41.6293 16.0705 41.4124C18.6339 40.7914 22.2303 39.924 24.7937 39.3063C26.4548 38.9054 27.2283 37.9953 27.2283 36.4428V11.7046H26.5756V9.13681H25.7874V6.47702L27.3735 4.77995V2.02652H27.7847V0.947162H26.8725V1.34802H26.2557V0.947162H25.3436V1.34802H24.7268V0.947162H23.8147V2.02652H24.2259V3.67266H23.5487V4.77995H22.2515V3.67266H21.5759V2.02652H21.9871V0.947162H21.075V1.34802H20.4582V0.947162H19.5461V1.34802H18.9325V0.947162H18.0204V2.02652H18.4316V3.67266H17.7544V4.77995H16.4572V3.67266H15.78V2.02652H16.1912V0.947162H15.2791V1.34802H14.6623V0.947162H13.7502V1.34802H13.1334V0.947162H12.2212V2.02652H12.6324V3.67266H11.9569V4.77995H10.5601V3.67266H9.88459V2.02652H10.2958V0.947162H9.38365V1.34802H8.76685V0.947162H7.85472V1.34802H7.23792V0.947162H6.32578V2.02652H6.73698V3.67266H6.05981V4.77995H4.86049V3.67266H4.18495V2.02652H4.59615V0.947162H3.68401V1.34802H3.06721V0.947162H2.15508V1.34802H1.53828V0.947162H0.627777V2.02652H1.03898Z" fill="#EB5757"/>
<path d="M14.2058 14.3136C14.0655 14.3136 13.9513 14.4286 13.9513 14.5699C13.9513 14.7112 14.0655 14.8262 14.2058 14.8262C14.3462 14.8262 14.4604 14.7112 14.4604 14.5699C14.4604 14.4303 14.3462 14.3136 14.2058 14.3136Z" fill="#EB5757"/>
<path d="M13.6951 13.9767C13.6951 13.9767 13.6756 13.8519 13.6756 13.6826C13.6756 13.5151 13.6951 13.3886 13.6951 13.3886C13.6951 13.3886 13.8501 13.4789 14.0117 13.4707C14.0313 13.2341 13.8697 12.9811 13.8697 12.9811C13.8697 12.9811 14.0851 13.0501 14.2059 13.0501C14.3266 13.0501 14.542 12.9811 14.542 12.9811C14.542 12.9811 14.3805 13.2341 14.4 13.4707C14.5616 13.4806 14.7166 13.3886 14.7166 13.3886C14.7166 13.3886 14.7362 13.5134 14.7362 13.6826C14.7362 13.8502 14.7166 13.9767 14.7166 13.9767C14.7166 13.9767 14.5616 13.8864 14.4 13.8946C14.3854 14.0687 14.4767 14.2412 14.5273 14.3217L14.4996 14.3431C14.431 14.2544 14.325 14.1969 14.2059 14.1969C14.0867 14.1969 13.9807 14.2544 13.9122 14.3431L13.8844 14.3217C13.935 14.2412 14.0264 14.0687 14.0117 13.8946C13.8501 13.8864 13.6951 13.9767 13.6951 13.9767Z" fill="#EB5757"/>
<path d="M14.2059 14.9247L16.704 16.8813V17.6912H16.0008V16.8813H14.5567V17.6912H13.8534V16.8813H12.411V17.6912H11.706V16.8813L14.2059 14.9247Z" fill="#EB5757"/>
<path d="M11.3373 17.2544V18.0643H12.7798V17.2544H13.483V18.0643H14.9271V17.2544H15.6304V18.0643H17.0745V17.2544H17.7777V18.7593H10.634V17.2544H11.3373Z" fill="#EB5757"/>
<path d="M22.2976 18.3025C22.2976 18.1366 22.1638 18.0018 21.999 18.0018C21.8342 18.0018 21.7004 18.1366 21.7004 18.3025C21.7004 18.4684 21.8342 18.6031 21.999 18.6031C22.1638 18.6031 22.2976 18.4684 22.2976 18.3025Z" fill="#EB5757"/>
<path d="M21.8505 19.8582V18.7838H22.1491V19.8582L24.1154 22.3899H17.5362V19.8582H21.8505Z" fill="#EB5757"/>
<path d="M19.2382 24.2957V23.471C19.2382 23.305 19.0717 23.172 18.8645 23.172C18.6589 23.172 18.4908 23.3067 18.4908 23.471V24.2957H19.2382ZM20.6039 24.2957V23.471C20.6039 23.305 20.4375 23.172 20.2303 23.172C20.0247 23.172 19.8566 23.3067 19.8566 23.471V24.2957H20.6039ZM21.9697 24.2957V23.471C21.9697 23.305 21.8032 23.172 21.596 23.172C21.3904 23.172 21.2223 23.3067 21.2223 23.471V24.2957H21.9697ZM22.9259 24.9118H17.5363V22.7629H22.9259V24.9118Z" fill="#EB5757"/>
<path d="M6.1125 18.3025C6.1125 18.1366 6.2463 18.0018 6.41111 18.0018C6.57591 18.0018 6.70971 18.1366 6.70971 18.3025C6.70971 18.4684 6.57591 18.6031 6.41111 18.6031C6.2463 18.6031 6.1125 18.4684 6.1125 18.3025Z" fill="#EB5757"/>
<path d="M6.56124 19.8582V18.7838H6.26263V19.8582L4.29476 22.3899H10.8739V19.8582H6.56124Z" fill="#EB5757"/>
<path d="M9.91935 23.4708C9.91935 23.3049 9.75291 23.1718 9.54568 23.1718C9.34008 23.1718 9.17201 23.3065 9.17201 23.4708V24.2955H9.91935V23.4708ZM8.55195 23.4708C8.55195 23.3049 8.38551 23.1718 8.17828 23.1718C7.97269 23.1718 7.80462 23.3065 7.80462 23.4708V24.2955H8.55032V23.4708H8.55195ZM7.18619 23.4708C7.18619 23.3049 7.01976 23.1718 6.81253 23.1718C6.60693 23.1718 6.43886 23.3065 6.43886 23.4708V24.2955H7.18456V23.4708H7.18619ZM10.8739 24.9116H5.4843V22.7627H10.8739V24.9116Z" fill="#EB5757"/>
<path d="M20.7197 28.2533L17.6619 25.283H23.1967C23.1967 25.283 25.065 25.9336 25.065 27.3662C25.065 27.7687 24.8643 28.0858 24.7305 28.2517H20.7197V28.2533Z" fill="#EB5757"/>
<path d="M7.69038 28.2533L10.7482 25.283H5.21505C5.21505 25.283 3.34672 25.9336 3.34672 27.3662C3.34672 27.7687 3.54742 28.0858 3.68122 28.2517H7.69038V28.2533Z" fill="#EB5757"/>
<path d="M9.41675 28.2564L13.0588 23.4182L8.13257 28.3369C8.24679 28.3829 8.43934 28.4387 8.69062 28.4387C9.10019 28.4404 9.33842 28.3073 9.41675 28.2564ZM11.1904 28.2531L13.5516 23.2046L9.83121 28.3139C9.96174 28.373 10.1706 28.4387 10.4447 28.4387C10.8005 28.4404 11.0778 28.3139 11.1904 28.2531ZM13.0196 28.2416L13.9171 23.0452L11.5706 28.3024C11.6832 28.3615 11.8888 28.4387 12.1972 28.4387C12.4942 28.4404 12.8597 28.3073 13.0196 28.2416ZM14.2059 28.4404C14.6644 28.4404 14.914 28.3517 15.0283 28.2925L14.2059 22.9122L13.3835 28.2925C13.4977 28.35 13.7474 28.4387 14.2059 28.4404ZM16.8411 28.304L14.4947 23.0469L15.3921 28.2432C15.5521 28.3073 15.9176 28.4404 16.2145 28.4404C16.5229 28.4404 16.7285 28.3615 16.8411 28.304ZM18.5789 28.3155L14.8586 23.2062L17.2197 28.2547C17.3306 28.3155 17.6064 28.4404 17.9638 28.4404C18.2411 28.4404 18.45 28.373 18.5789 28.3155ZM20.2792 28.3369L15.353 23.4182L18.9934 28.2564C19.0733 28.309 19.3116 28.4404 19.7211 28.4404C19.974 28.4404 20.1666 28.3829 20.2792 28.3369Z" fill="#EB5757"/>
<path d="M21.2044 30.6321V29.8074C21.2044 29.6431 21.038 29.5084 20.8307 29.5084C20.6251 29.5084 20.4571 29.6415 20.4571 29.8074V30.6321H21.2044ZM23.9375 29.8074C23.9375 29.6431 23.7711 29.5084 23.5639 29.5084C23.3583 29.5084 23.1902 29.6415 23.1902 29.8074V30.6321H23.9359V29.8074H23.9375ZM22.5702 29.8074C22.5702 29.6431 22.4037 29.5084 22.1965 29.5084C21.9909 29.5084 21.8228 29.6415 21.8228 29.8074V30.6321H22.5685V29.8074H22.5702ZM20.5435 28.6262H24.4793V32.3308H23.9702V33.7897H21.6156V32.3308H19.9153V28.8036C20.2286 28.7724 20.4489 28.6755 20.5435 28.6262Z" fill="#EB5757"/>
<path d="M7.95143 29.8074C7.95143 29.6431 7.78499 29.5084 7.57776 29.5084C7.37217 29.5084 7.2041 29.6414 7.2041 29.8074V30.6321H7.9498V29.8074H7.95143ZM5.21991 30.6321V29.8074C5.21991 29.6431 5.05348 29.5084 4.84625 29.5084C4.64065 29.5084 4.47258 29.6414 4.47258 29.8074V30.6321H5.21991ZM6.58567 30.6321V29.8074C6.58567 29.6431 6.41924 29.5084 6.21201 29.5084C6.00641 29.5084 5.83834 29.6414 5.83834 29.8074V30.6321H6.58567ZM8.4948 28.8019V32.3291H6.79454V33.788H4.43995V32.3291H3.93085V28.6245H7.86658C7.96285 28.6754 8.18151 28.7724 8.4948 28.8019Z" fill="#EB5757"/>
<path d="M9.85731 31.4552H10.8461V30.0374C10.8461 29.8189 10.6242 29.6415 10.3517 29.6415C10.0792 29.6415 9.85731 29.8189 9.85731 30.0374V31.4552ZM11.5837 31.4552H12.8107V29.9372C12.8107 29.6661 12.5366 29.446 12.1972 29.446C11.8578 29.446 11.5837 29.6661 11.5837 29.9372V31.4552ZM13.5923 31.4552H14.8194V29.9372C14.8194 29.6661 14.5453 29.446 14.2059 29.446C13.8665 29.446 13.5923 29.6661 13.5923 29.9372V31.4552ZM15.601 31.4552H16.8281V29.9372C16.8281 29.6661 16.5539 29.446 16.2145 29.446C15.8751 29.446 15.601 29.6661 15.601 29.9372V31.4552ZM17.5656 31.4552H18.5544V30.0374C18.5544 29.8189 18.3325 29.6415 18.06 29.6415C17.7875 29.6415 17.5656 29.8189 17.5656 30.0374V31.4552ZM9.5685 28.5983C9.72188 28.6837 10.0238 28.8118 10.4464 28.8118C10.8543 28.8118 11.1758 28.6788 11.3373 28.5966C11.4825 28.6837 11.7681 28.8118 12.1972 28.8118C12.5562 28.8118 12.9674 28.664 13.1534 28.5884C13.3035 28.6788 13.6201 28.8102 14.201 28.8118H14.2075C14.7884 28.8102 15.1066 28.6804 15.2567 28.5884C15.4427 28.664 15.8556 28.8118 16.2129 28.8118C16.6421 28.8118 16.9276 28.6837 17.0728 28.5966C17.2344 28.6788 17.5558 28.8118 17.9638 28.8118C18.3864 28.8118 18.6866 28.6837 18.8416 28.5983C18.9705 28.6722 19.2055 28.7757 19.5449 28.8036V32.3292H18.2444V33.7881H15.8898V32.3292H12.5187V33.7881H10.1641V32.3292H8.86359V28.8036C9.20299 28.7773 9.43959 28.6738 9.5685 28.5983Z" fill="#EB5757"/>
<path d="M15.9437 20.6171V19.7924C15.9437 19.6281 15.7773 19.4934 15.5701 19.4934C15.3645 19.4934 15.1964 19.6265 15.1964 19.7924V20.6171H15.9437ZM14.578 19.7924C14.578 19.6281 14.4099 19.4934 14.2043 19.4934C13.9987 19.4934 13.8306 19.6265 13.8306 19.7924V20.6171H14.5763V19.7924H14.578ZM13.2122 19.7924C13.2122 19.6281 13.0458 19.4934 12.8385 19.4934C12.6329 19.4934 12.4649 19.6265 12.4649 19.7924V20.6171H13.2106V19.7924H13.2122ZM14.8178 21.6258L14.2059 21.0097L13.594 21.6258L14.046 22.0809L11.2443 24.8015V19.1303H17.1659V24.8015L14.3642 22.0809L14.8178 21.6258Z" fill="#EB5757"/>
<path d="M1.42454 32.8417H3.93088V34.3006H7.30204V32.8417H9.65662V34.3006H13.0278V32.8417H15.3824V34.3006H18.7535V32.8417H21.1081V34.3006H24.4793V32.8417H26.9872V11.9478H1.42454V32.8417ZM1.53876 0.947266V1.34812H2.15555V0.947266H3.06769V1.34812H3.68448V0.947266H4.59662V2.02662H4.18543V3.67277H4.86097V4.78005H6.06029V3.67277H6.73746V2.02662H6.32626V0.947266H7.2384V1.34812H7.85519V0.947266H8.76733V1.34812H9.38412V0.947266H10.2963V2.02662H9.88506V3.67277H10.5606V4.78005H11.9574V3.67277H12.6329V2.02662H12.2217V0.947266H13.1338V1.34812H13.7506V0.947266H14.6628V1.34812H15.2796V0.947266H16.1917V2.02662H15.7805V3.67277H16.4577V4.78005H17.7549V3.67277H18.4321V2.02662H18.0209V0.947266H18.933V1.34812H19.5465V0.947266H20.4587V1.34812H21.0755V0.947266H21.9876V2.02662H21.5764V3.67277H22.252V4.78005H23.5492V3.67277H24.2264V2.02662H23.8152V0.947266H24.7273V1.34812H25.3441V0.947266H26.2562V1.34812H26.873V0.947266H27.7852V2.02662H27.374V4.78005L25.7879 6.47713V9.13692H26.576V11.7047H27.2287V36.4429C27.2287 37.9954 26.4553 38.9055 24.7942 39.3064C22.2307 39.9241 18.6344 40.7915 16.071 41.4125C15.1751 41.6294 14.6187 42.1272 14.3201 42.9765L14.2075 43.2985L14.0933 42.9765C13.7947 42.1272 13.2383 41.631 12.3425 41.4125C9.78064 40.7915 6.1843 39.9241 3.61922 39.3064C1.95811 38.9055 1.18467 37.997 1.18467 36.4429V11.7047H1.83737V9.13692H2.62549V6.47713L1.03945 4.78005V2.02662H0.628253V0.947266H1.53876Z" fill="#EB5757"/>
</svg>
