<svg width="182" height="41" viewBox="0 0 182 41" fill="none" xmlns="http://www.w3.org/2000/svg">
<path fill-rule="evenodd" clip-rule="evenodd" d="M3.32046 29.9799V31.3431H6.27614V29.9799H8.70504V31.3431H11.6607V29.9799H14.0896V31.3431H17.0453V29.9799H19.4742V31.3431H22.4299V29.9799H24.7884V10.6703H0.963453V29.9799H3.32046ZM0.856147 10.5637H24.8957V30.0866H22.5372V31.4497H19.3669V30.0866H17.1526V31.4497H13.9823V30.0866H11.768V31.4497H8.59774V30.0866H6.38345V31.4497H3.21315V30.0866H0.856147V10.5637ZM1.07087 0.178223V0.552778H1.4363V0.178223H2.5087V0.552778H2.87413V0.178223H3.94654V1.40009H3.55984V2.72489H4.19513V3.75952H5.10838V2.72489H5.7452V1.40009H5.3585V0.178223H6.4309V0.552778H6.79634V0.178223H7.86874V0.552778H8.23417V0.178223H9.30657V1.40009H8.91987V2.72489H9.55516V3.75952H10.6541V2.72489H11.2894V1.40009H10.9027V0.178223H11.9751V0.552778H12.3405V0.178223H13.4129V0.552778H13.7783V0.178223H14.8507V1.40009H14.464V2.72489H15.1009V3.75952H16.1062V2.72489H16.743V1.40009H16.3563V0.178223H17.4287V0.552778H17.7911V0.178223H18.8635V0.552778H19.2289V0.178223H20.3013V1.40009H19.9146V2.72489H20.5499V3.75952H21.5552V2.72489H22.1921V1.40009H21.8054V0.178223H22.8778V0.552778H23.2432V0.178223H24.3156V0.552778H24.681V0.178223H25.7534V1.40009H25.3667V3.90828L23.8752 5.494V7.83051H24.6164V10.2298H25.2302V33.4514C25.2302 34.1949 25.0434 34.797 24.6456 35.2619C24.249 35.7255 23.653 36.0403 22.8585 36.2307C20.4478 36.8079 17.0658 37.6184 14.6551 38.1987C14.2475 38.2967 13.923 38.4567 13.6675 38.6836C13.4121 38.9104 13.2202 39.2087 13.0846 39.5916M13.0846 39.5918L12.8782 40.1782L12.6689 39.5921L12.6688 39.5918C12.5333 39.2088 12.3414 38.9108 12.086 38.6842C11.8304 38.4575 11.5059 38.2975 11.0982 38.1986C8.68911 37.6184 5.30715 36.8079 2.89495 36.2308C2.10054 36.0403 1.5045 35.7259 1.10779 35.2625C0.71002 34.7978 0.523269 34.1957 0.523269 33.4514V10.2298H1.13707V7.83051H1.87824V5.494L0.386698 3.90828V1.40009H0V0.178223H1.07087M0.494004 1.29342V3.86619L1.98554 5.45191V7.93717H1.24438V10.3365H0.630575V33.4514C0.630575 34.9036 1.35793 35.7525 2.92006 36.1271C5.3323 36.7042 8.71436 37.5147 11.1235 38.095C11.966 38.2992 12.4892 38.7628 12.7701 39.5564L12.8775 39.8573L12.9834 39.5564C13.2642 38.7628 13.7874 38.2976 14.6299 38.095C17.0406 37.5147 20.4227 36.7042 22.8334 36.1271C24.3955 35.7525 25.1229 34.9021 25.1229 33.4514V10.3365H24.509V7.93717H23.7679V5.45191L25.2594 3.86619V1.29342H25.6461V0.284887H24.7883V0.659442H24.2083V0.284887H23.3505V0.659442H22.7705V0.284887H21.9127V1.29342H22.2994V2.83155H21.6625V3.86619H20.4426V2.83155H19.8073V1.29342H20.194V0.284887H19.3362V0.659442H18.7562V0.284887H17.8984V0.659442H17.3214V0.284887H16.4636V1.29342H16.8503V2.83155H16.2135V3.86619H14.9936V2.83155H14.3567V1.29342H14.7434V0.284887H13.8857V0.659442H13.3056V0.284887H12.4478V0.659442H11.8678V0.284887H11.01V1.29342H11.3967V2.83155H10.7614V3.86619H9.44785V2.83155H8.81257V1.29342H9.19926V0.284887H8.34147V0.659442H7.76143V0.284887H6.90364V0.659442H6.3236V0.284887H5.46581V1.29342H5.8525V2.83155H5.21568V3.86619H4.08782V2.83155H3.45253V1.29342H3.83923V0.284887H2.98144V0.659442H2.40139V0.284887H1.54361V0.659442H0.963563V0.284887H0.107306V1.29342H0.494004Z" fill="#770000"/>
<path d="M12.8763 12.7745C12.7443 12.7745 12.6369 12.8819 12.6369 13.0139C12.6369 13.146 12.7443 13.2534 12.8763 13.2534C13.0082 13.2534 13.1157 13.146 13.1157 13.0139C13.1157 12.8835 13.0082 12.7745 12.8763 12.7745Z" fill="#770000"/>
<path d="M12.396 12.4597C12.396 12.4597 12.3776 12.343 12.3776 12.1849C12.3776 12.0283 12.396 11.9101 12.396 11.9101C12.396 11.9101 12.5418 11.9946 12.6937 11.9869C12.7121 11.7658 12.5602 11.5294 12.5602 11.5294C12.5602 11.5294 12.7627 11.5939 12.8763 11.5939C12.9898 11.5939 13.1924 11.5294 13.1924 11.5294C13.1924 11.5294 13.0405 11.7658 13.0589 11.9869C13.2108 11.9961 13.3566 11.9101 13.3566 11.9101C13.3566 11.9101 13.375 12.0268 13.375 12.1849C13.375 12.3415 13.3566 12.4597 13.3566 12.4597C13.3566 12.4597 13.2108 12.3753 13.0589 12.3829C13.0451 12.5456 13.131 12.7068 13.1786 12.782L13.1525 12.802C13.088 12.7191 12.9883 12.6654 12.8763 12.6654C12.7643 12.6654 12.6645 12.7191 12.6001 12.802L12.574 12.782C12.6216 12.7068 12.7075 12.5456 12.6937 12.3829C12.5418 12.3753 12.396 12.4597 12.396 12.4597Z" fill="#770000"/>
<path d="M12.8763 13.3454L15.2256 15.1737V15.9305H14.5642V15.1737H13.2062V15.9305H12.5448V15.1737H11.1883V15.9305H10.5254V15.1737L12.8763 13.3454Z" fill="#770000"/>
<path d="M10.1786 15.5223V16.2791H11.5351V15.5223H12.1965V16.2791H13.5546V15.5223H14.2159V16.2791H15.574V15.5223H16.2353V16.9284H9.51727V15.5223H10.1786Z" fill="#770000"/>
<path d="M20.4859 16.5016C20.4859 16.3466 20.3601 16.2207 20.2051 16.2207C20.0501 16.2207 19.9243 16.3466 19.9243 16.5016C19.9243 16.6566 20.0501 16.7825 20.2051 16.7825C20.3601 16.7825 20.4859 16.6566 20.4859 16.5016Z" fill="#770000"/>
<path d="M20.0655 17.9553V16.9513H20.3463V17.9553L22.1954 20.3208H16.0082V17.9553H20.0655Z" fill="#770000"/>
<path d="M17.6087 22.1016V21.331C17.6087 21.1759 17.4522 21.0516 17.2573 21.0516C17.064 21.0516 16.9059 21.1775 16.9059 21.331V22.1016H17.6087ZM18.8931 22.1016V21.331C18.8931 21.1759 18.7366 21.0516 18.5417 21.0516C18.3484 21.0516 18.1903 21.1775 18.1903 21.331V22.1016H18.8931ZM20.1775 22.1016V21.331C20.1775 21.1759 20.021 21.0516 19.8261 21.0516C19.6328 21.0516 19.4747 21.1775 19.4747 21.331V22.1016H20.1775ZM21.0767 22.6772H16.0083V20.6694H21.0767V22.6772Z" fill="#770000"/>
<path d="M5.26515 16.5016C5.26515 16.3466 5.39098 16.2207 5.54597 16.2207C5.70095 16.2207 5.82678 16.3466 5.82678 16.5016C5.82678 16.6566 5.70095 16.7825 5.54597 16.7825C5.39098 16.7825 5.26515 16.6566 5.26515 16.5016Z" fill="#770000"/>
<path d="M5.68715 17.9553V16.9513H5.40634V17.9553L3.55572 20.3208H9.74286V17.9553H5.68715Z" fill="#770000"/>
<path d="M8.84517 21.3308C8.84517 21.1758 8.68865 21.0514 8.49377 21.0514C8.30042 21.0514 8.14237 21.1773 8.14237 21.3308V22.1014H8.84517V21.3308ZM7.55925 21.3308C7.55925 21.1758 7.40273 21.0514 7.20785 21.0514C7.0145 21.0514 6.85645 21.1773 6.85645 21.3308V22.1014H7.55772V21.3308H7.55925ZM6.27487 21.3308C6.27487 21.1758 6.11835 21.0514 5.92347 21.0514C5.73012 21.0514 5.57206 21.1773 5.57206 21.3308V22.1014H6.27334V21.3308H6.27487ZM9.74286 22.6771H4.67438V20.6692H9.74286V22.6771Z" fill="#770000"/>
<path d="M19.002 25.7995L16.1264 23.0241H21.3314C21.3314 23.0241 23.0884 23.632 23.0884 24.9706C23.0884 25.3467 22.8997 25.643 22.7738 25.798H19.002V25.7995Z" fill="#770000"/>
<path d="M6.74902 25.7995L9.62469 23.0241H4.42117C4.42117 23.0241 2.66416 23.632 2.66416 24.9706C2.66416 25.3467 2.85291 25.643 2.97873 25.798H6.74902V25.7995Z" fill="#770000"/>
<path d="M8.37252 25.8024L11.7975 21.2816L7.16486 25.8776C7.27228 25.9206 7.45335 25.9728 7.68966 25.9728C8.07482 25.9743 8.29886 25.85 8.37252 25.8024ZM10.0405 25.7993L12.261 21.0821L8.76228 25.8561C8.88505 25.9114 9.08146 25.9728 9.33926 25.9728C9.67378 25.9743 9.93465 25.8561 10.0405 25.7993ZM11.7607 25.7886L12.6047 20.9332L10.3981 25.8454C10.5039 25.9006 10.6973 25.9728 10.9873 25.9728C11.2666 25.9743 11.6103 25.85 11.7607 25.7886ZM12.8763 25.9743C13.3075 25.9743 13.5423 25.8914 13.6497 25.8362L12.8763 20.8088L12.1029 25.8362C12.2103 25.8899 12.4451 25.9728 12.8763 25.9743ZM15.3545 25.8469L13.1479 20.9347L13.9919 25.7901C14.1423 25.85 14.486 25.9743 14.7653 25.9743C15.0553 25.9743 15.2486 25.9006 15.3545 25.8469ZM16.9888 25.8576L13.4901 21.0836L15.7105 25.8009C15.8149 25.8577 16.0742 25.9743 16.4103 25.9743C16.6711 25.9743 16.8676 25.9114 16.9888 25.8576ZM18.5877 25.8776L13.9551 21.2816L17.3785 25.8024C17.4537 25.8515 17.6778 25.9743 18.0629 25.9743C18.3008 25.9743 18.4819 25.9206 18.5877 25.8776Z" fill="#770000"/>
<path d="M19.4578 28.0222V27.2516C19.4578 27.0981 19.3013 26.9723 19.1064 26.9723C18.9131 26.9723 18.755 27.0966 18.755 27.2516V28.0222H19.4578ZM22.0281 27.2516C22.0281 27.0981 21.8716 26.9723 21.6767 26.9723C21.4834 26.9723 21.3253 27.0966 21.3253 27.2516V28.0222H22.0266V27.2516H22.0281ZM20.7422 27.2516C20.7422 27.0981 20.5857 26.9723 20.3908 26.9723C20.1975 26.9723 20.0394 27.0966 20.0394 27.2516V28.0222H20.7407V27.2516H20.7422ZM18.8364 26.1479H22.5376V29.6095H22.0588V30.9726H19.8445V29.6095H18.2456V26.3137C18.5402 26.2846 18.7473 26.194 18.8364 26.1479Z" fill="#770000"/>
<path d="M6.99451 27.2516C6.99451 27.0981 6.83799 26.9722 6.64311 26.9722C6.44976 26.9722 6.29171 27.0966 6.29171 27.2516V28.0222H6.99298V27.2516H6.99451ZM4.42575 28.0222V27.2516C4.42575 27.0981 4.26923 26.9722 4.07435 26.9722C3.881 26.9722 3.72294 27.0966 3.72294 27.2516V28.0222H4.42575ZM5.71013 28.0222V27.2516C5.71013 27.0981 5.55361 26.9722 5.35873 26.9722C5.16538 26.9722 5.00733 27.0966 5.00733 27.2516V28.0222H5.71013ZM7.50551 26.3121V29.6079H5.90655V30.971H3.69225V29.6079H3.21349V26.1464H6.91472C7.00525 26.1939 7.21088 26.2845 7.50551 26.3121Z" fill="#770000"/>
<path d="M8.78684 28.7913H9.71675V27.4666C9.71675 27.2624 9.50805 27.0966 9.25179 27.0966C8.99553 27.0966 8.78684 27.2624 8.78684 27.4666V28.7913ZM10.4103 28.7913H11.5643V27.3729C11.5643 27.1196 11.3065 26.9139 10.9873 26.9139C10.6681 26.9139 10.4103 27.1196 10.4103 27.3729V28.7913ZM12.2993 28.7913H13.4533V27.3729C13.4533 27.1196 13.1955 26.9139 12.8763 26.9139C12.5571 26.9139 12.2993 27.1196 12.2993 27.3729V28.7913ZM14.1883 28.7913H15.3423V27.3729C15.3423 27.1196 15.0845 26.9139 14.7653 26.9139C14.4461 26.9139 14.1883 27.1196 14.1883 27.3729V28.7913ZM16.0359 28.7913H16.9658V27.4666C16.9658 27.2624 16.7571 27.0966 16.5008 27.0966C16.2445 27.0966 16.0359 27.2624 16.0359 27.4666V28.7913ZM8.51523 26.1218C8.65947 26.2017 8.94336 26.3214 9.3408 26.3214C9.72442 26.3214 10.0267 26.1971 10.1786 26.1203C10.3152 26.2017 10.5837 26.3214 10.9873 26.3214C11.3249 26.3214 11.7116 26.1832 11.8865 26.1126C12.0277 26.1971 12.3254 26.3199 12.8717 26.3214H12.8778C13.4241 26.3199 13.7233 26.1986 13.8645 26.1126C14.0395 26.1832 14.4277 26.3214 14.7637 26.3214C15.1673 26.3214 15.4359 26.2017 15.5724 26.1203C15.7243 26.1971 16.0266 26.3214 16.4103 26.3214C16.8077 26.3214 17.0901 26.2017 17.2358 26.1218C17.3571 26.1909 17.578 26.2876 17.8972 26.3137V29.608H16.6742V30.9711H14.4599V29.608H11.2896V30.9711H9.07533V29.608H7.85232V26.3137C8.1715 26.2892 8.394 26.1925 8.51523 26.1218Z" fill="#770000"/>
<path d="M14.5106 18.6644V17.8937C14.5106 17.7402 14.3541 17.6144 14.1592 17.6144C13.9658 17.6144 13.8078 17.7387 13.8078 17.8937V18.6644H14.5106ZM13.2262 17.8937C13.2262 17.7402 13.0682 17.6144 12.8748 17.6144C12.6815 17.6144 12.5234 17.7387 12.5234 17.8937V18.6644H13.2247V17.8937H13.2262ZM11.9418 17.8937C11.9418 17.7402 11.7853 17.6144 11.5904 17.6144C11.3971 17.6144 11.239 17.7387 11.239 17.8937V18.6644H11.9403V17.8937H11.9418ZM13.4518 19.6069L12.8763 19.0312L12.3009 19.6069L12.726 20.0321L10.0912 22.5742V17.2751H15.6599V22.5742L13.0252 20.0321L13.4518 19.6069Z" fill="#770000"/>
<path d="M0.856512 30.0869H3.21352V31.45H6.38381V30.0869H8.5981V31.45H11.7684V30.0869H13.9827V31.45H17.153V30.0869H19.3673V31.45H22.5376V30.0869H24.8961V10.5639H0.856512V30.0869ZM0.963927 0.285156V0.659711H1.54397V0.285156H2.40176V0.659711H2.9818V0.285156H3.8396V1.29369H3.4529V2.83182H4.08819V3.86646H5.21605V2.83182H5.85287V1.29369H5.46617V0.285156H6.32396V0.659711H6.90401V0.285156H7.7618V0.659711H8.34184V0.285156H9.19963V1.29369H8.81293V2.83182H9.44822V3.86646H10.7618V2.83182H11.397V1.29369H11.0103V0.285156H11.8681V0.659711H12.4482V0.285156H13.306V0.659711H13.886V0.285156H14.7438V1.29369H14.3571V2.83182H14.9939V3.86646H16.2139V2.83182H16.8507V1.29369H16.464V0.285156H17.3218V0.659711H17.8988V0.285156H18.7565V0.659711H19.3366V0.285156H20.1944V1.29369H19.8077V2.83182H20.443V3.86646H21.6629V2.83182H22.2997V1.29369H21.913V0.285156H22.7708V0.659711H23.3509V0.285156H24.2087V0.659711H24.7887V0.285156H25.6465V1.29369H25.2598V3.86646L23.7682 5.45218V7.93744H24.5094V10.3367H25.1232V33.4517C25.1232 34.9023 24.3959 35.7528 22.8337 36.1273C20.423 36.7045 17.041 37.515 14.6303 38.0953C13.7878 38.2979 13.2645 38.763 12.9837 39.5567L12.8778 39.8575L12.7704 39.5567C12.4896 38.763 11.9663 38.2994 11.1239 38.0953C8.71473 37.515 5.33267 36.7045 2.92042 36.1273C1.3583 35.7528 0.630939 34.9039 0.630939 33.4517V10.3367H1.24474V7.93744H1.98591V5.45218L0.494368 3.86646V1.29369H0.107671V0.285156H0.963927Z" fill="#770000"/>
<path d="M56.5547 23.7358V32.1782H50.5562V7.29541H60.4854C62.3881 7.29541 64.0686 7.6486 65.5269 8.35498C66.9966 9.04997 68.1303 10.0469 68.9278 11.3457C69.7367 12.6331 70.1412 14.0972 70.1412 15.7378C70.1412 18.1646 69.2696 20.1071 67.5264 21.5654C65.7946 23.0124 63.4135 23.7358 60.3829 23.7358H56.5547ZM56.5547 19.1045H60.4854C61.6475 19.1045 62.5305 18.814 63.1343 18.2329C63.7496 17.6519 64.0572 16.8315 64.0572 15.772C64.0572 14.6099 63.7439 13.6813 63.1172 12.9863C62.4906 12.2913 61.6361 11.9382 60.5538 11.9268H56.5547V19.1045ZM78.8146 32.1782H73.0382V5.92822H78.8146V32.1782ZM92.4441 32.1782C92.239 31.8022 92.0567 31.2497 91.8972 30.5205C90.8376 31.8535 89.3565 32.52 87.4539 32.52C85.7107 32.52 84.2296 31.9959 83.0105 30.9478C81.7914 29.8882 81.1819 28.5609 81.1819 26.9658C81.1819 24.9606 81.9224 23.4453 83.4036 22.4199C84.8847 21.3945 87.038 20.8818 89.8635 20.8818H91.6409V19.9077C91.6409 18.2101 90.906 17.3613 89.4363 17.3613C88.0691 17.3613 87.3855 18.0335 87.3855 19.3779H81.6262C81.6262 17.5892 82.3839 16.1366 83.8992 15.02C85.4259 13.9035 87.3684 13.3452 89.7268 13.3452C92.0852 13.3452 93.948 13.9206 95.3152 15.0713C96.6824 16.222 97.3831 17.8 97.4172 19.8052V27.9912C97.44 29.6888 97.7021 30.9876 98.2034 31.8877V32.1782H92.4441ZM88.8381 28.4185C89.5559 28.4185 90.1484 28.2646 90.6155 27.957C91.094 27.6494 91.4358 27.3019 91.6409 26.9146V23.958H89.9661C87.9609 23.958 86.9583 24.8581 86.9583 26.6582C86.9583 27.1823 87.1348 27.6095 87.488 27.9399C87.8412 28.259 88.2913 28.4185 88.8381 28.4185ZM99.5453 22.7959C99.5453 19.8678 100.178 17.5607 101.442 15.8745C102.707 14.1883 104.473 13.3452 106.74 13.3452C108.392 13.3452 109.782 13.9946 110.91 15.2935V5.92822H116.686V32.1782H111.508L111.218 30.1958C110.033 31.7453 108.529 32.52 106.706 32.52C104.507 32.52 102.764 31.6769 101.476 29.9907C100.189 28.3045 99.5453 25.9062 99.5453 22.7959ZM105.305 23.1548C105.305 26.436 106.262 28.0767 108.176 28.0767C109.452 28.0767 110.363 27.5412 110.91 26.4702V19.4292C110.386 18.3354 109.486 17.7886 108.21 17.7886C106.432 17.7886 105.47 19.2241 105.322 22.0952L105.305 23.1548ZM118.883 22.7959C118.883 19.8678 119.515 17.5607 120.78 15.8745C122.044 14.1883 123.81 13.3452 126.078 13.3452C127.73 13.3452 129.12 13.9946 130.248 15.2935V5.92822H136.024V32.1782H130.846L130.555 30.1958C129.37 31.7453 127.866 32.52 126.043 32.52C123.845 32.52 122.101 31.6769 120.814 29.9907C119.526 28.3045 118.883 25.9062 118.883 22.7959ZM124.642 23.1548C124.642 26.436 125.599 28.0767 127.513 28.0767C128.789 28.0767 129.701 27.5412 130.248 26.4702V19.4292C129.723 18.3354 128.823 17.7886 127.547 17.7886C125.77 17.7886 124.807 19.2241 124.659 22.0952L124.642 23.1548ZM150.132 18.8994L148.235 18.7627C146.423 18.7627 145.261 19.3324 144.749 20.4717V32.1782H138.989V13.687H144.39L144.578 16.0625C145.546 14.251 146.896 13.3452 148.628 13.3452C149.243 13.3452 149.779 13.4136 150.234 13.5503L150.132 18.8994ZM161.762 32.1782C161.557 31.8022 161.375 31.2497 161.215 30.5205C160.155 31.8535 158.674 32.52 156.772 32.52C155.028 32.52 153.547 31.9959 152.328 30.9478C151.109 29.8882 150.5 28.5609 150.5 26.9658C150.5 24.9606 151.24 23.4453 152.721 22.4199C154.202 21.3945 156.356 20.8818 159.181 20.8818H160.959V19.9077C160.959 18.2101 160.224 17.3613 158.754 17.3613C157.387 17.3613 156.703 18.0335 156.703 19.3779H150.944C150.944 17.5892 151.702 16.1366 153.217 15.02C154.744 13.9035 156.686 13.3452 159.045 13.3452C161.403 13.3452 163.266 13.9206 164.633 15.0713C166 16.222 166.701 17.8 166.735 19.8052V27.9912C166.758 29.6888 167.02 30.9876 167.521 31.8877V32.1782H161.762ZM158.156 28.4185C158.874 28.4185 159.466 28.2646 159.933 27.957C160.412 27.6494 160.754 27.3019 160.959 26.9146V23.958H159.284C157.279 23.958 156.276 24.8581 156.276 26.6582C156.276 27.1823 156.453 27.6095 156.806 27.9399C157.159 28.259 157.609 28.4185 158.156 28.4185Z" fill="#770000"/>
</svg>
