<svg width="28" height="44" viewBox="0 0 28 44" fill="none" xmlns="http://www.w3.org/2000/svg">
<path fill-rule="evenodd" clip-rule="evenodd" d="M3.6656 32.7275V34.1863H6.80855V32.7275H9.39135V34.1863H12.5343V32.7275H15.1171V34.1863H18.26V32.7275H20.8428V34.1863H23.9858V32.7275H26.4938V12.0619H1.15926V32.7275H3.6656ZM1.04516 11.9477H26.6079V32.8416H24.0999V34.3005H20.7287V32.8416H18.3741V34.3005H15.003V32.8416H12.6484V34.3005H9.27724V32.8416H6.92266V34.3005H3.5515V32.8416H1.04516V11.9477ZM1.27348 0.833008V1.23387H1.66207V0.833008H2.80241V1.23387H3.191V0.833008H4.33135V2.14067H3.92015V3.55851H4.59569V4.6658H5.5668V3.55851H6.24397V2.14067H5.83277V0.833008H6.97312V1.23387H7.36171V0.833008H8.50205V1.23387H8.89064V0.833008H10.031V2.14067H9.61979V3.55851H10.2953V4.6658H11.4639V3.55851H12.1394V2.14067H11.7282V0.833008H12.8686V1.23387H13.2571V0.833008H14.3975V1.23387H14.7861V0.833008H15.9264V2.14067H15.5152V3.55851H16.1924V4.6658H17.2614V3.55851H17.9386V2.14067H17.5274V0.833008H18.6677V1.23387H19.0531V0.833008H20.1934V1.23387H20.582V0.833008H21.7223V2.14067H21.3111V3.55851H21.9867V4.6658H23.0557V3.55851H23.7329V2.14067H23.3217V0.833008H24.462V1.23387H24.8506V0.833008H25.9909V1.23387H26.3795V0.833008H27.5199V2.14067H27.1087V4.825L25.5226 6.52208V9.02266H26.3108V11.5904H26.9635V36.4428C26.9635 37.2384 26.7649 37.8828 26.3419 38.3803C25.9201 38.8766 25.2864 39.2134 24.4416 39.4172C21.8781 40.035 18.2818 40.9024 15.7184 41.5234C15.2849 41.6283 14.9399 41.7996 14.6682 42.0424C14.3966 42.285 14.1925 42.6043 14.0484 43.0141M14.0484 43.0143L13.8289 43.6419L13.6064 43.0146L13.6063 43.0143C13.4622 42.6045 13.2581 42.2855 12.9865 42.043C12.7147 41.8004 12.3697 41.6291 11.9361 41.5233C9.3744 40.9024 5.77817 40.035 3.21313 39.4173C2.36839 39.2134 1.73459 38.877 1.31275 38.381C0.889771 37.8836 0.691188 37.2392 0.691188 36.4428V11.5904H1.34388V9.02266H2.13201V6.52208L0.545964 4.825V2.14067H0.134766V0.833008H1.27348M0.660069 2.02652V4.77995L2.24611 6.47702V9.13681H1.45799V11.7046H0.805292V36.4428C0.805292 37.9969 1.57873 38.9054 3.23983 39.3063C5.80492 39.924 9.40125 40.7914 11.9631 41.4124C12.8589 41.6309 13.4153 42.1271 13.7139 42.9764L13.8281 43.2984L13.9407 42.9764C14.2393 42.1271 14.7958 41.6293 15.6916 41.4124C18.255 40.7914 21.8514 39.924 24.4148 39.3063C26.0759 38.9054 26.8494 37.9953 26.8494 36.4428V11.7046H26.1967V9.13681H25.4085V6.47702L26.9946 4.77995V2.02652H27.4058V0.947162H26.4936V1.34802H25.8768V0.947162H24.9647V1.34802H24.3479V0.947162H23.4358V2.02652H23.847V3.67266H23.1698V4.77995H21.8726V3.67266H21.197V2.02652H21.6082V0.947162H20.6961V1.34802H20.0793V0.947162H19.1672V1.34802H18.5536V0.947162H17.6415V2.02652H18.0527V3.67266H17.3755V4.77995H16.0783V3.67266H15.4011V2.02652H15.8123V0.947162H14.9002V1.34802H14.2834V0.947162H13.3713V1.34802H12.7545V0.947162H11.8423V2.02652H12.2535V3.67266H11.578V4.77995H10.1812V3.67266H9.50568V2.02652H9.91688V0.947162H9.00474V1.34802H8.38795V0.947162H7.47581V1.34802H6.85902V0.947162H5.94688V2.02652H6.35807V3.67266H5.68091V4.77995H4.48158V3.67266H3.80604V2.02652H4.21724V0.947162H3.3051V1.34802H2.68831V0.947162H1.77617V1.34802H1.15938V0.947162H0.24887V2.02652H0.660069Z" fill="#770000"/>
<path d="M13.8269 14.3136C13.6866 14.3136 13.5724 14.4286 13.5724 14.5699C13.5724 14.7112 13.6866 14.8262 13.8269 14.8262C13.9673 14.8262 14.0815 14.7112 14.0815 14.5699C14.0815 14.4303 13.9673 14.3136 13.8269 14.3136Z" fill="#770000"/>
<path d="M13.3162 13.9767C13.3162 13.9767 13.2966 13.8519 13.2966 13.6826C13.2966 13.5151 13.3162 13.3886 13.3162 13.3886C13.3162 13.3886 13.4712 13.4789 13.6328 13.4707C13.6524 13.2341 13.4908 12.9811 13.4908 12.9811C13.4908 12.9811 13.7062 13.0501 13.827 13.0501C13.9477 13.0501 14.1631 12.9811 14.1631 12.9811C14.1631 12.9811 14.0016 13.2341 14.0211 13.4707C14.1827 13.4806 14.3377 13.3886 14.3377 13.3886C14.3377 13.3886 14.3573 13.5134 14.3573 13.6826C14.3573 13.8502 14.3377 13.9767 14.3377 13.9767C14.3377 13.9767 14.1827 13.8864 14.0211 13.8946C14.0064 14.0687 14.0978 14.2412 14.1484 14.3217L14.1207 14.3431C14.0521 14.2544 13.9461 14.1969 13.827 14.1969C13.7078 14.1969 13.6018 14.2544 13.5332 14.3431L13.5055 14.3217C13.5561 14.2412 13.6475 14.0687 13.6328 13.8946C13.4712 13.8864 13.3162 13.9767 13.3162 13.9767Z" fill="#770000"/>
<path d="M13.827 14.9247L16.3251 16.8813V17.6912H15.6219V16.8813H14.1778V17.6912H13.4745V16.8813H12.0321V17.6912H11.3271V16.8813L13.827 14.9247Z" fill="#770000"/>
<path d="M10.9584 17.2544V18.0643H12.4008V17.2544H13.1041V18.0643H14.5482V17.2544H15.2515V18.0643H16.6956V17.2544H17.3988V18.7593H10.2551V17.2544H10.9584Z" fill="#770000"/>
<path d="M21.9187 18.3025C21.9187 18.1366 21.7849 18.0018 21.6201 18.0018C21.4553 18.0018 21.3215 18.1366 21.3215 18.3025C21.3215 18.4684 21.4553 18.6031 21.6201 18.6031C21.7849 18.6031 21.9187 18.4684 21.9187 18.3025Z" fill="#770000"/>
<path d="M21.4716 19.8582V18.7838H21.7702V19.8582L23.7365 22.3899H17.1573V19.8582H21.4716Z" fill="#770000"/>
<path d="M18.8593 24.2957V23.471C18.8593 23.305 18.6928 23.172 18.4856 23.172C18.28 23.172 18.1119 23.3067 18.1119 23.471V24.2957H18.8593ZM20.225 24.2957V23.471C20.225 23.305 20.0586 23.172 19.8513 23.172C19.6458 23.172 19.4777 23.3067 19.4777 23.471V24.2957H20.225ZM21.5908 24.2957V23.471C21.5908 23.305 21.4243 23.172 21.2171 23.172C21.0115 23.172 20.8434 23.3067 20.8434 23.471V24.2957H21.5908ZM22.547 24.9118H17.1574V22.7629H22.547V24.9118Z" fill="#770000"/>
<path d="M5.7336 18.3025C5.7336 18.1366 5.8674 18.0018 6.0322 18.0018C6.197 18.0018 6.33081 18.1366 6.33081 18.3025C6.33081 18.4684 6.197 18.6031 6.0322 18.6031C5.8674 18.6031 5.7336 18.4684 5.7336 18.3025Z" fill="#770000"/>
<path d="M6.18233 19.8582V18.7838H5.88373V19.8582L3.91586 22.3899H10.495V19.8582H6.18233Z" fill="#770000"/>
<path d="M9.54044 23.4708C9.54044 23.3049 9.374 23.1718 9.16677 23.1718C8.96117 23.1718 8.7931 23.3065 8.7931 23.4708V24.2955H9.54044V23.4708ZM8.17304 23.4708C8.17304 23.3049 8.00661 23.1718 7.79938 23.1718C7.59378 23.1718 7.42571 23.3065 7.42571 23.4708V24.2955H8.17141V23.4708H8.17304ZM6.80729 23.4708C6.80729 23.3049 6.64085 23.1718 6.43362 23.1718C6.22802 23.1718 6.05995 23.3065 6.05995 23.4708V24.2955H6.80566V23.4708H6.80729ZM10.495 24.9116H5.10539V22.7627H10.495V24.9116Z" fill="#770000"/>
<path d="M20.3408 28.2533L17.2829 25.283H22.8178C22.8178 25.283 24.6861 25.9336 24.6861 27.3662C24.6861 27.7687 24.4854 28.0858 24.3516 28.2517H20.3408V28.2533Z" fill="#770000"/>
<path d="M7.31148 28.2533L10.3693 25.283H4.83614C4.83614 25.283 2.96781 25.9336 2.96781 27.3662C2.96781 27.7687 3.16851 28.0858 3.30232 28.2517H7.31148V28.2533Z" fill="#770000"/>
<path d="M9.03784 28.2564L12.6799 23.4182L7.75367 28.3369C7.86789 28.3829 8.06043 28.4387 8.31172 28.4387C8.72128 28.4404 8.95952 28.3073 9.03784 28.2564ZM10.8115 28.2531L13.1726 23.2046L9.4523 28.3139C9.58284 28.373 9.7917 28.4387 10.0658 28.4387C10.4215 28.4404 10.6989 28.3139 10.8115 28.2531ZM12.6407 28.2416L13.5382 23.0452L11.1917 28.3024C11.3043 28.3615 11.5099 28.4387 11.8183 28.4387C12.1153 28.4404 12.4808 28.3073 12.6407 28.2416ZM13.827 28.4404C14.2855 28.4404 14.5351 28.3517 14.6494 28.2925L13.827 22.9122L13.0046 28.2925C13.1188 28.35 13.3685 28.4387 13.827 28.4404ZM16.4622 28.304L14.1158 23.0469L15.0132 28.2432C15.1731 28.3073 15.5387 28.4404 15.8356 28.4404C16.144 28.4404 16.3496 28.3615 16.4622 28.304ZM18.2 28.3155L14.4797 23.2062L16.8408 28.2547C16.9517 28.3155 17.2275 28.4404 17.5848 28.4404C17.8622 28.4404 18.0711 28.373 18.2 28.3155ZM19.9003 28.3369L14.9741 23.4182L18.6145 28.2564C18.6944 28.309 18.9327 28.4404 19.3422 28.4404C19.5951 28.4404 19.7877 28.3829 19.9003 28.3369Z" fill="#770000"/>
<path d="M20.8255 30.6321V29.8074C20.8255 29.6431 20.6591 29.5084 20.4518 29.5084C20.2462 29.5084 20.0782 29.6415 20.0782 29.8074V30.6321H20.8255ZM23.5586 29.8074C23.5586 29.6431 23.3922 29.5084 23.185 29.5084C22.9794 29.5084 22.8113 29.6415 22.8113 29.8074V30.6321H23.557V29.8074H23.5586ZM22.1913 29.8074C22.1913 29.6431 22.0248 29.5084 21.8176 29.5084C21.612 29.5084 21.4439 29.6415 21.4439 29.8074V30.6321H22.1896V29.8074H22.1913ZM20.1646 28.6262H24.1004V32.3308H23.5913V33.7897H21.2367V32.3308H19.5364V28.8036C19.8497 28.7724 20.07 28.6755 20.1646 28.6262Z" fill="#770000"/>
<path d="M7.57253 29.8074C7.57253 29.6431 7.40609 29.5084 7.19886 29.5084C6.99326 29.5084 6.82519 29.6414 6.82519 29.8074V30.6321H7.57089V29.8074H7.57253ZM4.84101 30.6321V29.8074C4.84101 29.6431 4.67457 29.5084 4.46734 29.5084C4.26174 29.5084 4.09368 29.6414 4.09368 29.8074V30.6321H4.84101ZM6.20677 30.6321V29.8074C6.20677 29.6431 6.04033 29.5084 5.8331 29.5084C5.6275 29.5084 5.45943 29.6414 5.45943 29.8074V30.6321H6.20677ZM8.11589 28.8019V32.3291H6.41563V33.788H4.06104V32.3291H3.55194V28.6245H7.48768C7.58395 28.6754 7.8026 28.7724 8.11589 28.8019Z" fill="#770000"/>
<path d="M9.47841 31.4552H10.4672V30.0374C10.4672 29.8189 10.2453 29.6415 9.97282 29.6415C9.70032 29.6415 9.47841 29.8189 9.47841 30.0374V31.4552ZM11.2048 31.4552H12.4318V29.9372C12.4318 29.6661 12.1577 29.446 11.8183 29.446C11.4789 29.446 11.2048 29.6661 11.2048 29.9372V31.4552ZM13.2134 31.4552H14.4405V29.9372C14.4405 29.6661 14.1664 29.446 13.827 29.446C13.4876 29.446 13.2134 29.6661 13.2134 29.9372V31.4552ZM15.2221 31.4552H16.4492V29.9372C16.4492 29.6661 16.175 29.446 15.8356 29.446C15.4962 29.446 15.2221 29.6661 15.2221 29.9372V31.4552ZM17.1867 31.4552H18.1755V30.0374C18.1755 29.8189 17.9536 29.6415 17.6811 29.6415C17.4086 29.6415 17.1867 29.8189 17.1867 30.0374V31.4552ZM9.18959 28.5983C9.34297 28.6837 9.64485 28.8118 10.0675 28.8118C10.4754 28.8118 10.7968 28.6788 10.9584 28.5966C11.1036 28.6837 11.3892 28.8118 11.8183 28.8118C12.1773 28.8118 12.5885 28.664 12.7745 28.5884C12.9246 28.6788 13.2412 28.8102 13.8221 28.8118H13.8286C14.4095 28.8102 14.7277 28.6804 14.8778 28.5884C15.0638 28.664 15.4767 28.8118 15.834 28.8118C16.2631 28.8118 16.5487 28.6837 16.6939 28.5966C16.8555 28.6788 17.1769 28.8118 17.5848 28.8118C18.0075 28.8118 18.3077 28.6837 18.4627 28.5983C18.5916 28.6722 18.8266 28.7757 19.166 28.8036V32.3292H17.8655V33.7881H15.5109V32.3292H12.1398V33.7881H9.78517V32.3292H8.48468V28.8036C8.82408 28.7773 9.06069 28.6738 9.18959 28.5983Z" fill="#770000"/>
<path d="M15.5648 20.6171V19.7924C15.5648 19.6281 15.3984 19.4934 15.1911 19.4934C14.9856 19.4934 14.8175 19.6265 14.8175 19.7924V20.6171H15.5648ZM14.1991 19.7924C14.1991 19.6281 14.031 19.4934 13.8254 19.4934C13.6198 19.4934 13.4517 19.6265 13.4517 19.7924V20.6171H14.1974V19.7924H14.1991ZM12.8333 19.7924C12.8333 19.6281 12.6669 19.4934 12.4596 19.4934C12.254 19.4934 12.086 19.6265 12.086 19.7924V20.6171H12.8317V19.7924H12.8333ZM14.4389 21.6258L13.827 21.0097L13.2151 21.6258L13.6671 22.0809L10.8654 24.8015V19.1303H16.787V24.8015L13.9853 22.0809L14.4389 21.6258Z" fill="#770000"/>
<path d="M1.04563 32.8417H3.55197V34.3006H6.92313V32.8417H9.27772V34.3006H12.6489V32.8417H15.0035V34.3006H18.3746V32.8417H20.7292V34.3006H24.1004V32.8417H26.6083V11.9478H1.04563V32.8417ZM1.15985 0.947266V1.34812H1.77665V0.947266H2.68878V1.34812H3.30558V0.947266H4.21772V2.02662H3.80652V3.67277H4.48206V4.78005H5.68138V3.67277H6.35855V2.02662H5.94735V0.947266H6.85949V1.34812H7.47629V0.947266H8.38842V1.34812H9.00522V0.947266H9.91735V2.02662H9.50616V3.67277H10.1817V4.78005H11.5785V3.67277H12.254V2.02662H11.8428V0.947266H12.7549V1.34812H13.3717V0.947266H14.2839V1.34812H14.9007V0.947266H15.8128V2.02662H15.4016V3.67277H16.0788V4.78005H17.376V3.67277H18.0532V2.02662H17.642V0.947266H18.5541V1.34812H19.1676V0.947266H20.0798V1.34812H20.6966V0.947266H21.6087V2.02662H21.1975V3.67277H21.873V4.78005H23.1703V3.67277H23.8474V2.02662H23.4362V0.947266H24.3484V1.34812H24.9652V0.947266H25.8773V1.34812H26.4941V0.947266H27.4062V2.02662H26.9951V4.78005L25.409 6.47713V9.13692H26.1971V11.7047H26.8498V36.4429C26.8498 37.9954 26.0764 38.9055 24.4153 39.3064C21.8518 39.9241 18.2555 40.7915 15.692 41.4125C14.7962 41.6294 14.2398 42.1272 13.9412 42.9765L13.8286 43.2985L13.7144 42.9765C13.4158 42.1272 12.8594 41.631 11.9635 41.4125C9.40173 40.7915 5.80539 39.9241 3.24031 39.3064C1.57921 38.9055 0.805768 37.997 0.805768 36.4429V11.7047H1.45846V9.13692H2.24659V6.47713L0.660544 4.78005V2.02662H0.249347V0.947266H1.15985Z" fill="#770000"/>
</svg>
