<svg width="74" height="80" viewBox="0 0 74 80" fill="none" xmlns="http://www.w3.org/2000/svg">
<path fill-rule="evenodd" clip-rule="evenodd" d="M25.837 34.272V35.8396H29.2142V34.272H31.9896V35.8396H35.3668V34.272H38.1421V35.8396H41.5193V34.272H44.2947V35.8396H47.6719V34.272H50.3668V12.0659H23.1438V34.272H25.837ZM23.0212 11.9433H50.4894V34.3946H47.7945V35.9622H44.1721V34.3946H41.642V35.9622H38.0195V34.3946H35.4894V35.9622H31.8669V34.3946H29.3368V35.9622H25.7144V34.3946H23.0212V11.9433ZM23.2666 0V0.430738H23.6841V0H24.9095V0.430738H25.327V0H26.5524V1.40514H26.1105V2.92867H26.8364V4.11849H27.8799V2.92867H28.6076V1.40514H28.1657V0H29.3911V0.430738H29.8086V0H31.034V0.430738H31.4515V0H32.6769V1.40514H32.235V2.92867H32.9609V4.11849H34.2166V2.92867H34.9425V1.40514H34.5006V0H35.726V0.430738H36.1435V0H37.3689V0.430738H37.7864V0H39.0118V1.40514H38.5699V2.92867H39.2976V4.11849H40.4463V2.92867H41.1739V1.40514H40.7321V0H41.9574V0.430738H42.3715V0H43.5968V0.430738H44.0144V0H45.2397V1.40514H44.7979V2.92867H45.5238V4.11849H46.6725V2.92867H47.4001V1.40514H46.9583V0H48.1836V0.430738H48.6012V0H49.8265V0.430738H50.2441V0H51.4694V1.40514H51.0276V4.28957L49.3233 6.11315V8.80013H50.1702V11.5593H50.8715V38.2642C50.8715 39.1192 50.6581 39.8116 50.2037 40.3462C49.7504 40.8794 49.0694 41.2413 48.1617 41.4604C45.4071 42.1242 41.5427 43.0562 38.7883 43.7235C38.3225 43.8363 37.9517 44.0203 37.6598 44.2812C37.368 44.542 37.1486 44.885 36.9938 45.3254M36.9937 45.3256L36.7579 46L36.5188 45.3259L36.5187 45.3256C36.3639 44.8852 36.1445 44.5425 35.8527 44.2819C35.5607 44.0212 35.1899 43.8371 34.724 43.7235C31.9713 43.0562 28.107 42.1242 25.3508 41.4604C24.4431 41.2414 23.7621 40.8799 23.3088 40.3469C22.8543 39.8125 22.6409 39.12 22.6409 38.2642V11.5593H23.3422V8.80013H24.1891V6.11315L22.4848 4.28957V1.40514H22.043V0H23.2666M22.6074 1.28248V4.24116L24.3117 6.06474V8.92279H23.4648V11.682H22.7635V38.2642C22.7635 39.9342 23.5946 40.9104 25.3795 41.3412C28.1358 42.0049 32.0002 42.937 34.753 43.6043C35.7156 43.8391 36.3135 44.3722 36.6343 45.2849L36.7571 45.6309L36.8781 45.2849C37.1989 44.3722 37.7968 43.8373 38.7594 43.6043C41.514 42.937 45.3784 42.0049 48.1329 41.3412C49.9178 40.9104 50.7489 39.9324 50.7489 38.2642V11.682H50.0476V8.92279H49.2007V6.06474L50.905 4.24116V1.28248H51.3468V0.122664H50.3667V0.553402H49.7039V0.122664H48.7238V0.553402H48.061V0.122664H47.0809V1.28248H47.5227V3.05133H46.7951V4.24116H45.4012V3.05133H44.6753V1.28248H45.1171V0.122664H44.137V0.553402H43.4742V0.122664H42.4941V0.553402H41.8348V0.122664H40.8547V1.28248H41.2965V3.05133H40.5689V4.24116H39.175V3.05133H38.4473V1.28248H38.8892V0.122664H37.909V0.553402H37.2463V0.122664H36.2661V0.553402H35.6034V0.122664H34.6232V1.28248H35.0651V3.05133H34.3392V4.24116H32.8383V3.05133H32.1124V1.28248H32.5543V0.122664H31.5741V0.553402H30.9114V0.122664H29.9312V0.553402H29.2685V0.122664H28.2883V1.28248H28.7302V3.05133H28.0025V4.24116H26.7138V3.05133H25.9879V1.28248H26.4298V0.122664H25.4496V0.553402H24.7869V0.122664H23.8067V0.553402H23.144V0.122664H22.1656V1.28248H22.6074Z" fill="#EB5757"/>
<path d="M36.7561 14.4853C36.6053 14.4853 36.4826 14.6088 36.4826 14.7607C36.4826 14.9125 36.6053 15.036 36.7561 15.036C36.9069 15.036 37.0296 14.9125 37.0296 14.7607C37.0296 14.6106 36.9069 14.4853 36.7561 14.4853Z" fill="#EB5757"/>
<path d="M36.2073 14.1233C36.2073 14.1233 36.1863 13.9891 36.1863 13.8073C36.1863 13.6272 36.2073 13.4913 36.2073 13.4913C36.2073 13.4913 36.3739 13.5884 36.5475 13.5795C36.5685 13.3253 36.3949 13.0535 36.3949 13.0535C36.3949 13.0535 36.6264 13.1276 36.7561 13.1276C36.8859 13.1276 37.1173 13.0535 37.1173 13.0535C37.1173 13.0535 36.9437 13.3253 36.9648 13.5795C37.1384 13.5901 37.3049 13.4913 37.3049 13.4913C37.3049 13.4913 37.326 13.6254 37.326 13.8073C37.326 13.9873 37.3049 14.1233 37.3049 14.1233C37.3049 14.1233 37.1384 14.0262 36.9648 14.035C36.949 14.2221 37.0472 14.4075 37.1015 14.494L37.0717 14.5169C36.9981 14.4216 36.8841 14.3598 36.7561 14.3598C36.6281 14.3598 36.5142 14.4216 36.4405 14.5169L36.4107 14.494C36.4651 14.4075 36.5633 14.2221 36.5475 14.035C36.3739 14.0262 36.2073 14.1233 36.2073 14.1233Z" fill="#EB5757"/>
<path d="M36.7561 15.1419L39.4405 17.2444V18.1147H38.6848V17.2444H37.1331V18.1147H36.3774V17.2444H34.8274V18.1147H34.07V17.2444L36.7561 15.1419Z" fill="#EB5757"/>
<path d="M33.6737 17.6453V18.5156H35.2237V17.6453H35.9794V18.5156H37.5311V17.6453H38.2868V18.5156H39.8386V17.6453H40.5943V19.2623H32.918V17.6453H33.6737Z" fill="#EB5757"/>
<path d="M45.451 18.7715C45.451 18.5932 45.3073 18.4484 45.1302 18.4484C44.9531 18.4484 44.8093 18.5932 44.8093 18.7715C44.8093 18.9498 44.9531 19.0945 45.1302 19.0945C45.3073 19.0945 45.451 18.9498 45.451 18.7715Z" fill="#EB5757"/>
<path d="M44.9707 20.4432V19.2887H45.2915V20.4432L47.4043 23.1635H40.3348V20.4432H44.9707Z" fill="#EB5757"/>
<path d="M42.1635 25.2114V24.3252C42.1635 24.1469 41.9847 24.0039 41.762 24.0039C41.5411 24.0039 41.3605 24.1487 41.3605 24.3252V25.2114H42.1635ZM43.6311 25.2114V24.3252C43.6311 24.1469 43.4523 24.0039 43.2296 24.0039C43.0087 24.0039 42.8281 24.1487 42.8281 24.3252V25.2114H43.6311ZM45.0987 25.2114V24.3252C45.0987 24.1469 44.9198 24.0039 44.6972 24.0039C44.4762 24.0039 44.2956 24.1487 44.2956 24.3252V25.2114H45.0987ZM46.1261 25.8734H40.3348V23.5644H46.1261V25.8734Z" fill="#EB5757"/>
<path d="M28.0595 18.7715C28.0595 18.5932 28.2032 18.4484 28.3803 18.4484C28.5574 18.4484 28.7012 18.5932 28.7012 18.7715C28.7012 18.9498 28.5574 19.0945 28.3803 19.0945C28.2032 19.0945 28.0595 18.9498 28.0595 18.7715Z" fill="#EB5757"/>
<path d="M28.5417 20.4432V19.2887H28.2208V20.4432L26.1062 23.1635H33.1758V20.4432H28.5417Z" fill="#EB5757"/>
<path d="M32.1501 24.3251C32.1501 24.1468 31.9712 24.0038 31.7486 24.0038C31.5276 24.0038 31.347 24.1485 31.347 24.3251V25.2113H32.1501V24.3251ZM30.6808 24.3251C30.6808 24.1468 30.5019 24.0038 30.2792 24.0038C30.0583 24.0038 29.8777 24.1485 29.8777 24.3251V25.2113H30.679V24.3251H30.6808ZM29.2132 24.3251C29.2132 24.1468 29.0344 24.0038 28.8117 24.0038C28.5907 24.0038 28.4102 24.1485 28.4102 24.3251V25.2113H29.2114V24.3251H29.2132ZM33.1758 25.8732H27.3844V23.5642H33.1758V25.8732Z" fill="#EB5757"/>
<path d="M43.7555 29.4641L40.4697 26.2724H46.4172C46.4172 26.2724 48.4248 26.9715 48.4248 28.5108C48.4248 28.9433 48.2091 29.284 48.0653 29.4623H43.7555V29.4641Z" fill="#EB5757"/>
<path d="M29.755 29.4641L33.0408 26.2724H27.0951C27.0951 26.2724 25.0875 26.9715 25.0875 28.5108C25.0875 28.9433 25.3032 29.284 25.447 29.4623H29.755V29.4641Z" fill="#EB5757"/>
<path d="M31.61 29.4674L35.5235 24.2685L30.2301 29.5539C30.3529 29.6033 30.5598 29.6633 30.8298 29.6633C31.2699 29.6651 31.5259 29.5221 31.61 29.4674ZM33.5159 29.4638L36.053 24.039L32.0554 29.5292C32.1956 29.5927 32.4201 29.6633 32.7146 29.6633C33.0969 29.6651 33.3949 29.5292 33.5159 29.4638ZM35.4814 29.4515L36.4458 23.8678L33.9245 29.5168C34.0454 29.5804 34.2664 29.6633 34.5978 29.6633C34.9169 29.6651 35.3096 29.5221 35.4814 29.4515ZM36.7561 29.6651C37.2488 29.6651 37.5171 29.5698 37.6398 29.5062L36.7561 23.7248L35.8724 29.5062C35.9952 29.568 36.2634 29.6633 36.7561 29.6651ZM39.5878 29.5186L37.0665 23.8695L38.0308 29.4533C38.2027 29.5221 38.5954 29.6651 38.9145 29.6651C39.2459 29.6651 39.4668 29.5804 39.5878 29.5186ZM41.4552 29.5309L37.4575 24.0408L39.9946 29.4656C40.1138 29.5309 40.4102 29.6651 40.7941 29.6651C41.0922 29.6651 41.3166 29.5927 41.4552 29.5309ZM43.2822 29.5539L37.9888 24.2685L41.9005 29.4674C41.9864 29.5239 42.2424 29.6651 42.6825 29.6651C42.9543 29.6651 43.1612 29.6033 43.2822 29.5539Z" fill="#EB5757"/>
<path d="M44.2764 32.0202V31.134C44.2764 30.9575 44.0975 30.8127 43.8748 30.8127C43.6539 30.8127 43.4733 30.9557 43.4733 31.134V32.0202H44.2764ZM47.2132 31.134C47.2132 30.9575 47.0344 30.8127 46.8117 30.8127C46.5908 30.8127 46.4102 30.9557 46.4102 31.134V32.0202H47.2115V31.134H47.2132ZM45.7439 31.134C45.7439 30.9575 45.5651 30.8127 45.3424 30.8127C45.1215 30.8127 44.9409 30.9557 44.9409 31.134V32.0202H45.7422V31.134H45.7439ZM43.5662 29.8648H47.7954V33.8455H47.2483V35.4132H44.7182V33.8455H42.8912V30.0554C43.2278 30.0219 43.4645 29.9177 43.5662 29.8648Z" fill="#EB5757"/>
<path d="M30.0355 31.134C30.0355 30.9574 29.8566 30.8127 29.634 30.8127C29.413 30.8127 29.2324 30.9557 29.2324 31.134V32.0202H30.0337V31.134H30.0355ZM27.1003 32.0202V31.134C27.1003 30.9574 26.9215 30.8127 26.6988 30.8127C26.4779 30.8127 26.2973 30.9557 26.2973 31.134V32.0202H27.1003ZM28.5679 32.0202V31.134C28.5679 30.9574 28.3891 30.8127 28.1664 30.8127C27.9455 30.8127 27.7649 30.9557 27.7649 31.134V32.0202H28.5679ZM30.6193 30.0536V33.8437H28.7923V35.4113H26.2622V33.8437H25.7152V29.8629H29.9443C30.0477 29.9177 30.2827 30.0218 30.6193 30.0536Z" fill="#EB5757"/>
<path d="M32.0834 32.9046H33.146V31.3812C33.146 31.1464 32.9075 30.9557 32.6147 30.9557C32.3219 30.9557 32.0834 31.1464 32.0834 31.3812V32.9046ZM33.9385 32.9046H35.257V31.2735C35.257 30.9822 34.9625 30.7456 34.5978 30.7456C34.2331 30.7456 33.9385 30.9822 33.9385 31.2735V32.9046ZM36.0969 32.9046H37.4154V31.2735C37.4154 30.9822 37.1208 30.7456 36.7561 30.7456C36.3914 30.7456 36.0969 30.9822 36.0969 31.2735V32.9046ZM38.2553 32.9046H39.5738V31.2735C39.5738 30.9822 39.2792 30.7456 38.9145 30.7456C38.5498 30.7456 38.2553 30.9822 38.2553 31.2735V32.9046ZM40.3663 32.9046H41.4289V31.3812C41.4289 31.1464 41.1904 30.9557 40.8976 30.9557C40.6048 30.9557 40.3663 31.1464 40.3663 31.3812V32.9046ZM31.7731 29.8347C31.9379 29.9265 32.2623 30.0642 32.7164 30.0642C33.1547 30.0642 33.5001 29.9212 33.6737 29.833C33.8298 29.9265 34.1366 30.0642 34.5978 30.0642C34.9835 30.0642 35.4253 29.9054 35.6252 29.8242C35.7865 29.9212 36.1267 30.0625 36.7509 30.0642H36.7579C37.3821 30.0625 37.724 29.923 37.8853 29.8242C38.0852 29.9054 38.5288 30.0642 38.9128 30.0642C39.3739 30.0642 39.6808 29.9265 39.8368 29.833C40.0104 29.9212 40.3558 30.0642 40.7941 30.0642C41.2483 30.0642 41.5709 29.9265 41.7375 29.8347C41.876 29.9142 42.1285 30.0254 42.4932 30.0554V33.8438H41.0957V35.4114H38.5656V33.8438H34.9432V35.4114H32.4131V33.8438H31.0156V30.0554C31.3803 30.0272 31.6346 29.9159 31.7731 29.8347Z" fill="#EB5757"/>
<path d="M38.6235 21.2586V20.3724C38.6235 20.1959 38.4447 20.0512 38.222 20.0512C38.0011 20.0512 37.8205 20.1941 37.8205 20.3724V21.2586H38.6235ZM37.156 20.3724C37.156 20.1959 36.9754 20.0512 36.7544 20.0512C36.5335 20.0512 36.3529 20.1941 36.3529 20.3724V21.2586H37.1542V20.3724H37.156ZM35.6884 20.3724C35.6884 20.1959 35.5096 20.0512 35.2869 20.0512C35.066 20.0512 34.8854 20.1941 34.8854 20.3724V21.2586H35.6866V20.3724H35.6884ZM37.4137 22.3425L36.7562 21.6805L36.0987 22.3425L36.5844 22.8315L33.5738 25.7549V19.661H39.9368V25.7549L36.9263 22.8315L37.4137 22.3425Z" fill="#EB5757"/>
<path d="M23.0221 34.3945H25.7152V35.9621H29.3377V34.3945H31.8678V35.9621H35.4902V34.3945H38.0203V35.9621H41.6428V34.3945H44.1729V35.9621H47.7953V34.3945H50.4903V11.9432H23.0221V34.3945ZM23.1448 0.122559V0.553297H23.8076V0.122559H24.7877V0.553297H25.4505V0.122559H26.4306V1.28237H25.9887V3.05123H26.7146V4.24105H28.0034V3.05123H28.731V1.28237H28.2892V0.122559H29.2693V0.553297H29.9321V0.122559H30.9122V0.553297H31.575V0.122559H32.5551V1.28237H32.1132V3.05123H32.8391V4.24105H34.34V3.05123H35.0659V1.28237H34.6241V0.122559H35.6042V0.553297H36.267V0.122559H37.2471V0.553297H37.9099V0.122559H38.89V1.28237H38.4482V3.05123H39.1758V4.24105H40.5697V3.05123H41.2974V1.28237H40.8555V0.122559H41.8357V0.553297H42.4949V0.122559H43.475V0.553297H44.1378V0.122559H45.118V1.28237H44.6761V3.05123H45.402V4.24105H46.7959V3.05123H47.5236V1.28237H47.0817V0.122559H48.0619V0.553297H48.7246V0.122559H49.7048V0.553297H50.3675V0.122559H51.3477V1.28237H50.9058V4.24105L49.2015 6.06463V8.92269H50.0484V11.6819H50.7498V38.2641C50.7498 39.9323 49.9187 40.9103 48.1337 41.3411C45.3792 42.0048 41.5148 42.9369 38.7602 43.6042C37.7977 43.8372 37.1998 44.3721 36.8789 45.2848L36.7579 45.6308L36.6352 45.2848C36.3143 44.3721 35.7164 43.839 34.7538 43.6042C32.001 42.9369 28.1366 42.0048 25.3803 41.3411C23.5954 40.9103 22.7643 39.9341 22.7643 38.2641V11.6819H23.4657V8.92269H24.3125V6.06463L22.6083 4.24105V1.28237H22.1664V0.122559H23.1448Z" fill="#EB5757"/>
<path d="M5.58788 69.9346V75H1.98876V60.0703H7.94628C9.08788 60.0703 10.0962 60.2822 10.9712 60.7061C11.853 61.123 12.5332 61.7212 13.0117 62.5005C13.4971 63.2729 13.7397 64.1514 13.7397 65.1357C13.7397 66.5918 13.2168 67.7573 12.1709 68.6323C11.1318 69.5005 9.70312 69.9346 7.88476 69.9346H5.58788ZM5.58788 67.1558H7.94628C8.64355 67.1558 9.17333 66.9814 9.53564 66.6328C9.90478 66.2842 10.0893 65.792 10.0893 65.1562C10.0893 64.459 9.90136 63.9019 9.52538 63.4849C9.14941 63.0679 8.63671 62.856 7.9873 62.8491H5.58788V67.1558ZM18.9438 75H15.478V59.25H18.9438V75ZM27.1215 75C26.9984 74.7744 26.8891 74.4429 26.7934 74.0054C26.1576 74.8052 25.269 75.2051 24.1274 75.2051C23.0815 75.2051 22.1928 74.8906 21.4613 74.2617C20.7299 73.626 20.3642 72.8296 20.3642 71.8726C20.3642 70.6694 20.8085 69.7603 21.6972 69.145C22.5859 68.5298 23.8778 68.2222 25.5732 68.2222H26.6396V67.6377C26.6396 66.6191 26.1986 66.1099 25.3168 66.1099C24.4965 66.1099 24.0863 66.5132 24.0863 67.3198H20.6308C20.6308 66.2466 21.0854 65.375 21.9945 64.7051C22.9106 64.0352 24.0761 63.7002 25.4911 63.7002C26.9062 63.7002 28.0238 64.0454 28.8442 64.7358C29.6645 65.4263 30.0849 66.373 30.1054 67.5762V72.4878C30.1191 73.5063 30.2763 74.2856 30.5771 74.8257V75H27.1215ZM24.9579 72.7441C25.3886 72.7441 25.7441 72.6519 26.0243 72.4673C26.3114 72.2827 26.5165 72.0742 26.6396 71.8418V70.0679H25.6347C24.4316 70.0679 23.83 70.6079 23.83 71.688C23.83 72.0024 23.9359 72.2588 24.1479 72.457C24.3598 72.6484 24.6298 72.7441 24.9579 72.7441ZM31.3822 69.3706C31.3822 67.6138 31.7616 66.2295 32.5204 65.2178C33.2792 64.2061 34.3387 63.7002 35.6991 63.7002C36.6903 63.7002 37.5243 64.0898 38.201 64.8691V59.25H41.6669V75H38.5599L38.3856 73.8105C37.6747 74.7402 36.7723 75.2051 35.6786 75.2051C34.3593 75.2051 33.3134 74.6992 32.5409 73.6875C31.7684 72.6758 31.3822 71.2368 31.3822 69.3706ZM34.8378 69.5859C34.8378 71.5547 35.412 72.5391 36.5604 72.5391C37.326 72.5391 37.8729 72.2178 38.201 71.5752V67.3506C37.8866 66.6943 37.3466 66.3662 36.5809 66.3662C35.5145 66.3662 34.9369 67.2275 34.848 68.9502L34.8378 69.5859ZM42.9847 69.3706C42.9847 67.6138 43.3641 66.2295 44.1229 65.2178C44.8817 64.2061 45.9412 63.7002 47.3016 63.7002C48.2928 63.7002 49.1268 64.0898 49.8035 64.8691V59.25H53.2694V75H50.1624L49.9881 73.8105C49.2772 74.7402 48.3748 75.2051 47.2811 75.2051C45.9618 75.2051 44.9159 74.6992 44.1434 73.6875C43.3709 72.6758 42.9847 71.2368 42.9847 69.3706ZM46.4403 69.5859C46.4403 71.5547 47.0145 72.5391 48.1629 72.5391C48.9285 72.5391 49.4754 72.2178 49.8035 71.5752V67.3506C49.4891 66.6943 48.9491 66.3662 48.1834 66.3662C47.117 66.3662 46.5394 67.2275 46.4505 68.9502L46.4403 69.5859ZM61.7342 67.0327L60.596 66.9507C59.5091 66.9507 58.8118 67.2925 58.5042 67.9761V75H55.0486V63.9053H58.2889L58.4017 65.3306C58.9827 64.2437 59.7928 63.7002 60.8318 63.7002C61.201 63.7002 61.5223 63.7412 61.7957 63.8232L61.7342 67.0327ZM68.7122 75C68.5891 74.7744 68.4797 74.4429 68.384 74.0054C67.7483 74.8052 66.8596 75.2051 65.718 75.2051C64.6721 75.2051 63.7835 74.8906 63.052 74.2617C62.3206 73.626 61.9548 72.8296 61.9548 71.8726C61.9548 70.6694 62.3992 69.7603 63.2878 69.145C64.1765 68.5298 65.4685 68.2222 67.1638 68.2222H68.2302V67.6377C68.2302 66.6191 67.7893 66.1099 66.9075 66.1099C66.0872 66.1099 65.677 66.5132 65.677 67.3198H62.2214C62.2214 66.2466 62.676 65.375 63.5852 64.7051C64.5012 64.0352 65.6668 63.7002 67.0818 63.7002C68.4968 63.7002 69.6145 64.0454 70.4348 64.7358C71.2551 65.4263 71.6755 66.373 71.696 67.5762V72.4878C71.7097 73.5063 71.8669 74.2856 72.1677 74.8257V75H68.7122ZM66.5486 72.7441C66.9793 72.7441 67.3347 72.6519 67.615 72.4673C67.9021 72.2827 68.1072 72.0742 68.2302 71.8418V70.0679H67.2253C66.0222 70.0679 65.4207 70.6079 65.4207 71.688C65.4207 72.0024 65.5266 72.2588 65.7385 72.457C65.9504 72.6484 66.2205 72.7441 66.5486 72.7441Z" fill="#EB5757"/>
</svg>
