<svg width="176" height="41" viewBox="0 0 176 41" fill="none" xmlns="http://www.w3.org/2000/svg">
<path fill-rule="evenodd" clip-rule="evenodd" d="M3.73843 29.9799V31.3431H6.69411V29.9799H9.12301V31.3431H12.0787V29.9799H14.5076V31.3431H17.4633V29.9799H19.8922V31.3431H22.8479V29.9799H25.2064V10.6703H1.38142V29.9799H3.73843ZM1.27412 10.5637H25.3137V30.0866H22.9552V31.4497H19.7849V30.0866H17.5706V31.4497H14.4003V30.0866H12.186V31.4497H9.01571V30.0866H6.80141V31.4497H3.63112V30.0866H1.27412V10.5637ZM1.48884 0.178223V0.552778H1.85427V0.178223H2.92667V0.552778H3.2921V0.178223H4.3645V1.40009H3.97781V2.72489H4.6131V3.75952H5.52635V2.72489H6.16317V1.40009H5.77647V0.178223H6.84887V0.552778H7.21431V0.178223H8.28671V0.552778H8.65214V0.178223H9.72454V1.40009H9.33784V2.72489H9.97313V3.75952H11.0721V2.72489H11.7073V1.40009H11.3206V0.178223H12.393V0.552778H12.7585V0.178223H13.8309V0.552778H14.1963V0.178223H15.2687V1.40009H14.882V2.72489H15.5188V3.75952H16.5242V2.72489H17.161V1.40009H16.7743V0.178223H17.8467V0.552778H18.2091V0.178223H19.2815V0.552778H19.6469V0.178223H20.7193V1.40009H20.3326V2.72489H20.9679V3.75952H21.9732V2.72489H22.61V1.40009H22.2233V0.178223H23.2957V0.552778H23.6612V0.178223H24.7336V0.552778H25.099V0.178223H26.1714V1.40009H25.7847V3.90828L24.2932 5.494V7.83051H25.0343V10.2298H25.6481V33.4514C25.6481 34.1949 25.4614 34.797 25.0636 35.2619C24.6669 35.7255 24.071 36.0403 23.2765 36.2307C20.8658 36.8079 17.4838 37.6184 15.0731 38.1987C14.6654 38.2967 14.341 38.4567 14.0855 38.6836C13.8301 38.9104 13.6381 39.2087 13.5026 39.5916M13.5026 39.5918L13.2962 40.1782L13.0869 39.5921L13.0868 39.5918C12.9513 39.2088 12.7593 38.9108 12.5039 38.6842C12.2484 38.4575 11.9239 38.2975 11.5162 38.1986C9.10707 37.6184 5.72512 36.8079 3.31292 36.2308C2.51851 36.0403 1.92247 35.7259 1.52576 35.2625C1.12799 34.7978 0.941237 34.1957 0.941237 33.4514V10.2298H1.55504V7.83051H2.29621V5.494L0.804667 3.90828V1.40009H0.417969V0.178223H1.48884M0.911973 1.29342V3.86619L2.40351 5.45191V7.93717H1.66235V10.3365H1.04854V33.4514C1.04854 34.9036 1.7759 35.7525 3.33803 36.1271C5.75027 36.7042 9.13233 37.5147 11.5415 38.095C12.384 38.2992 12.9072 38.7628 13.188 39.5564L13.2954 39.8573L13.4013 39.5564C13.6821 38.7628 14.2054 38.2976 15.0479 38.095C17.4586 37.5147 20.8406 36.7042 23.2513 36.1271C24.8135 35.7525 25.5408 34.9021 25.5408 33.4514V10.3365H24.927V7.93717H24.1858V5.45191L25.6774 3.86619V1.29342H26.0641V0.284887H25.2063V0.659442H24.6263V0.284887H23.7685V0.659442H23.1884V0.284887H22.3306V1.29342H22.7173V2.83155H22.0805V3.86619H20.8606V2.83155H20.2253V1.29342H20.612V0.284887H19.7542V0.659442H19.1741V0.284887H18.3164V0.659442H17.7394V0.284887H16.8816V1.29342H17.2683V2.83155H16.6315V3.86619H15.4115V2.83155H14.7747V1.29342H15.1614V0.284887H14.3036V0.659442H13.7236V0.284887H12.8658V0.659442H12.2857V0.284887H11.428V1.29342H11.8146V2.83155H11.1794V3.86619H9.86582V2.83155H9.23054V1.29342H9.61723V0.284887H8.75944V0.659442H8.1794V0.284887H7.32161V0.659442H6.74157V0.284887H5.88378V1.29342H6.27047V2.83155H5.63365V3.86619H4.50579V2.83155H3.8705V1.29342H4.2572V0.284887H3.39941V0.659442H2.81936V0.284887H1.96157V0.659442H1.38153V0.284887H0.525275V1.29342H0.911973Z" fill="white"/>
<path d="M13.2942 12.7745C13.1623 12.7745 13.0549 12.8819 13.0549 13.0139C13.0549 13.146 13.1623 13.2534 13.2942 13.2534C13.4262 13.2534 13.5336 13.146 13.5336 13.0139C13.5336 12.8835 13.4262 12.7745 13.2942 12.7745Z" fill="white"/>
<path d="M12.814 12.4597C12.814 12.4597 12.7955 12.343 12.7955 12.1849C12.7955 12.0283 12.814 11.9101 12.814 11.9101C12.814 11.9101 12.9597 11.9946 13.1116 11.9869C13.1301 11.7658 12.9781 11.5294 12.9781 11.5294C12.9781 11.5294 13.1807 11.5939 13.2943 11.5939C13.4078 11.5939 13.6104 11.5294 13.6104 11.5294C13.6104 11.5294 13.4584 11.7658 13.4769 11.9869C13.6288 11.9961 13.7746 11.9101 13.7746 11.9101C13.7746 11.9101 13.793 12.0268 13.793 12.1849C13.793 12.3415 13.7746 12.4597 13.7746 12.4597C13.7746 12.4597 13.6288 12.3753 13.4769 12.3829C13.4631 12.5456 13.549 12.7068 13.5966 12.782L13.5705 12.802C13.506 12.7191 13.4063 12.6654 13.2943 12.6654C13.1822 12.6654 13.0825 12.7191 13.018 12.802L12.992 12.782C13.0395 12.7068 13.1255 12.5456 13.1116 12.3829C12.9597 12.3753 12.814 12.4597 12.814 12.4597Z" fill="white"/>
<path d="M13.2943 13.3454L15.6436 15.1737V15.9305H14.9822V15.1737H13.6242V15.9305H12.9628V15.1737H11.6063V15.9305H10.9434V15.1737L13.2943 13.3454Z" fill="white"/>
<path d="M10.5966 15.5223V16.2791H11.9531V15.5223H12.6145V16.2791H13.9725V15.5223H14.6339V16.2791H15.9919V15.5223H16.6533V16.9284H9.93524V15.5223H10.5966Z" fill="white"/>
<path d="M20.9039 16.5016C20.9039 16.3466 20.778 16.2207 20.6231 16.2207C20.4681 16.2207 20.3422 16.3466 20.3422 16.5016C20.3422 16.6566 20.4681 16.7825 20.6231 16.7825C20.778 16.7825 20.9039 16.6566 20.9039 16.5016Z" fill="white"/>
<path d="M20.4834 17.9553V16.9513H20.7642V17.9553L22.6133 20.3208H16.4262V17.9553H20.4834Z" fill="white"/>
<path d="M18.0267 22.1016V21.331C18.0267 21.1759 17.8702 21.0516 17.6753 21.0516C17.482 21.0516 17.3239 21.1775 17.3239 21.331V22.1016H18.0267ZM19.3111 22.1016V21.331C19.3111 21.1759 19.1546 21.0516 18.9597 21.0516C18.7663 21.0516 18.6083 21.1775 18.6083 21.331V22.1016H19.3111ZM20.5955 22.1016V21.331C20.5955 21.1759 20.439 21.0516 20.2441 21.0516C20.0507 21.0516 19.8927 21.1775 19.8927 21.331V22.1016H20.5955ZM21.4947 22.6772H16.4262V20.6694H21.4947V22.6772Z" fill="white"/>
<path d="M5.68312 16.5016C5.68312 16.3466 5.80895 16.2207 5.96393 16.2207C6.11892 16.2207 6.24475 16.3466 6.24475 16.5016C6.24475 16.6566 6.11892 16.7825 5.96393 16.7825C5.80895 16.7825 5.68312 16.6566 5.68312 16.5016Z" fill="white"/>
<path d="M6.10512 17.9553V16.9513H5.82431V17.9553L3.97369 20.3208H10.1608V17.9553H6.10512Z" fill="white"/>
<path d="M9.26314 21.3308C9.26314 21.1758 9.10662 21.0514 8.91174 21.0514C8.71839 21.0514 8.56033 21.1773 8.56033 21.3308V22.1014H9.26314V21.3308ZM7.97722 21.3308C7.97722 21.1758 7.8207 21.0514 7.62582 21.0514C7.43247 21.0514 7.27442 21.1773 7.27442 21.3308V22.1014H7.97569V21.3308H7.97722ZM6.69284 21.3308C6.69284 21.1758 6.53632 21.0514 6.34144 21.0514C6.14809 21.0514 5.99003 21.1773 5.99003 21.3308V22.1014H6.6913V21.3308H6.69284ZM10.1608 22.6771H5.09234V20.6692H10.1608V22.6771Z" fill="white"/>
<path d="M19.42 25.7995L16.5443 23.0241H21.7494C21.7494 23.0241 23.5064 23.632 23.5064 24.9706C23.5064 25.3467 23.3176 25.643 23.1918 25.798H19.42V25.7995Z" fill="white"/>
<path d="M7.16699 25.7995L10.0427 23.0241H4.83914C4.83914 23.0241 3.08213 23.632 3.08213 24.9706C3.08213 25.3467 3.27087 25.643 3.3967 25.798H7.16699V25.7995Z" fill="white"/>
<path d="M8.79049 25.8024L12.2155 21.2816L7.58283 25.8776C7.69025 25.9206 7.87132 25.9728 8.10763 25.9728C8.49279 25.9743 8.71683 25.85 8.79049 25.8024ZM10.4585 25.7993L12.6789 21.0821L9.18025 25.8561C9.30301 25.9114 9.49943 25.9728 9.75723 25.9728C10.0918 25.9743 10.3526 25.8561 10.4585 25.7993ZM12.1787 25.7886L13.0227 20.9332L10.816 25.8454C10.9219 25.9006 11.1153 25.9728 11.4053 25.9728C11.6846 25.9743 12.0283 25.85 12.1787 25.7886ZM13.2943 25.9743C13.7255 25.9743 13.9602 25.8914 14.0677 25.8362L13.2943 20.8088L12.5209 25.8362C12.6283 25.8899 12.8631 25.9728 13.2943 25.9743ZM15.7725 25.8469L13.5659 20.9347L14.4099 25.7901C14.5602 25.85 14.904 25.9743 15.1832 25.9743C15.4733 25.9743 15.6666 25.9006 15.7725 25.8469ZM17.4067 25.8576L13.9081 21.0836L16.1285 25.8009C16.2328 25.8577 16.4922 25.9743 16.8282 25.9743C17.0891 25.9743 17.2855 25.9114 17.4067 25.8576ZM19.0057 25.8776L14.373 21.2816L17.7965 25.8024C17.8717 25.8515 18.0957 25.9743 18.4809 25.9743C18.7188 25.9743 18.8998 25.9206 19.0057 25.8776Z" fill="white"/>
<path d="M19.8758 28.0222V27.2516C19.8758 27.0981 19.7193 26.9723 19.5244 26.9723C19.331 26.9723 19.173 27.0966 19.173 27.2516V28.0222H19.8758ZM22.4461 27.2516C22.4461 27.0981 22.2896 26.9723 22.0947 26.9723C21.9013 26.9723 21.7433 27.0966 21.7433 27.2516V28.0222H22.4446V27.2516H22.4461ZM21.1602 27.2516C21.1602 27.0981 21.0037 26.9723 20.8088 26.9723C20.6154 26.9723 20.4574 27.0966 20.4574 27.2516V28.0222H21.1586V27.2516H21.1602ZM19.2543 26.1479H22.9556V29.6095H22.4768V30.9726H20.2625V29.6095H18.6635V26.3137C18.9582 26.2846 19.1653 26.194 19.2543 26.1479Z" fill="white"/>
<path d="M7.41248 27.2516C7.41248 27.0981 7.25596 26.9722 7.06108 26.9722C6.86773 26.9722 6.70968 27.0966 6.70968 27.2516V28.0222H7.41095V27.2516H7.41248ZM4.84372 28.0222V27.2516C4.84372 27.0981 4.6872 26.9722 4.49231 26.9722C4.29897 26.9722 4.14091 27.0966 4.14091 27.2516V28.0222H4.84372ZM6.1281 28.0222V27.2516C6.1281 27.0981 5.97158 26.9722 5.7767 26.9722C5.58335 26.9722 5.4253 27.0966 5.4253 27.2516V28.0222H6.1281ZM7.92347 26.3121V29.6079H6.32452V30.971H4.11022V29.6079H3.63146V26.1464H7.33269C7.42322 26.1939 7.62885 26.2845 7.92347 26.3121Z" fill="white"/>
<path d="M9.2048 28.7913H10.1347V27.4666C10.1347 27.2624 9.92602 27.0966 9.66976 27.0966C9.4135 27.0966 9.2048 27.2624 9.2048 27.4666V28.7913ZM10.8283 28.7913H11.9823V27.3729C11.9823 27.1196 11.7245 26.9139 11.4053 26.9139C11.0861 26.9139 10.8283 27.1196 10.8283 27.3729V28.7913ZM12.7173 28.7913H13.8712V27.3729C13.8712 27.1196 13.6134 26.9139 13.2943 26.9139C12.9751 26.9139 12.7173 27.1196 12.7173 27.3729V28.7913ZM14.6063 28.7913H15.7602V27.3729C15.7602 27.1196 15.5024 26.9139 15.1832 26.9139C14.8641 26.9139 14.6063 27.1196 14.6063 27.3729V28.7913ZM16.4538 28.7913H17.3837V27.4666C17.3837 27.2624 17.175 27.0966 16.9188 27.0966C16.6625 27.0966 16.4538 27.2624 16.4538 27.4666V28.7913ZM8.9332 26.1218C9.07744 26.2017 9.36133 26.3214 9.75876 26.3214C10.1424 26.3214 10.4447 26.1971 10.5966 26.1203C10.7332 26.2017 11.0017 26.3214 11.4053 26.3214C11.7429 26.3214 12.1296 26.1832 12.3045 26.1126C12.4457 26.1971 12.7434 26.3199 13.2897 26.3214H13.2958C13.8421 26.3199 14.1413 26.1986 14.2825 26.1126C14.4574 26.1832 14.8457 26.3214 15.1817 26.3214C15.5853 26.3214 15.8538 26.2017 15.9904 26.1203C16.1423 26.1971 16.4446 26.3214 16.8282 26.3214C17.2257 26.3214 17.508 26.2017 17.6538 26.1218C17.775 26.1909 17.996 26.2876 18.3152 26.3137V29.608H17.0922V30.9711H14.8779V29.608H11.7076V30.9711H9.49329V29.608H8.27029V26.3137C8.58947 26.2892 8.81197 26.1925 8.9332 26.1218Z" fill="white"/>
<path d="M14.9286 18.6644V17.8937C14.9286 17.7402 14.772 17.6144 14.5772 17.6144C14.3838 17.6144 14.2258 17.7387 14.2258 17.8937V18.6644H14.9286ZM13.6442 17.8937C13.6442 17.7402 13.4861 17.6144 13.2928 17.6144C13.0994 17.6144 12.9414 17.7387 12.9414 17.8937V18.6644H13.6426V17.8937H13.6442ZM12.3598 17.8937C12.3598 17.7402 12.2033 17.6144 12.0084 17.6144C11.815 17.6144 11.657 17.7387 11.657 17.8937V18.6644H12.3583V17.8937H12.3598ZM13.8698 19.6069L13.2943 19.0312L12.7189 19.6069L13.1439 20.0321L10.5092 22.5742V17.2751H16.0779V22.5742L13.4432 20.0321L13.8698 19.6069Z" fill="white"/>
<path d="M1.27448 30.0869H3.63148V31.45H6.80178V30.0869H9.01607V31.45H12.1864V30.0869H14.4007V31.45H17.571V30.0869H19.7852V31.45H22.9555V30.0869H25.3141V10.5639H1.27448V30.0869ZM1.3819 0.285156V0.659711H1.96194V0.285156H2.81973V0.659711H3.39977V0.285156H4.25756V1.29369H3.87087V2.83182H4.50615V3.86646H5.63402V2.83182H6.27084V1.29369H5.88414V0.285156H6.74193V0.659711H7.32198V0.285156H8.17977V0.659711H8.75981V0.285156H9.6176V1.29369H9.2309V2.83182H9.86619V3.86646H11.1797V2.83182H11.815V1.29369H11.4283V0.285156H12.2861V0.659711H12.8662V0.285156H13.7239V0.659711H14.304V0.285156H15.1618V1.29369H14.7751V2.83182H15.4119V3.86646H16.6318V2.83182H17.2687V1.29369H16.882V0.285156H17.7397V0.659711H18.3167V0.285156H19.1745V0.659711H19.7546V0.285156H20.6123V1.29369H20.2257V2.83182H20.8609V3.86646H22.0809V2.83182H22.7177V1.29369H22.331V0.285156H23.1888V0.659711H23.7688V0.285156H24.6266V0.659711H25.2067V0.285156H26.0645V1.29369H25.6778V3.86646L24.1862 5.45218V7.93744H24.9274V10.3367H25.5412V33.4517C25.5412 34.9023 24.8138 35.7528 23.2517 36.1273C20.841 36.7045 17.4589 37.515 15.0482 38.0953C14.2058 38.2979 13.6825 38.763 13.4017 39.5567L13.2958 39.8575L13.1884 39.5567C12.9076 38.763 12.3843 38.2994 11.5419 38.0953C9.1327 37.515 5.75064 36.7045 3.33839 36.1273C1.77626 35.7528 1.04891 34.9039 1.04891 33.4517V10.3367H1.66271V7.93744H2.40388V5.45218L0.912337 3.86646V1.29369H0.52564V0.285156H1.3819Z" fill="white"/>
<path d="M53.7725 23.7358V32.1782H47.7739V7.29541H57.7031C59.6058 7.29541 61.2863 7.6486 62.7447 8.35498C64.2144 9.04997 65.348 10.0469 66.1455 11.3457C66.9544 12.6331 67.3589 14.0972 67.3589 15.7378C67.3589 18.1646 66.4873 20.1071 64.7442 21.5654C63.0124 23.0124 60.6312 23.7358 57.6006 23.7358H53.7725ZM53.7725 19.1045H57.7031C58.8653 19.1045 59.7482 18.814 60.3521 18.2329C60.9673 17.6519 61.2749 16.8315 61.2749 15.772C61.2749 14.6099 60.9616 13.6813 60.335 12.9863C59.7084 12.2913 58.8539 11.9382 57.7715 11.9268H53.7725V19.1045ZM76.0323 32.1782H70.256V5.92822H76.0323V32.1782ZM89.6618 32.1782C89.4568 31.8022 89.2745 31.2497 89.115 30.5205C88.0554 31.8535 86.5743 32.52 84.6716 32.52C82.9284 32.52 81.4473 31.9959 80.2282 30.9478C79.0092 29.8882 78.3996 28.5609 78.3996 26.9658C78.3996 24.9606 79.1402 23.4453 80.6213 22.4199C82.1024 21.3945 84.2558 20.8818 87.0813 20.8818H88.8586V19.9077C88.8586 18.2101 88.1238 17.3613 86.654 17.3613C85.2868 17.3613 84.6032 18.0335 84.6032 19.3779H78.844C78.844 17.5892 79.6016 16.1366 81.1169 15.02C82.6436 13.9035 84.5862 13.3452 86.9446 13.3452C89.303 13.3452 91.1657 13.9206 92.5329 15.0713C93.9001 16.222 94.6008 17.8 94.635 19.8052V27.9912C94.6578 29.6888 94.9198 30.9876 95.4211 31.8877V32.1782H89.6618ZM86.0559 28.4185C86.7737 28.4185 87.3661 28.2646 87.8332 27.957C88.3117 27.6494 88.6535 27.3019 88.8586 26.9146V23.958H87.1838C85.1786 23.958 84.176 24.8581 84.176 26.6582C84.176 27.1823 84.3526 27.6095 84.7058 27.9399C85.059 28.259 85.509 28.4185 86.0559 28.4185ZM96.763 22.7959C96.763 19.8678 97.3953 17.5607 98.66 15.8745C99.9246 14.1883 101.691 13.3452 103.958 13.3452C105.61 13.3452 107 13.9946 108.128 15.2935V5.92822H113.904V32.1782H108.726L108.435 30.1958C107.25 31.7453 105.747 32.52 103.924 32.52C101.725 32.52 99.9816 31.6769 98.6942 29.9907C97.4067 28.3045 96.763 25.9062 96.763 22.7959ZM102.522 23.1548C102.522 26.436 103.479 28.0767 105.393 28.0767C106.669 28.0767 107.581 27.5412 108.128 26.4702V19.4292C107.604 18.3354 106.704 17.7886 105.428 17.7886C103.65 17.7886 102.687 19.2241 102.539 22.0952L102.522 23.1548ZM116.101 22.7959C116.101 19.8678 116.733 17.5607 117.997 15.8745C119.262 14.1883 121.028 13.3452 123.295 13.3452C124.947 13.3452 126.337 13.9946 127.465 15.2935V5.92822H133.242V32.1782H128.063L127.773 30.1958C126.588 31.7453 125.084 32.52 123.261 32.52C121.062 32.52 119.319 31.6769 118.032 29.9907C116.744 28.3045 116.101 25.9062 116.101 22.7959ZM121.86 23.1548C121.86 26.436 122.817 28.0767 124.731 28.0767C126.007 28.0767 126.918 27.5412 127.465 26.4702V19.4292C126.941 18.3354 126.041 17.7886 124.765 17.7886C122.988 17.7886 122.025 19.2241 121.877 22.0952L121.86 23.1548ZM147.35 18.8994L145.453 18.7627C143.641 18.7627 142.479 19.3324 141.966 20.4717V32.1782H136.207V13.687H141.607L141.795 16.0625C142.764 14.251 144.114 13.3452 145.846 13.3452C146.461 13.3452 146.996 13.4136 147.452 13.5503L147.35 18.8994ZM158.98 32.1782C158.775 31.8022 158.592 31.2497 158.433 30.5205C157.373 31.8535 155.892 32.52 153.989 32.52C152.246 32.52 150.765 31.9959 149.546 30.9478C148.327 29.8882 147.717 28.5609 147.717 26.9658C147.717 24.9606 148.458 23.4453 149.939 22.4199C151.42 21.3945 153.574 20.8818 156.399 20.8818H158.176V19.9077C158.176 18.2101 157.442 17.3613 155.972 17.3613C154.605 17.3613 153.921 18.0335 153.921 19.3779H148.162C148.162 17.5892 148.919 16.1366 150.435 15.02C151.961 13.9035 153.904 13.3452 156.262 13.3452C158.621 13.3452 160.484 13.9206 161.851 15.0713C163.218 16.222 163.919 17.8 163.953 19.8052V27.9912C163.976 29.6888 164.238 30.9876 164.739 31.8877V32.1782H158.98ZM155.374 28.4185C156.091 28.4185 156.684 28.2646 157.151 27.957C157.63 27.6494 157.971 27.3019 158.176 26.9146V23.958H156.502C154.496 23.958 153.494 24.8581 153.494 26.6582C153.494 27.1823 153.67 27.6095 154.024 27.9399C154.377 28.259 154.827 28.4185 155.374 28.4185Z" fill="white"/>
</svg>
