<svg width="176" height="41" viewBox="0 0 176 41" fill="none" xmlns="http://www.w3.org/2000/svg">
<path fill-rule="evenodd" clip-rule="evenodd" d="M3.7521 29.9799V31.3431H6.70778V29.9799H9.13668V31.3431H12.0924V29.9799H14.5213V31.3431H17.477V29.9799H19.9059V31.3431H22.8615V29.9799H25.2201V10.6703H1.39509V29.9799H3.7521ZM1.28779 10.5637H25.3274V30.0866H22.9688V31.4497H19.7986V30.0866H17.5843V31.4497H14.414V30.0866H12.1997V31.4497H9.02938V30.0866H6.81509V31.4497H3.64479V30.0866H1.28779V10.5637ZM1.50251 0.178223V0.552778H1.86794V0.178223H2.94034V0.552778H3.30577V0.178223H4.37818V1.40009H3.99148V2.72489H4.62677V3.75952H5.54002V2.72489H6.17684V1.40009H5.79014V0.178223H6.86255V0.552778H7.22798V0.178223H8.30038V0.552778H8.66581V0.178223H9.73821V1.40009H9.35151V2.72489H9.9868V3.75952H11.0857V2.72489H11.721V1.40009H11.3343V0.178223H12.4067V0.552778H12.7722V0.178223H13.8446V0.552778H14.21V0.178223H15.2824V1.40009H14.8957V2.72489H15.5325V3.75952H16.5378V2.72489H17.1747V1.40009H16.788V0.178223H17.8604V0.552778H18.2227V0.178223H19.2951V0.552778H19.6606V0.178223H20.733V1.40009H20.3463V2.72489H20.9815V3.75952H21.9869V2.72489H22.6237V1.40009H22.237V0.178223H23.3094V0.552778H23.6748V0.178223H24.7472V0.552778H25.1127V0.178223H26.1851V1.40009H25.7984V3.90828L24.3068 5.494V7.83051H25.048V10.2298H25.6618V33.4514C25.6618 34.1949 25.475 34.797 25.0773 35.2619C24.6806 35.7255 24.0846 36.0403 23.2902 36.2307C20.8795 36.8079 17.4974 37.6184 15.0868 38.1987C14.6791 38.2967 14.3547 38.4567 14.0991 38.6836C13.8438 38.9104 13.6518 39.2087 13.5163 39.5916M13.5162 39.5918L13.3098 40.1782L13.1006 39.5921L13.1005 39.5918C12.965 39.2088 12.773 38.9108 12.5176 38.6842C12.2621 38.4575 11.9376 38.2975 11.5298 38.1986C9.12075 37.6184 5.73879 36.8079 3.32659 36.2308C2.53218 36.0403 1.93614 35.7259 1.53943 35.2625C1.14166 34.7978 0.954909 34.1957 0.954909 33.4514V10.2298H1.56871V7.83051H2.30988V5.494L0.818339 3.90828V1.40009H0.431641V0.178223H1.50251M0.925645 1.29342V3.86619L2.41719 5.45191V7.93717H1.67602V10.3365H1.06222V33.4514C1.06222 34.9036 1.78957 35.7525 3.3517 36.1271C5.76395 36.7042 9.146 37.5147 11.5552 38.095C12.3976 38.2992 12.9209 38.7628 13.2017 39.5564L13.3091 39.8573L13.415 39.5564C13.6958 38.7628 14.2191 38.2976 15.0615 38.095C17.4722 37.5147 20.8543 36.7042 23.265 36.1271C24.8271 35.7525 25.5545 34.9021 25.5545 33.4514V10.3365H24.9407V7.93717H24.1995V5.45191L25.6911 3.86619V1.29342H26.0778V0.284887H25.22V0.659442H24.6399V0.284887H23.7821V0.659442H23.2021V0.284887H22.3443V1.29342H22.731V2.83155H22.0942V3.86619H20.8742V2.83155H20.239V1.29342H20.6257V0.284887H19.7679V0.659442H19.1878V0.284887H18.33V0.659442H17.7531V0.284887H16.8953V1.29342H17.282V2.83155H16.6451V3.86619H15.4252V2.83155H14.7884V1.29342H15.1751V0.284887H14.3173V0.659442H13.7372V0.284887H12.8795V0.659442H12.2994V0.284887H11.4416V1.29342H11.8283V2.83155H11.193V3.86619H9.87949V2.83155H9.24421V1.29342H9.6309V0.284887H8.77312V0.659442H8.19307V0.284887H7.33528V0.659442H6.75524V0.284887H5.89745V1.29342H6.28414V2.83155H5.64732V3.86619H4.51946V2.83155H3.88417V1.29342H4.27087V0.284887H3.41308V0.659442H2.83304V0.284887H1.97525V0.659442H1.3952V0.284887H0.538947V1.29342H0.925645Z" fill="#333333"/>
<path d="M13.3079 12.7745C13.1759 12.7745 13.0685 12.8819 13.0685 13.0139C13.0685 13.146 13.1759 13.2534 13.3079 13.2534C13.4399 13.2534 13.5473 13.146 13.5473 13.0139C13.5473 12.8835 13.4399 12.7745 13.3079 12.7745Z" fill="#333333"/>
<path d="M12.8276 12.4597C12.8276 12.4597 12.8092 12.343 12.8092 12.1849C12.8092 12.0283 12.8276 11.9101 12.8276 11.9101C12.8276 11.9101 12.9734 11.9946 13.1253 11.9869C13.1437 11.7658 12.9918 11.5294 12.9918 11.5294C12.9918 11.5294 13.1944 11.5939 13.3079 11.5939C13.4215 11.5939 13.624 11.5294 13.624 11.5294C13.624 11.5294 13.4721 11.7658 13.4905 11.9869C13.6424 11.9961 13.7882 11.9101 13.7882 11.9101C13.7882 11.9101 13.8066 12.0268 13.8066 12.1849C13.8066 12.3415 13.7882 12.4597 13.7882 12.4597C13.7882 12.4597 13.6424 12.3753 13.4905 12.3829C13.4767 12.5456 13.5627 12.7068 13.6102 12.782L13.5841 12.802C13.5197 12.7191 13.4199 12.6654 13.3079 12.6654C13.1959 12.6654 13.0962 12.7191 13.0317 12.802L13.0056 12.782C13.0532 12.7068 13.1391 12.5456 13.1253 12.3829C12.9734 12.3753 12.8276 12.4597 12.8276 12.4597Z" fill="#333333"/>
<path d="M13.3079 13.3454L15.6573 15.1737V15.9305H14.9959V15.1737H13.6378V15.9305H12.9765V15.1737H11.62V15.9305H10.9571V15.1737L13.3079 13.3454Z" fill="#333333"/>
<path d="M10.6103 15.5223V16.2791H11.9668V15.5223H12.6282V16.2791H13.9862V15.5223H14.6476V16.2791H16.0056V15.5223H16.667V16.9284H9.94891V15.5223H10.6103Z" fill="#333333"/>
<path d="M20.9175 16.5016C20.9175 16.3466 20.7917 16.2207 20.6367 16.2207C20.4817 16.2207 20.3559 16.3466 20.3559 16.5016C20.3559 16.6566 20.4817 16.7825 20.6367 16.7825C20.7917 16.7825 20.9175 16.6566 20.9175 16.5016Z" fill="#333333"/>
<path d="M20.4971 17.9553V16.9513H20.7779V17.9553L22.627 20.3208H16.4399V17.9553H20.4971Z" fill="#333333"/>
<path d="M18.0404 22.1016V21.331C18.0404 21.1759 17.8839 21.0516 17.689 21.0516C17.4956 21.0516 17.3376 21.1775 17.3376 21.331V22.1016H18.0404ZM19.3248 22.1016V21.331C19.3248 21.1759 19.1682 21.0516 18.9734 21.0516C18.78 21.0516 18.622 21.1775 18.622 21.331V22.1016H19.3248ZM20.6092 22.1016V21.331C20.6092 21.1759 20.4526 21.0516 20.2577 21.0516C20.0644 21.0516 19.9063 21.1775 19.9063 21.331V22.1016H20.6092ZM21.5084 22.6772H16.4399V20.6694H21.5084V22.6772Z" fill="#333333"/>
<path d="M5.69679 16.5016C5.69679 16.3466 5.82262 16.2207 5.97761 16.2207C6.13259 16.2207 6.25842 16.3466 6.25842 16.5016C6.25842 16.6566 6.13259 16.7825 5.97761 16.7825C5.82262 16.7825 5.69679 16.6566 5.69679 16.5016Z" fill="#333333"/>
<path d="M6.11879 17.9553V16.9513H5.83798V17.9553L3.98736 20.3208H10.1745V17.9553H6.11879Z" fill="#333333"/>
<path d="M9.27681 21.3308C9.27681 21.1758 9.12029 21.0514 8.92541 21.0514C8.73206 21.0514 8.57401 21.1773 8.57401 21.3308V22.1014H9.27681V21.3308ZM7.99089 21.3308C7.99089 21.1758 7.83437 21.0514 7.63949 21.0514C7.44614 21.0514 7.28809 21.1773 7.28809 21.3308V22.1014H7.98936V21.3308H7.99089ZM6.70651 21.3308C6.70651 21.1758 6.54999 21.0514 6.35511 21.0514C6.16176 21.0514 6.0037 21.1773 6.0037 21.3308V22.1014H6.70498V21.3308H6.70651ZM10.1745 22.6771H5.10602V20.6692H10.1745V22.6771Z" fill="#333333"/>
<path d="M19.4337 25.7995L16.558 23.0241H21.7631C21.7631 23.0241 23.5201 23.632 23.5201 24.9706C23.5201 25.3467 23.3313 25.643 23.2055 25.798H19.4337V25.7995Z" fill="#333333"/>
<path d="M7.18066 25.7995L10.0563 23.0241H4.85281C4.85281 23.0241 3.0958 23.632 3.0958 24.9706C3.0958 25.3467 3.28455 25.643 3.41038 25.798H7.18066V25.7995Z" fill="#333333"/>
<path d="M8.80416 25.8024L12.2292 21.2816L7.5965 25.8776C7.70392 25.9206 7.88499 25.9728 8.1213 25.9728C8.50646 25.9743 8.7305 25.85 8.80416 25.8024ZM10.4722 25.7993L12.6926 21.0821L9.19393 25.8561C9.31669 25.9114 9.5131 25.9728 9.7709 25.9728C10.1054 25.9743 10.3663 25.8561 10.4722 25.7993ZM12.1924 25.7886L13.0363 20.9332L10.8297 25.8454C10.9356 25.9006 11.1289 25.9728 11.419 25.9728C11.6982 25.9743 12.042 25.85 12.1924 25.7886ZM13.3079 25.9743C13.7391 25.9743 13.9739 25.8914 14.0813 25.8362L13.3079 20.8088L12.5345 25.8362C12.642 25.8899 12.8767 25.9728 13.3079 25.9743ZM15.7862 25.8469L13.5795 20.9347L14.4235 25.7901C14.5739 25.85 14.9176 25.9743 15.1969 25.9743C15.4869 25.9743 15.6803 25.9006 15.7862 25.8469ZM17.4204 25.8576L13.9217 21.0836L16.1422 25.8009C16.2465 25.8577 16.5059 25.9743 16.8419 25.9743C17.1028 25.9743 17.2992 25.9114 17.4204 25.8576ZM19.0194 25.8776L14.3867 21.2816L17.8102 25.8024C17.8854 25.8515 18.1094 25.9743 18.4946 25.9743C18.7324 25.9743 18.9135 25.9206 19.0194 25.8776Z" fill="#333333"/>
<path d="M19.8895 28.0222V27.2516C19.8895 27.0981 19.7329 26.9723 19.5381 26.9723C19.3447 26.9723 19.1867 27.0966 19.1867 27.2516V28.0222H19.8895ZM22.4598 27.2516C22.4598 27.0981 22.3032 26.9723 22.1084 26.9723C21.915 26.9723 21.757 27.0966 21.757 27.2516V28.0222H22.4582V27.2516H22.4598ZM21.1739 27.2516C21.1739 27.0981 21.0173 26.9723 20.8224 26.9723C20.6291 26.9723 20.471 27.0966 20.471 27.2516V28.0222H21.1723V27.2516H21.1739ZM19.268 26.1479H22.9692V29.6095H22.4905V30.9726H20.2762V29.6095H18.6772V26.3137C18.9718 26.2846 19.179 26.194 19.268 26.1479Z" fill="#333333"/>
<path d="M7.42615 27.2516C7.42615 27.0981 7.26963 26.9722 7.07475 26.9722C6.8814 26.9722 6.72335 27.0966 6.72335 27.2516V28.0222H7.42462V27.2516H7.42615ZM4.85739 28.0222V27.2516C4.85739 27.0981 4.70087 26.9722 4.50599 26.9722C4.31264 26.9722 4.15458 27.0966 4.15458 27.2516V28.0222H4.85739ZM6.14177 28.0222V27.2516C6.14177 27.0981 5.98525 26.9722 5.79037 26.9722C5.59702 26.9722 5.43897 27.0966 5.43897 27.2516V28.0222H6.14177ZM7.93715 26.3121V29.6079H6.33819V30.971H4.12389V29.6079H3.64513V26.1464H7.34636C7.43689 26.1939 7.64252 26.2845 7.93715 26.3121Z" fill="#333333"/>
<path d="M9.21848 28.7913H10.1484V27.4666C10.1484 27.2624 9.93969 27.0966 9.68343 27.0966C9.42717 27.0966 9.21848 27.2624 9.21848 27.4666V28.7913ZM10.842 28.7913H11.9959V27.3729C11.9959 27.1196 11.7381 26.9139 11.419 26.9139C11.0998 26.9139 10.842 27.1196 10.842 27.3729V28.7913ZM12.731 28.7913H13.8849V27.3729C13.8849 27.1196 13.6271 26.9139 13.3079 26.9139C12.9888 26.9139 12.731 27.1196 12.731 27.3729V28.7913ZM14.6199 28.7913H15.7739V27.3729C15.7739 27.1196 15.5161 26.9139 15.1969 26.9139C14.8777 26.9139 14.6199 27.1196 14.6199 27.3729V28.7913ZM16.4675 28.7913H17.3974V27.4666C17.3974 27.2624 17.1887 27.0966 16.9324 27.0966C16.6762 27.0966 16.4675 27.2624 16.4675 27.4666V28.7913ZM8.94687 26.1218C9.09111 26.2017 9.375 26.3214 9.77244 26.3214C10.1561 26.3214 10.4584 26.1971 10.6103 26.1203C10.7468 26.2017 11.0154 26.3214 11.419 26.3214C11.7566 26.3214 12.1433 26.1832 12.3182 26.1126C12.4594 26.1971 12.7571 26.3199 13.3033 26.3214H13.3095C13.8558 26.3199 14.155 26.1986 14.2962 26.1126C14.4711 26.1832 14.8593 26.3214 15.1954 26.3214C15.599 26.3214 15.8675 26.2017 16.0041 26.1203C16.156 26.1971 16.4583 26.3214 16.8419 26.3214C17.2393 26.3214 17.5217 26.2017 17.6675 26.1218C17.7887 26.1909 18.0097 26.2876 18.3288 26.3137V29.608H17.1058V30.9711H14.8916V29.608H11.7213V30.9711H9.50697V29.608H8.28396V26.3137C8.60314 26.2892 8.82564 26.1925 8.94687 26.1218Z" fill="#333333"/>
<path d="M14.9422 18.6644V17.8937C14.9422 17.7402 14.7857 17.6144 14.5908 17.6144C14.3975 17.6144 14.2394 17.7387 14.2394 17.8937V18.6644H14.9422ZM13.6579 17.8937C13.6579 17.7402 13.4998 17.6144 13.3065 17.6144C13.1131 17.6144 12.9551 17.7387 12.9551 17.8937V18.6644H13.6563V17.8937H13.6579ZM12.3735 17.8937C12.3735 17.7402 12.217 17.6144 12.0221 17.6144C11.8287 17.6144 11.6707 17.7387 11.6707 17.8937V18.6644H12.3719V17.8937H12.3735ZM13.8834 19.6069L13.308 19.0312L12.7325 19.6069L13.1576 20.0321L10.5229 22.5742V17.2751H16.0916V22.5742L13.4568 20.0321L13.8834 19.6069Z" fill="#333333"/>
<path d="M1.28815 30.0869H3.64516V31.45H6.81545V30.0869H9.02974V31.45H12.2V30.0869H14.4143V31.45H17.5846V30.0869H19.7989V31.45H22.9692V30.0869H25.3278V10.5639H1.28815V30.0869ZM1.39557 0.285156V0.659711H1.97561V0.285156H2.8334V0.659711H3.41344V0.285156H4.27124V1.29369H3.88454V2.83182H4.51983V3.86646H5.64769V2.83182H6.28451V1.29369H5.89781V0.285156H6.7556V0.659711H7.33565V0.285156H8.19344V0.659711H8.77348V0.285156H9.63127V1.29369H9.24457V2.83182H9.87986V3.86646H11.1934V2.83182H11.8287V1.29369H11.442V0.285156H12.2998V0.659711H12.8798V0.285156H13.7376V0.659711H14.3177V0.285156H15.1754V1.29369H14.7887V2.83182H15.4256V3.86646H16.6455V2.83182H17.2823V1.29369H16.8956V0.285156H17.7534V0.659711H18.3304V0.285156H19.1882V0.659711H19.7682V0.285156H20.626V1.29369H20.2393V2.83182H20.8746V3.86646H22.0945V2.83182H22.7314V1.29369H22.3447V0.285156H23.2025V0.659711H23.7825V0.285156H24.6403V0.659711H25.2203V0.285156H26.0781V1.29369H25.6914V3.86646L24.1999 5.45218V7.93744H24.9411V10.3367H25.5549V33.4517C25.5549 34.9023 24.8275 35.7528 23.2654 36.1273C20.8547 36.7045 17.4726 37.515 15.0619 38.0953C14.2194 38.2979 13.6962 38.763 13.4154 39.5567L13.3095 39.8575L13.2021 39.5567C12.9213 38.763 12.398 38.2994 11.5555 38.0953C9.14637 37.515 5.76431 36.7045 3.35206 36.1273C1.78994 35.7528 1.06258 34.9039 1.06258 33.4517V10.3367H1.67638V7.93744H2.41755V5.45218L0.926009 3.86646V1.29369H0.539312V0.285156H1.39557Z" fill="#333333"/>
<path d="M53.7862 23.7358V32.1782H47.7876V7.29541H57.7168C59.6195 7.29541 61.3 7.6486 62.7583 8.35498C64.2281 9.04997 65.3617 10.0469 66.1592 11.3457C66.9681 12.6331 67.3726 14.0972 67.3726 15.7378C67.3726 18.1646 66.501 20.1071 64.7578 21.5654C63.0261 23.0124 60.6449 23.7358 57.6143 23.7358H53.7862ZM53.7862 19.1045H57.7168C58.8789 19.1045 59.7619 18.814 60.3657 18.2329C60.981 17.6519 61.2886 16.8315 61.2886 15.772C61.2886 14.6099 60.9753 13.6813 60.3487 12.9863C59.722 12.2913 58.8675 11.9382 57.7852 11.9268H53.7862V19.1045ZM76.046 32.1782H70.2697V5.92822H76.046V32.1782ZM89.6755 32.1782C89.4704 31.8022 89.2881 31.2497 89.1286 30.5205C88.0691 31.8535 86.5879 32.52 84.6853 32.52C82.9421 32.52 81.461 31.9959 80.2419 30.9478C79.0228 29.8882 78.4133 28.5609 78.4133 26.9658C78.4133 24.9606 79.1539 23.4453 80.635 22.4199C82.1161 21.3945 84.2694 20.8818 87.0949 20.8818H88.8723V19.9077C88.8723 18.2101 88.1374 17.3613 86.6677 17.3613C85.3005 17.3613 84.6169 18.0335 84.6169 19.3779H78.8576C78.8576 17.5892 79.6153 16.1366 81.1306 15.02C82.6573 13.9035 84.5998 13.3452 86.9582 13.3452C89.3166 13.3452 91.1794 13.9206 92.5466 15.0713C93.9138 16.222 94.6145 17.8 94.6487 19.8052V27.9912C94.6714 29.6888 94.9335 30.9876 95.4348 31.8877V32.1782H89.6755ZM86.0696 28.4185C86.7873 28.4185 87.3798 28.2646 87.8469 27.957C88.3254 27.6494 88.6672 27.3019 88.8723 26.9146V23.958H87.1975C85.1923 23.958 84.1897 24.8581 84.1897 26.6582C84.1897 27.1823 84.3663 27.6095 84.7195 27.9399C85.0726 28.259 85.5227 28.4185 86.0696 28.4185ZM96.7767 22.7959C96.7767 19.8678 97.409 17.5607 98.6737 15.8745C99.9383 14.1883 101.704 13.3452 103.972 13.3452C105.624 13.3452 107.014 13.9946 108.141 15.2935V5.92822H113.918V32.1782H108.74L108.449 30.1958C107.264 31.7453 105.76 32.52 103.937 32.52C101.738 32.52 99.9953 31.6769 98.7078 29.9907C97.4204 28.3045 96.7767 25.9062 96.7767 22.7959ZM102.536 23.1548C102.536 26.436 103.493 28.0767 105.407 28.0767C106.683 28.0767 107.595 27.5412 108.141 26.4702V19.4292C107.617 18.3354 106.717 17.7886 105.441 17.7886C103.664 17.7886 102.701 19.2241 102.553 22.0952L102.536 23.1548ZM116.114 22.7959C116.114 19.8678 116.747 17.5607 118.011 15.8745C119.276 14.1883 121.042 13.3452 123.309 13.3452C124.961 13.3452 126.351 13.9946 127.479 15.2935V5.92822H133.255V32.1782H128.077L127.787 30.1958C126.602 31.7453 125.098 32.52 123.275 32.52C121.076 32.52 119.333 31.6769 118.045 29.9907C116.758 28.3045 116.114 25.9062 116.114 22.7959ZM121.873 23.1548C121.873 26.436 122.83 28.0767 124.745 28.0767C126.021 28.0767 126.932 27.5412 127.479 26.4702V19.4292C126.955 18.3354 126.055 17.7886 124.779 17.7886C123.001 17.7886 122.039 19.2241 121.891 22.0952L121.873 23.1548ZM147.363 18.8994L145.466 18.7627C143.655 18.7627 142.493 19.3324 141.98 20.4717V32.1782H136.221V13.687H141.621L141.809 16.0625C142.778 14.251 144.128 13.3452 145.859 13.3452C146.475 13.3452 147.01 13.4136 147.466 13.5503L147.363 18.8994ZM158.993 32.1782C158.788 31.8022 158.606 31.2497 158.446 30.5205C157.387 31.8535 155.906 32.52 154.003 32.52C152.26 32.52 150.779 31.9959 149.56 30.9478C148.341 29.8882 147.731 28.5609 147.731 26.9658C147.731 24.9606 148.472 23.4453 149.953 22.4199C151.434 21.3945 153.587 20.8818 156.413 20.8818H158.19V19.9077C158.19 18.2101 157.455 17.3613 155.985 17.3613C154.618 17.3613 153.935 18.0335 153.935 19.3779H148.175C148.175 17.5892 148.933 16.1366 150.448 15.02C151.975 13.9035 153.918 13.3452 156.276 13.3452C158.634 13.3452 160.497 13.9206 161.864 15.0713C163.232 16.222 163.932 17.8 163.966 19.8052V27.9912C163.989 29.6888 164.251 30.9876 164.753 31.8877V32.1782H158.993ZM155.387 28.4185C156.105 28.4185 156.698 28.2646 157.165 27.957C157.643 27.6494 157.985 27.3019 158.19 26.9146V23.958H156.515C154.51 23.958 153.507 24.8581 153.507 26.6582C153.507 27.1823 153.684 27.6095 154.037 27.9399C154.39 28.259 154.84 28.4185 155.387 28.4185Z" fill="#333333"/>
</svg>
