<svg width="29" height="44" viewBox="0 0 29 44" fill="none" xmlns="http://www.w3.org/2000/svg">
<path fill-rule="evenodd" clip-rule="evenodd" d="M4.49959 32.7275V34.1863H7.64253V32.7275H10.2253V34.1863H13.3683V32.7275H15.9511V34.1863H19.094V32.7275H21.6768V34.1863H24.8198V32.7275H27.3277V12.0619H1.99325V32.7275H4.49959ZM1.87914 11.9477H27.4418V32.8416H24.9339V34.3005H21.5627V32.8416H19.2081V34.3005H15.837V32.8416H13.4824V34.3005H10.1112V32.8416H7.75664V34.3005H4.38548V32.8416H1.87914V11.9477ZM2.10747 0.833008V1.23387H2.49605V0.833008H3.6364V1.23387H4.02498V0.833008H5.16533V2.14067H4.75413V3.55851H5.42967V4.6658H6.40078V3.55851H7.07795V2.14067H6.66676V0.833008H7.80711V1.23387H8.19569V0.833008H9.33604V1.23387H9.72462V0.833008H10.865V2.14067H10.4538V3.55851H11.1293V4.6658H12.2979V3.55851H12.9734V2.14067H12.5622V0.833008H13.7025V1.23387H14.0911V0.833008H15.2315V1.23387H15.6201V0.833008H16.7604V2.14067H16.3492V3.55851H17.0264V4.6658H18.0954V3.55851H18.7726V2.14067H18.3614V0.833008H19.5017V1.23387H19.887V0.833008H21.0274V1.23387H21.416V0.833008H22.5563V2.14067H22.1451V3.55851H22.8207V4.6658H23.8897V3.55851H24.5668V2.14067H24.1557V0.833008H25.296V1.23387H25.6846V0.833008H26.8249V1.23387H27.2135V0.833008H28.3539V2.14067H27.9427V4.825L26.3566 6.52208V9.02266H27.1448V11.5904H27.7974V36.4428C27.7974 37.2384 27.5988 37.8828 27.1759 38.3803C26.7541 38.8766 26.1203 39.2134 25.2756 39.4172C22.7121 40.035 19.1158 40.9024 16.5524 41.5234C16.1189 41.6283 15.7739 41.7996 15.5022 42.0424C15.2306 42.285 15.0265 42.6043 14.8824 43.0141M14.8824 43.0143L14.6629 43.6419L14.4404 43.0146L14.4403 43.0143C14.2962 42.6045 14.0921 42.2855 13.8205 42.043C13.5487 41.8004 13.2037 41.6291 12.7701 41.5233C10.2084 40.9024 6.61215 40.035 4.04711 39.4173C3.20237 39.2134 2.56858 38.877 2.14673 38.381C1.72376 37.8836 1.52517 37.2392 1.52517 36.4428V11.5904H2.17786V9.02266H2.96599V6.52208L1.37995 4.825V2.14067H0.96875V0.833008H2.10747M1.49405 2.02652V4.77995L3.0801 6.47702V9.13681H2.29197V11.7046H1.63928V36.4428C1.63928 37.9969 2.41272 38.9054 4.07382 39.3063C6.6389 39.924 10.2352 40.7914 12.7971 41.4124C13.6929 41.6309 14.2493 42.1271 14.5479 42.9764L14.6621 43.2984L14.7747 42.9764C15.0733 42.1271 15.6297 41.6293 16.5256 41.4124C19.089 40.7914 22.6853 39.924 25.2488 39.3063C26.9099 38.9054 27.6833 37.9953 27.6833 36.4428V11.7046H27.0306V9.13681H26.2425V6.47702L27.8286 4.77995V2.02652H28.2398V0.947162H27.3276V1.34802H26.7108V0.947162H25.7987V1.34802H25.1819V0.947162H24.2698V2.02652H24.681V3.67266H24.0038V4.77995H22.7066V3.67266H22.031V2.02652H22.4422V0.947162H21.5301V1.34802H20.9133V0.947162H20.0011V1.34802H19.3876V0.947162H18.4755V2.02652H18.8867V3.67266H18.2095V4.77995H16.9123V3.67266H16.2351V2.02652H16.6463V0.947162H15.7342V1.34802H15.1174V0.947162H14.2052V1.34802H13.5884V0.947162H12.6763V2.02652H13.0875V3.67266H12.412V4.77995H11.0152V3.67266H10.3397V2.02652H10.7509V0.947162H9.83873V1.34802H9.22193V0.947162H8.3098V1.34802H7.693V0.947162H6.78086V2.02652H7.19206V3.67266H6.51489V4.77995H5.31557V3.67266H4.64003V2.02652H5.05123V0.947162H4.13909V1.34802H3.52229V0.947162H2.61016V1.34802H1.99336V0.947162H1.08285V2.02652H1.49405Z" fill="#333333"/>
<path d="M14.6609 14.3136C14.5206 14.3136 14.4064 14.4286 14.4064 14.5699C14.4064 14.7112 14.5206 14.8262 14.6609 14.8262C14.8013 14.8262 14.9155 14.7112 14.9155 14.5699C14.9155 14.4303 14.8013 14.3136 14.6609 14.3136Z" fill="#333333"/>
<path d="M14.1502 13.9767C14.1502 13.9767 14.1306 13.8519 14.1306 13.6826C14.1306 13.5151 14.1502 13.3886 14.1502 13.3886C14.1502 13.3886 14.3052 13.4789 14.4668 13.4707C14.4863 13.2341 14.3248 12.9811 14.3248 12.9811C14.3248 12.9811 14.5402 13.0501 14.6609 13.0501C14.7817 13.0501 14.9971 12.9811 14.9971 12.9811C14.9971 12.9811 14.8355 13.2341 14.8551 13.4707C15.0167 13.4806 15.1717 13.3886 15.1717 13.3886C15.1717 13.3886 15.1913 13.5134 15.1913 13.6826C15.1913 13.8502 15.1717 13.9767 15.1717 13.9767C15.1717 13.9767 15.0167 13.8864 14.8551 13.8946C14.8404 14.0687 14.9318 14.2412 14.9824 14.3217L14.9547 14.3431C14.8861 14.2544 14.7801 14.1969 14.6609 14.1969C14.5418 14.1969 14.4358 14.2544 14.3672 14.3431L14.3395 14.3217C14.3901 14.2412 14.4815 14.0687 14.4668 13.8946C14.3052 13.8864 14.1502 13.9767 14.1502 13.9767Z" fill="#333333"/>
<path d="M14.6609 14.9247L17.1591 16.8813V17.6912H16.4558V16.8813H15.0118V17.6912H14.3085V16.8813H12.866V17.6912H12.1611V16.8813L14.6609 14.9247Z" fill="#333333"/>
<path d="M11.7924 17.2544V18.0643H13.2348V17.2544H13.9381V18.0643H15.3822V17.2544H16.0855V18.0643H17.5295V17.2544H18.2328V18.7593H11.0891V17.2544H11.7924Z" fill="#333333"/>
<path d="M22.7527 18.3025C22.7527 18.1366 22.6189 18.0018 22.4541 18.0018C22.2893 18.0018 22.1555 18.1366 22.1555 18.3025C22.1555 18.4684 22.2893 18.6031 22.4541 18.6031C22.6189 18.6031 22.7527 18.4684 22.7527 18.3025Z" fill="#333333"/>
<path d="M22.3056 19.8582V18.7838H22.6042V19.8582L24.5705 22.3899H17.9913V19.8582H22.3056Z" fill="#333333"/>
<path d="M19.6932 24.2957V23.471C19.6932 23.305 19.5268 23.172 19.3196 23.172C19.114 23.172 18.9459 23.3067 18.9459 23.471V24.2957H19.6932ZM21.059 24.2957V23.471C21.059 23.305 20.8926 23.172 20.6853 23.172C20.4797 23.172 20.3117 23.3067 20.3117 23.471V24.2957H21.059ZM22.4248 24.2957V23.471C22.4248 23.305 22.2583 23.172 22.0511 23.172C21.8455 23.172 21.6774 23.3067 21.6774 23.471V24.2957H22.4248ZM23.381 24.9118H17.9913V22.7629H23.381V24.9118Z" fill="#333333"/>
<path d="M6.56758 18.3025C6.56758 18.1366 6.70138 18.0018 6.86619 18.0018C7.03099 18.0018 7.16479 18.1366 7.16479 18.3025C7.16479 18.4684 7.03099 18.6031 6.86619 18.6031C6.70138 18.6031 6.56758 18.4684 6.56758 18.3025Z" fill="#333333"/>
<path d="M7.01632 19.8582V18.7838H6.71771V19.8582L4.74984 22.3899H11.329V19.8582H7.01632Z" fill="#333333"/>
<path d="M10.3744 23.4708C10.3744 23.3049 10.208 23.1718 10.0008 23.1718C9.79516 23.1718 9.62709 23.3065 9.62709 23.4708V24.2955H10.3744V23.4708ZM9.00703 23.4708C9.00703 23.3049 8.84059 23.1718 8.63336 23.1718C8.42776 23.1718 8.2597 23.3065 8.2597 23.4708V24.2955H9.0054V23.4708H9.00703ZM7.64127 23.4708C7.64127 23.3049 7.47483 23.1718 7.2676 23.1718C7.06201 23.1718 6.89393 23.3065 6.89393 23.4708V24.2955H7.63964V23.4708H7.64127ZM11.329 24.9116H5.93937V22.7627H11.329V24.9116Z" fill="#333333"/>
<path d="M21.1748 28.2533L18.1169 25.283H23.6518C23.6518 25.283 25.5201 25.9336 25.5201 27.3662C25.5201 27.7687 25.3194 28.0858 25.1856 28.2517H21.1748V28.2533Z" fill="#333333"/>
<path d="M8.14546 28.2533L11.2033 25.283H5.67013C5.67013 25.283 3.80179 25.9336 3.80179 27.3662C3.80179 27.7687 4.0025 28.0858 4.1363 28.2517H8.14546V28.2533Z" fill="#333333"/>
<path d="M9.87182 28.2564L13.5138 23.4182L8.58765 28.3369C8.70187 28.3829 8.89442 28.4387 9.1457 28.4387C9.55527 28.4404 9.7935 28.3073 9.87182 28.2564ZM11.6455 28.2531L14.0066 23.2046L10.2863 28.3139C10.4168 28.373 10.6257 28.4387 10.8998 28.4387C11.2555 28.4404 11.5329 28.3139 11.6455 28.2531ZM13.4747 28.2416L14.3721 23.0452L12.0257 28.3024C12.1383 28.3615 12.3439 28.4387 12.6523 28.4387C12.9493 28.4404 13.3148 28.3073 13.4747 28.2416ZM14.661 28.4404C15.1195 28.4404 15.3691 28.3517 15.4833 28.2925L14.661 22.9122L13.8386 28.2925C13.9528 28.35 14.2024 28.4387 14.661 28.4404ZM17.2962 28.304L14.9498 23.0469L15.8472 28.2432C16.0071 28.3073 16.3726 28.4404 16.6696 28.4404C16.978 28.4404 17.1836 28.3615 17.2962 28.304ZM19.034 28.3155L15.3136 23.2062L17.6748 28.2547C17.7857 28.3155 18.0615 28.4404 18.4188 28.4404C18.6962 28.4404 18.9051 28.373 19.034 28.3155ZM20.7343 28.3369L15.8081 23.4182L19.4485 28.2564C19.5284 28.309 19.7666 28.4404 20.1762 28.4404C20.4291 28.4404 20.6217 28.3829 20.7343 28.3369Z" fill="#333333"/>
<path d="M21.6595 30.6321V29.8074C21.6595 29.6431 21.493 29.5084 21.2858 29.5084C21.0802 29.5084 20.9121 29.6415 20.9121 29.8074V30.6321H21.6595ZM24.3926 29.8074C24.3926 29.6431 24.2262 29.5084 24.019 29.5084C23.8134 29.5084 23.6453 29.6415 23.6453 29.8074V30.6321H24.391V29.8074H24.3926ZM23.0252 29.8074C23.0252 29.6431 22.8588 29.5084 22.6516 29.5084C22.446 29.5084 22.2779 29.6415 22.2779 29.8074V30.6321H23.0236V29.8074H23.0252ZM20.9986 28.6262H24.9344V32.3308H24.4253V33.7897H22.0707V32.3308H20.3704V28.8036C20.6837 28.7724 20.904 28.6755 20.9986 28.6262Z" fill="#333333"/>
<path d="M8.40651 29.8074C8.40651 29.6431 8.24007 29.5084 8.03284 29.5084C7.82724 29.5084 7.65918 29.6414 7.65918 29.8074V30.6321H8.40488V29.8074H8.40651ZM5.67499 30.6321V29.8074C5.67499 29.6431 5.50856 29.5084 5.30133 29.5084C5.09573 29.5084 4.92766 29.6414 4.92766 29.8074V30.6321H5.67499ZM7.04075 30.6321V29.8074C7.04075 29.6431 6.87432 29.5084 6.66709 29.5084C6.46149 29.5084 6.29342 29.6414 6.29342 29.8074V30.6321H7.04075ZM8.94988 28.8019V32.3291H7.24961V33.788H4.89502V32.3291H4.38593V28.6245H8.32166C8.41793 28.6754 8.63659 28.7724 8.94988 28.8019Z" fill="#333333"/>
<path d="M10.3124 31.4552H11.3012V30.0374C11.3012 29.8189 11.0793 29.6415 10.8068 29.6415C10.5343 29.6415 10.3124 29.8189 10.3124 30.0374V31.4552ZM12.0388 31.4552H13.2658V29.9372C13.2658 29.6661 12.9917 29.446 12.6523 29.446C12.3129 29.446 12.0388 29.6661 12.0388 29.9372V31.4552ZM14.0474 31.4552H15.2745V29.9372C15.2745 29.6661 15.0004 29.446 14.661 29.446C14.3216 29.446 14.0474 29.6661 14.0474 29.9372V31.4552ZM16.0561 31.4552H17.2831V29.9372C17.2831 29.6661 17.009 29.446 16.6696 29.446C16.3302 29.446 16.0561 29.6661 16.0561 29.9372V31.4552ZM18.0207 31.4552H19.0095V30.0374C19.0095 29.8189 18.7876 29.6415 18.5151 29.6415C18.2426 29.6415 18.0207 29.8189 18.0207 30.0374V31.4552ZM10.0236 28.5983C10.177 28.6837 10.4788 28.8118 10.9014 28.8118C11.3094 28.8118 11.6308 28.6788 11.7924 28.5966C11.9376 28.6837 12.2232 28.8118 12.6523 28.8118C13.0113 28.8118 13.4225 28.664 13.6085 28.5884C13.7586 28.6788 14.0752 28.8102 14.6561 28.8118H14.6626C15.2435 28.8102 15.5617 28.6804 15.7118 28.5884C15.8978 28.664 16.3106 28.8118 16.668 28.8118C17.0971 28.8118 17.3827 28.6837 17.5279 28.5966C17.6894 28.6788 18.0109 28.8118 18.4188 28.8118C18.8415 28.8118 19.1417 28.6837 19.2967 28.5983C19.4256 28.6722 19.6606 28.7757 20 28.8036V32.3292H18.6995V33.7881H16.3449V32.3292H12.9737V33.7881H10.6192V32.3292H9.31867V28.8036C9.65807 28.7773 9.89467 28.6738 10.0236 28.5983Z" fill="#333333"/>
<path d="M16.3988 20.6171V19.7924C16.3988 19.6281 16.2324 19.4934 16.0251 19.4934C15.8195 19.4934 15.6515 19.6265 15.6515 19.7924V20.6171H16.3988ZM15.033 19.7924C15.033 19.6281 14.865 19.4934 14.6594 19.4934C14.4538 19.4934 14.2857 19.6265 14.2857 19.7924V20.6171H15.0314V19.7924H15.033ZM13.6673 19.7924C13.6673 19.6281 13.5008 19.4934 13.2936 19.4934C13.088 19.4934 12.9199 19.6265 12.9199 19.7924V20.6171H13.6656V19.7924H13.6673ZM15.2729 21.6258L14.661 21.0097L14.0491 21.6258L14.5011 22.0809L11.6994 24.8015V19.1303H17.621V24.8015L14.8193 22.0809L15.2729 21.6258Z" fill="#333333"/>
<path d="M1.87962 32.8417H4.38596V34.3006H7.75711V32.8417H10.1117V34.3006H13.4829V32.8417H15.8374V34.3006H19.2086V32.8417H21.5632V34.3006H24.9343V32.8417H27.4423V11.9478H1.87962V32.8417ZM1.99384 0.947266V1.34812H2.61063V0.947266H3.52277V1.34812H4.13956V0.947266H5.0517V2.02662H4.64051V3.67277H5.31604V4.78005H6.51537V3.67277H7.19253V2.02662H6.78134V0.947266H7.69348V1.34812H8.31027V0.947266H9.22241V1.34812H9.8392V0.947266H10.7513V2.02662H10.3401V3.67277H11.0157V4.78005H12.4124V3.67277H13.088V2.02662H12.6768V0.947266H13.5889V1.34812H14.2057V0.947266H15.1179V1.34812H15.7346V0.947266H16.6468V2.02662H16.2356V3.67277H16.9128V4.78005H18.21V3.67277H18.8872V2.02662H18.476V0.947266H19.3881V1.34812H20.0016V0.947266H20.9138V1.34812H21.5306V0.947266H22.4427V2.02662H22.0315V3.67277H22.707V4.78005H24.0043V3.67277H24.6814V2.02662H24.2702V0.947266H25.1824V1.34812H25.7992V0.947266H26.7113V1.34812H27.3281V0.947266H28.2402V2.02662H27.829V4.78005L26.243 6.47713V9.13692H27.0311V11.7047H27.6838V36.4429C27.6838 37.9954 26.9104 38.9055 25.2493 39.3064C22.6858 39.9241 19.0895 40.7915 16.526 41.4125C15.6302 41.6294 15.0738 42.1272 14.7752 42.9765L14.6626 43.2985L14.5484 42.9765C14.2498 42.1272 13.6934 41.631 12.7975 41.4125C10.2357 40.7915 6.63938 39.9241 4.07429 39.3064C2.41319 38.9055 1.63975 37.997 1.63975 36.4429V11.7047H2.29244V9.13692H3.08057V6.47713L1.49453 4.78005V2.02662H1.08333V0.947266H1.99384Z" fill="#333333"/>
</svg>
